<!-- Generated by IcoMoon.io -->
<svg version="1.1" xmlns="http://www.w3.org/2000/svg" width="32" height="32" viewBox="0 0 32 32">
<title>archive</title>
<path d="M29.523 7.622h-26.963c-0.006-0-0.013-0-0.020-0-0.23 0-0.416 0.186-0.416 0.416 0 0.007 0 0.014 0.001 0.021l-0-0.001v4.352c-0.001 0.008-0.001 0.017-0.001 0.026 0 0.226 0.183 0.41 0.41 0.41 0.009 0 0.019-0 0.028-0.001l-0.001 0h1.734v12.614c-0.001 0.008-0.001 0.017-0.001 0.026 0 0.226 0.183 0.41 0.41 0.41 0.009 0 0.019-0 0.028-0.001l-0.001 0h22.618c0.008 0.001 0.017 0.001 0.026 0.001 0.226 0 0.41-0.183 0.41-0.41 0-0.009-0-0.019-0.001-0.028l0 0.001v-12.614h1.741c0.008 0.001 0.017 0.001 0.026 0.001 0.226 0 0.41-0.183 0.41-0.41 0-0.009-0-0.019-0.001-0.028l0 0.001v-4.352c0-0.006 0-0.013 0-0.020 0-0.23-0.186-0.416-0.416-0.416-0.007 0-0.014 0-0.021 0l0.001-0zM26.912 25.024h-21.76v-12.16h21.76zM29.088 11.974h-26.099v-3.482h26.099z"></path>
<path d="M10.387 16.762h11.309c0.24 0 0.435-0.195 0.435-0.435s-0.195-0.435-0.435-0.435h-11.309c-0.24 0-0.435 0.195-0.435 0.435s0.195 0.435 0.435 0.435v0z"></path>
</svg>
