<!-- Generated by IcoMoon.io -->
<svg version="1.1" xmlns="http://www.w3.org/2000/svg" width="32" height="32" viewBox="0 0 32 32">
<title>customer-review</title>
<path d="M13.188 17.875c0 1.551 1.262 2.813 2.813 2.813s2.813-1.262 2.813-2.813-1.262-2.813-2.813-2.813-2.813 1.262-2.813 2.813z"></path>
<path d="M16 22.563c-3.102 0-5.625 2.523-5.625 5.625v3.813h11.25v-3.813c0-3.102-2.523-5.625-5.625-5.625z"></path>
<path d="M8.5 19.75c0-1.551-1.262-2.813-2.813-2.813s-2.813 1.262-2.813 2.813 1.262 2.813 2.813 2.813 2.813-1.262 2.813-2.813z"></path>
<path d="M29.125 19.75c0-1.551-1.262-2.813-2.813-2.813s-2.813 1.262-2.813 2.813 1.262 2.813 2.813 2.813 2.813-1.262 2.813-2.813z"></path>
<path d="M4.75 0l-1.426 3.363-3.324 0.469 2.397 2.277-0.551 3.329 2.904-1.518 2.904 1.518-0.551-3.329 2.335-2.277-3.226-0.469z"></path>
<path d="M17.461 3.363l-1.461-3.363-1.426 3.363-3.261 0.469 2.335 2.277-0.551 3.329 2.904-1.518 2.904 1.518-0.551-3.329 2.335-2.277z"></path>
<path d="M27.25 0l-1.426 3.363-3.261 0.469 2.335 2.277-0.551 3.329 2.904-1.518 2.904 1.518-0.551-3.329 2.397-2.277-3.289-0.469z"></path>
<path d="M26.313 24.438c-1.246 0-2.386 0.418-3.319 1.104 0.314 0.826 0.506 1.712 0.506 2.646v3.813h8.5v-1.938c0-3.107-2.581-5.625-5.688-5.625z"></path>
<path d="M0 30.063v1.938h8.5v-3.813c0-0.935 0.192-1.82 0.506-2.646-0.932-0.686-2.072-1.104-3.319-1.104-3.107 0-5.688 2.518-5.688 5.625z"></path>
</svg>
