<!-- Generated by IcoMoon.io -->
<svg version="1.1" xmlns="http://www.w3.org/2000/svg" width="32" height="32" viewBox="0 0 32 32">
<title>developmentProgram</title>
<path d="M10.795 11.477c0.341 0 0.64-0.299 0.64-0.64s-0.299-0.64-0.64-0.64-0.64 0.299-0.64 0.64c-0.043 0.384 0.256 0.64 0.64 0.64zM10.795 10.709c0.085 0 0.128 0.085 0.128 0.128 0 0.171-0.299 0.171-0.299 0 0-0.085 0.085-0.128 0.171-0.128z"></path>
<path d="M22.869 8.875h-13.739c-0.128 0-0.256 0.128-0.256 0.256v13.739c0 0.128 0.128 0.256 0.256 0.256h13.739c0.128 0 0.256-0.128 0.256-0.256v-13.739c0-0.128-0.128-0.256-0.256-0.256zM22.613 9.387v2.944h-13.227v-2.944h13.227zM9.387 22.613v-9.813h13.227v9.813h-13.227z"></path>
<path d="M15.957 11.52c0.384 0 0.683-0.299 0.683-0.683s-0.299-0.683-0.683-0.683c-0.384 0-0.683 0.299-0.683 0.683 0.043 0.384 0.341 0.683 0.683 0.683zM15.957 10.667c0.085 0 0.171 0.085 0.171 0.171 0 0.171-0.341 0.171-0.341 0 0.043-0.085 0.085-0.171 0.171-0.171z"></path>
<path d="M10.965 14.080c-0.085-0.085-0.256-0.085-0.341 0s-0.085 0.256 0 0.341l1.579 1.536-1.536 1.579c-0.085 0.085-0.085 0.256 0 0.341 0.043 0.043 0.128 0.085 0.171 0.085s0.128-0.043 0.171-0.085l1.92-1.92-1.963-1.877z"></path>
<path d="M14.293 17.451h-1.707c-0.128 0-0.256 0.128-0.256 0.256s0.128 0.256 0.256 0.256h1.707c0.128 0 0.256-0.128 0.256-0.256s-0.128-0.256-0.256-0.256z"></path>
<path d="M13.355 11.52c0.384 0 0.683-0.299 0.683-0.683s-0.299-0.683-0.683-0.683c-0.384 0-0.683 0.299-0.683 0.683 0.043 0.384 0.341 0.683 0.683 0.683zM13.355 10.667c0.085 0 0.171 0.085 0.171 0.171 0 0.171-0.341 0.171-0.341 0 0.043-0.085 0.085-0.171 0.171-0.171z"></path>
</svg>
