<!-- Generated by IcoMoon.io -->
<svg version="1.1" xmlns="http://www.w3.org/2000/svg" width="32" height="32" viewBox="0 0 32 32">
<title>fixRecipient</title>
<path d="M31.509 12.743c-0.002-0.003-0.005-0.004-0.008-0.007-0.113-0.159-0.243-0.304-0.388-0.434l-5.871-5.262c-1.146-4.159-4.929-7.040-9.242-7.040s-8.096 2.881-9.243 7.039l-5.87 5.262c-0.565 0.506-0.887 1.229-0.887 1.987v15.045c0.002 1.472 1.195 2.665 2.667 2.667h26.667c1.472-0.002 2.665-1.195 2.667-2.667v-15.045c-0.001-0.547-0.17-1.081-0.484-1.529-0.003-0.005-0.004-0.011-0.007-0.016zM30.933 14.288v15.045c0 0.318-0.095 0.629-0.273 0.892l-11.178-8.094 11.387-8.265c0.040 0.137 0.062 0.279 0.064 0.422zM16 1.067c4.713 0 8.533 3.821 8.533 8.533s-3.82 8.533-8.533 8.533-8.533-3.82-8.533-8.533c0.005-4.711 3.823-8.528 8.533-8.533zM6.443 8.753c-0.024 0.28-0.043 0.561-0.043 0.847 0 5.302 4.298 9.6 9.6 9.6s9.6-4.298 9.6-9.6c0-0.286-0.018-0.567-0.043-0.846l4.716 4.227-13.364 9.7c-0.549 0.398-1.29 0.407-1.849 0.022l-13.637-9.413c0.053-0.070 0.112-0.134 0.176-0.194zM1.339 30.225c-0.178-0.263-0.273-0.574-0.273-0.892v-14.994l11.369 7.848zM2.667 30.933c-0.137-0.002-0.273-0.022-0.405-0.059l11.105-8.045 1.088 0.751c0.931 0.642 2.166 0.627 3.081-0.037l1.039-0.754 11.164 8.084c-0.132 0.037-0.268 0.057-0.405 0.059z"></path>
<path d="M10.667 12.267h5.867v1.333c-0.001 0.324 0.194 0.616 0.494 0.739 0.098 0.041 0.204 0.062 0.31 0.062 0.205 0.001 0.403-0.079 0.549-0.223l4.279-4.011c0.151-0.153 0.235-0.359 0.232-0.574s-0.090-0.42-0.245-0.569l-4.254-3.988c-0.229-0.229-0.573-0.297-0.872-0.173s-0.494 0.416-0.494 0.739v1.333h-5.867c-0.589 0.001-1.066 0.478-1.067 1.067v3.2c0.001 0.589 0.478 1.066 1.067 1.067zM10.667 8h5.867c0.589-0.001 1.066-0.478 1.067-1.067v-0.717l3.61 3.384-3.61 3.384v-0.717c-0.001-0.589-0.478-1.066-1.067-1.067h-5.867z"></path>
</svg>
