<!-- Generated by IcoMoon.io -->
<svg version="1.1" xmlns="http://www.w3.org/2000/svg" width="32" height="32" viewBox="0 0 32 32">
<title>flag</title>
<path d="M13.734 23.981h-2.406c-0.258 0-0.467-0.209-0.467-0.467s0.209-0.467 0.467-0.467v0h0.71v-14.291c0-0.258 0.209-0.467 0.467-0.467s0.467 0.209 0.467 0.467v0 14.285h0.762c0.258 0 0.467 0.209 0.467 0.467s-0.209 0.467-0.467 0.467v0z"></path>
<path d="M12.55 10.086l0.006 5.165h8.723l-1.382-2.374 1.382-2.771h-8.723z"></path>
<path d="M21.28 15.718h-8.723c-0.258 0-0.467-0.209-0.467-0.467v-5.165c0-0.258 0.209-0.467 0.467-0.467v0 0c0.022-0.003 0.048-0.005 0.074-0.005s0.052 0.002 0.076 0.005l-0.003-0h8.576c0 0 0.001 0 0.002 0 0.167 0 0.313 0.089 0.394 0.222l0.001 0.002c0.039 0.065 0.062 0.143 0.062 0.227s-0.023 0.162-0.063 0.229l0.001-0.002-1.28 2.56 1.28 2.157c0.041 0.067 0.065 0.147 0.065 0.234s-0.024 0.167-0.066 0.236l0.001-0.002c-0.079 0.141-0.227 0.235-0.396 0.237h-0zM13.024 14.784h7.456l-0.973-1.67c-0.036-0.065-0.057-0.142-0.057-0.224s0.021-0.159 0.058-0.226l-0.001 0.002 1.050-2.086h-7.539z"></path>
</svg>
