<?xml version="1.0" encoding="UTF-8" standalone="no"?>
<svg
   xmlns:dc="http://purl.org/dc/elements/1.1/"
   xmlns:cc="http://creativecommons.org/ns#"
   xmlns:rdf="http://www.w3.org/1999/02/22-rdf-syntax-ns#"
   xmlns:svg="http://www.w3.org/2000/svg"
   xmlns="http://www.w3.org/2000/svg"
   xmlns:sodipodi="http://sodipodi.sourceforge.net/DTD/sodipodi-0.dtd"
   xmlns:inkscape="http://www.inkscape.org/namespaces/inkscape"
   version="1.1"
   width="32"
   height="32"
   viewBox="0 0 32 32"
   id="svg6"
   sodipodi:docname="important.svg"
   inkscape:version="1.0.1 (3bc2e813f5, 2020-09-07)">
  <metadata
     id="metadata12">
    <rdf:RDF>
      <cc:Work
         rdf:about="">
        <dc:format>image/svg+xml</dc:format>
        <dc:type
           rdf:resource="http://purl.org/dc/dcmitype/StillImage" />
      </cc:Work>
    </rdf:RDF>
  </metadata>
  <defs
     id="defs10" />
  <sodipodi:namedview
     pagecolor="#ffffff"
     bordercolor="#666666"
     borderopacity="1"
     objecttolerance="10"
     gridtolerance="10"
     guidetolerance="10"
     inkscape:pageopacity="0"
     inkscape:pageshadow="2"
     inkscape:window-width="1920"
     inkscape:window-height="1147"
     id="namedview8"
     showgrid="false"
     inkscape:zoom="30.625"
     inkscape:cx="16"
     inkscape:cy="16"
     inkscape:window-x="-8"
     inkscape:window-y="-8"
     inkscape:window-maximized="1"
     inkscape:current-layer="svg6" />
  <title
     id="title2">important</title>
  <path
     fill="#ab004d"
     d="M15.037 26.435h1.925c0.413 0 0.759-0.387 0.759-0.836v-2.096c0-0.448-0.345-0.852-0.759-0.852h-1.929c-0.413 0-0.757 0.4-0.757 0.853v2.095c-0.001 0.012-0.001 0.026-0.001 0.041 0 0.428 0.337 0.777 0.761 0.795l0.002 0zM13.683 6.393c0.023 0.503 0.049 1.005 0.072 1.509l0.315 6.56c0.064 1.373 0.129 2.745 0.199 4.117v0.033c0 0.063 0.004 0.12 0.015 0.183 0.004 0.017 0.008 0.037 0.016 0.053 0 0.009 0.004 0.013 0.008 0.021 0.011 0.027 0.027 0.051 0.033 0.071 0.008 0.016 0.012 0.034 0.013 0.053v0l0.017 0.013 0.012 0.004c0.004 0.005 0.012 0.005 0.012 0.009v0.017c0.004 0.007 0.004 0.016 0.011 0.024 0.004 0.004 0.008 0.013 0.012 0.016 0.019 0.025 0.041 0.051 0.061 0.075 0.034 0.039 0.072 0.073 0.113 0.103l0.002 0.001c0.012 0.009 0.019 0.017 0.031 0.021 0.008 0.004 0.015 0.013 0.023 0.016l0.023 0.013 0.020 0.013c0.011 0.003 0.023 0.012 0.035 0.016 0.007 0.004 0.011 0.004 0.015 0.008 0.014 0.008 0.030 0.015 0.048 0.020l0.002 0c0.008 0.005 0.017 0.008 0.026 0.009l0 0c0.004 0 0.008 0.004 0.008 0.004 0.004 0.004 0.012 0.004 0.020 0.004 0.003 0 0.007 0 0.007 0.004l0.016 0.004c0.008 0.004 0.019 0.004 0.027 0.008h0.008l0.064 0.013c0.018 0.003 0.039 0.004 0.060 0.004 0.005 0 0.009-0 0.014-0l-0.001 0h1.929c0.432 0 0.743-0.383 0.765-0.832 0.023-0.503 0.049-1.005 0.073-1.509 0.107-2.187 0.211-4.373 0.313-6.561 0.065-1.373 0.133-2.744 0.2-4.116 0.023-0.449-0.368-0.832-0.767-0.832h-3.104c-0.221 0.007-0.418 0.107-0.554 0.261l-0.001 0.001c-0.131 0.137-0.212 0.324-0.212 0.529 0 0.013 0 0.026 0.001 0.039l-0-0.002z"
     id="path4"
     style="fill:#000000;fill-opacity:1" />
</svg>
