<!-- Generated by IcoMoon.io -->
<svg version="1.1" xmlns="http://www.w3.org/2000/svg" width="24" height="32" viewBox="0 0 24 32">
<title>memo</title>
<path d="M23.16 32.107h-22.539c-0.003 0-0.006 0-0.009 0-0.343 0-0.621-0.278-0.621-0.621 0-0.038 0.003-0.075 0.010-0.111l-0.001 0.004v-30.759c0-0.343 0.278-0.621 0.621-0.621v0h22.539c0.343 0 0.621 0.278 0.621 0.621v0 30.759c0.006 0.032 0.009 0.069 0.009 0.107 0 0.343-0.278 0.621-0.621 0.621-0.003 0-0.007-0-0.010-0h0zM1.241 30.759h21.405v-29.517h-21.405z"></path>
<path d="M4.623 15.947h14.641c0.366 0 0.664 0.297 0.664 0.664s-0.297 0.664-0.664 0.664h-14.641c-0.366 0-0.664-0.297-0.664-0.664s0.297-0.664 0.664-0.664v0z"></path>
<path d="M4.623 20.677h14.641c0.006-0 0.014-0 0.022-0 0.383 0 0.694 0.304 0.706 0.684l0 0.001c-0.012 0.381-0.323 0.685-0.706 0.685-0.008 0-0.015-0-0.023-0l0.001 0h-14.641c-0.007 0-0.016 0-0.024 0-0.368 0-0.67-0.281-0.703-0.64l-0-0.003c-0-0.006-0-0.014-0-0.022 0-0.39 0.316-0.706 0.706-0.706 0.008 0 0.015 0 0.023 0l-0.001-0z"></path>
<path d="M4.623 25.429h14.641c0.006-0 0.014-0 0.022-0 0.383 0 0.694 0.304 0.706 0.684l0 0.001c-0.012 0.393-0.333 0.706-0.727 0.706-0 0-0 0-0 0h-14.641c-0 0-0 0-0 0-0.394 0-0.716-0.314-0.727-0.705l-0-0.001c0.012-0.381 0.323-0.685 0.706-0.685 0.008 0 0.015 0 0.023 0l-0.001-0z"></path>
<path d="M7.513 6.421h8.755c0.007-0 0.015-0 0.023-0 0.375 0 0.682 0.293 0.705 0.662l0 0.002c-0.011 0.37-0.313 0.665-0.685 0.665-0.015 0-0.030-0-0.045-0.001l0.002 0h-8.755c-0.013 0.001-0.028 0.001-0.043 0.001-0.371 0-0.673-0.295-0.685-0.664l-0-0.001c0.023-0.371 0.33-0.664 0.705-0.664 0.008 0 0.016 0 0.024 0l-0.001-0z"></path>
<path d="M4.623 11.173h14.641c0.006-0 0.014-0 0.022-0 0.383 0 0.694 0.304 0.706 0.684l0 0.001c-0.012 0.393-0.333 0.706-0.727 0.706-0 0-0 0-0 0h-14.641c-0 0-0 0-0 0-0.394 0-0.716-0.314-0.727-0.705l-0-0.001c0.012-0.381 0.323-0.685 0.706-0.685 0.008 0 0.015 0 0.023 0l-0.001-0z"></path>
</svg>
