<!-- Generated by IcoMoon.io -->
<svg version="1.1" xmlns="http://www.w3.org/2000/svg" width="32" height="32" viewBox="0 0 32 32">
<title>pdf</title>
<path d="M9.426 20.588c0-0.531-0.369-0.848-1.019-0.848-0.266 0-0.446 0.026-0.54 0.051v1.705c0.111 0.025 0.248 0.033 0.437 0.033 0.694 0 1.122-0.35 1.122-0.941z"></path>
<path d="M13.454 19.757c-0.291 0-0.48 0.025-0.591 0.051v3.776c0.111 0.026 0.291 0.026 0.454 0.026 1.182 0.008 1.953-0.642 1.953-2.021 0.008-1.199-0.694-1.833-1.816-1.833z"></path>
<path d="M20.937 0h-12.852c-1.878 0-3.406 1.529-3.406 3.406v12.594h-0.333c-0.758 0-1.372 0.614-1.372 1.372v8.323c0 0.758 0.615 1.372 1.372 1.372h0.333v1.526c0 1.879 1.528 3.406 3.406 3.406h17.537c1.876 0 3.405-1.527 3.405-3.406v-20.533l-8.089-8.061zM6.574 18.874c0.402-0.068 0.968-0.119 1.764-0.119 0.805 0 1.379 0.154 1.764 0.462 0.368 0.291 0.617 0.771 0.617 1.336s-0.188 1.045-0.531 1.37c-0.446 0.419-1.105 0.608-1.876 0.608-0.172 0-0.325-0.009-0.446-0.025v2.064h-1.293v-5.696zM25.621 29.914h-17.537c-0.727 0-1.319-0.592-1.319-1.32v-1.526h16.348c0.758 0 1.372-0.614 1.372-1.372v-8.323c0-0.759-0.615-1.372-1.372-1.372h-16.348v-12.594c0-0.726 0.592-1.318 1.319-1.318l12.072-0.013v4.462c0 1.303 1.058 2.362 2.362 2.362l4.371-0.013 0.049 19.707c0 0.728-0.591 1.32-1.318 1.32zM11.553 24.544v-5.67c0.48-0.076 1.105-0.119 1.764-0.119 1.096 0 1.807 0.197 2.364 0.616 0.599 0.446 0.976 1.156 0.976 2.176 0 1.105-0.402 1.867-0.959 2.338-0.608 0.505-1.533 0.745-2.663 0.745-0.677 0-1.156-0.043-1.482-0.086zM20.9 21.187v1.062h-2.073v2.321h-1.31v-5.772h3.528v1.070h-2.218v1.319h2.073z"></path>
</svg>
