<?xml version="1.0" encoding="UTF-8" standalone="no"?>
<svg
   xmlns:dc="http://purl.org/dc/elements/1.1/"
   xmlns:cc="http://creativecommons.org/ns#"
   xmlns:rdf="http://www.w3.org/1999/02/22-rdf-syntax-ns#"
   xmlns:svg="http://www.w3.org/2000/svg"
   xmlns="http://www.w3.org/2000/svg"
   xmlns:sodipodi="http://sodipodi.sourceforge.net/DTD/sodipodi-0.dtd"
   xmlns:inkscape="http://www.inkscape.org/namespaces/inkscape"
   version="1.1"
   width="51"
   height="32"
   viewBox="0 0 51 32"
   id="svg10"
   sodipodi:docname="pnc.svg"
   inkscape:version="1.0.1 (3bc2e813f5, 2020-09-07)">
  <metadata
     id="metadata16">
    <rdf:RDF>
      <cc:Work
         rdf:about="">
        <dc:format>image/svg+xml</dc:format>
        <dc:type
           rdf:resource="http://purl.org/dc/dcmitype/StillImage" />
      </cc:Work>
    </rdf:RDF>
  </metadata>
  <defs
     id="defs14" />
  <sodipodi:namedview
     pagecolor="#ffffff"
     bordercolor="#666666"
     borderopacity="1"
     objecttolerance="10"
     gridtolerance="10"
     guidetolerance="10"
     inkscape:pageopacity="0"
     inkscape:pageshadow="2"
     inkscape:window-width="1920"
     inkscape:window-height="1147"
     id="namedview12"
     showgrid="false"
     inkscape:zoom="23.803922"
     inkscape:cx="25.5"
     inkscape:cy="16"
     inkscape:window-x="-8"
     inkscape:window-y="-8"
     inkscape:window-maximized="1"
     inkscape:current-layer="svg10" />
  <title
     id="title2">pnc</title>
  <path
     fill="#5e97a5"
     d="M15.979 14.267c1.867 0.547 1.827 1.493 2.667 6.28s6.133 4.107 6.133 4.107-7.44-1.8-4.093-11.32c0.533-2.133-1.213-3.907-3.76-4.32-5.853-0.96-10.293-1.333-13.627-1.867 3.413 7.747 2.107 5.293 12.68 7.12z"
     id="path4"
     style="fill:#010101;fill-opacity:1" />
  <path
     fill="#5e97a5"
     d="M7.672 17.547l9.413 0.653c0 0 0 0 0.001 0 0.081 0 0.147-0.066 0.147-0.147 0-0.005-0-0.009-0.001-0.014l0 0.001c0-2.027-0.4-2.853-2.053-3.267l-9.333-1.24c0.453 1.907 0.293 3.8 1.827 4.013zM17.659 19.6l0.627 2.333c0.006 0.021 0.010 0.044 0.010 0.069 0 0.122-0.091 0.223-0.209 0.238l-0.001 0c-4.067 0.2-7.68 1.72-9.173-3.373-0.009-0.024-0.015-0.052-0.015-0.080 0-0.125 0.101-0.227 0.227-0.227 0.005 0 0.010 0 0.015 0.001l-0.001-0 8.333 0.88c0.092 0.004 0.168 0.071 0.186 0.159l0 0.001zM21.192 25.213c0.025 0.024 0.041 0.058 0.041 0.096 0 0.064-0.046 0.118-0.107 0.131l-0.001 0c-2.853 0-11.36-1.72-8.48-1.96l5.787-0.467c0.014-0.002 0.030-0.002 0.047-0.002 0.114 0 0.219 0.041 0.3 0.11l-0.001-0.001 2.413 2.093zM50.019 7.107c-3.347 0.573-7.773 0.907-13.627 1.867-2.533 0.36-4.267 2.187-3.707 4.36 3.307 9.56-4.173 11.36-4.173 11.36s5.253 0.68 6.133-4.107c0.88-4.787 0.827-5.733 2.667-6.28 10.587-1.867 9.28 0.587 12.707-7.2z"
     id="path6"
     style="fill:#000000;fill-opacity:1" />
  <path
     fill="#5e97a5"
     d="M47.352 13.533l-9.333 1.24c-1.64 0.413-2.013 1.24-2.040 3.267-0 0.004-0.001 0.009-0.001 0.013 0 0.081 0.066 0.147 0.147 0.147 0 0 0 0 0.001 0h-0l9.4-0.653c1.64-0.213 1.48-2.107 1.827-4.013zM35.832 19.44l8.333-0.88c0.131 0.002 0.236 0.109 0.236 0.24 0 0.024-0.003 0.047-0.010 0.068l0-0.002c-1.493 5.093-5.12 3.573-9.187 3.373-0.113-0.021-0.197-0.119-0.197-0.236 0-0.025 0.004-0.049 0.011-0.072l-0 0.002 0.627-2.333c0.019-0.089 0.094-0.156 0.186-0.16l0-0zM34.512 23.12c0.085-0.068 0.195-0.109 0.314-0.109 0.016 0 0.032 0.001 0.048 0.002l-0.002-0 5.787 0.467c2.88 0.24-5.627 2-8.493 1.96-0.107 0-0.147-0.147-0.067-0.227l2.413-2.093zM30.912 11.8c-0.154-0.148-0.319-0.288-0.493-0.417l-0.014-0.010c-0.061-0.063-0.131-0.117-0.209-0.158l-0.004-0.002c-0.968-0.705-2.181-1.13-3.492-1.133h-0.001c-3.663 0.207-6.555 3.227-6.555 6.923 0 0.116 0.003 0.232 0.009 0.346l-0.001-0.016c-0 0.026-0 0.057-0 0.088 0 2.119 0.873 4.033 2.279 5.404l0.002 0.002 0.187 0.173 0.533 0.427 0.213 0.147c0.94 0.623 2.093 0.996 3.332 1h0.001c3.656-0.214 6.541-3.231 6.541-6.922 0-0.112-0.003-0.223-0.008-0.333l0.001 0.016c0-0.028 0.001-0.061 0.001-0.094 0-2.037-0.809-3.886-2.122-5.242l0.002 0.002-0.2-0.2zM20.819 17.333c-0.004-0.086-0.007-0.187-0.007-0.289 0-3.317 2.599-6.026 5.871-6.204l0.016-0.001c0.876 0.001 1.701 0.213 2.43 0.587l-0.030-0.014-6.867 10.133c-0.882-1.142-1.413-2.593-1.413-4.168 0-0.016 0-0.032 0-0.047v0.002zM26.699 23.827c-0.727-0.002-1.418-0.149-2.048-0.413l0.035 0.013c1.16-1.547 5.587-8.56 6.6-10.147 0.867 1.179 1.333 2.604 1.333 4.067 0.005 0.089 0.007 0.194 0.007 0.299 0 3.328-2.622 6.044-5.914 6.194l-0.013 0v-0.013zM30.405 11.387l-0.387 0.613-7.4 11.027-0.187-0.173 0.4-0.6 6.96-10.413 0.4-0.587c0.082 0.039 0.152 0.088 0.214 0.147l-0-0v-0.013zM30.912 11.813l-7.347 11.013-0.413 0.6 0.213 0.147 0.4-0.6 7.347-10.96-0.2-0.2z"
     id="path8"
     style="fill:#000000;fill-opacity:1" />
</svg>
