<!-- Generated by IcoMoon.io -->
<svg version="1.1" xmlns="http://www.w3.org/2000/svg" width="32" height="32" viewBox="0 0 32 32">
<title>speechBubble</title>
<path d="M16 1.103c8.221 0 14.897 6.676 14.897 14.897s-6.676 14.897-14.897 14.897-14.897-6.676-14.897-14.897 6.676-14.897 14.897-14.897zM16 0c-8.828 0-16 7.172-16 16s7.172 16 16 16 16-7.172 16-16-7.172-16-16-16z"></path>
<path d="M16 24.717c-0.11 0-0.221-0.055-0.276-0.166l-2.097-3.476h-4.193c-0.662 0-1.214-0.552-1.214-1.214v-9.876c0-0.662 0.552-1.214 1.214-1.214 0 0 0 0 0 0h13.131c0.662 0 1.214 0.552 1.214 1.214v9.876c0 0.662-0.552 1.214-1.214 1.214 0 0 0 0 0 0h-4.193l-2.097 3.476c-0.055 0.11-0.166 0.166-0.276 0.166v0zM9.434 9.434c-0.331 0-0.607 0.276-0.607 0.607 0 0 0 0 0 0v9.821c0 0.331 0.276 0.607 0.552 0.607 0 0 0 0 0 0h4.414c0.11 0 0.221 0.055 0.276 0.166l1.931 3.2 1.931-3.2c0.055-0.11 0.166-0.166 0.276-0.166h4.359c0.331 0 0.607-0.221 0.607-0.552 0 0 0 0 0 0v-9.931c0-0.331-0.276-0.607-0.552-0.607 0 0 0 0 0 0h-13.186z"></path>
<path d="M12.028 15.228c0-0.497 0.386-0.883 0.828-0.883s0.828 0.386 0.828 0.883c0 0.497-0.386 0.883-0.828 0.883s-0.828-0.386-0.828-0.883z"></path>
<path d="M15.283 15.228c0-0.497 0.386-0.883 0.828-0.883s0.828 0.386 0.828 0.883c0 0.497-0.386 0.883-0.828 0.883-0.497 0-0.828-0.386-0.828-0.883z"></path>
<path d="M18.428 15.228c0-0.497 0.386-0.883 0.828-0.883s0.828 0.386 0.828 0.883c0 0.497-0.386 0.883-0.828 0.883-0.497 0-0.828-0.386-0.828-0.883z"></path>
</svg>
