<!-- Generated by IcoMoon.io -->
<svg version="1.1" xmlns="http://www.w3.org/2000/svg" width="32" height="32" viewBox="0 0 32 32">
<title>writing</title>
<path d="M3.767 22.818l-0.88 1.256c-0.058 0.083-0.102 0.174-0.13 0.271l-0.845 2.842c-0.115 0.386 0.030 0.803 0.361 1.035s0.772 0.226 1.096-0.015l2.37-1.758c-1.151-0.814-1.91-2.132-1.972-3.631z"></path>
<path d="M31.063 14.188h-2.813v14.062c0 0.697 0.733 1.15 1.357 0.839l2.014-1.494c0.239-0.177 0.379-0.456 0.379-0.753v-11.717c0-0.518-0.42-0.938-0.938-0.938z"></path>
<path d="M18.713 3.107c-0.425-0.297-1.009-0.194-1.306 0.23l-1.613 2.304 3.072 2.151 1.613-2.304c0.297-0.425 0.194-1.009-0.23-1.306z"></path>
<path d="M7.012 18.183c0.452-0.145 0.924-0.245 1.423-0.245h3.326l6.029-8.61-3.072-2.151z"></path>
<path d="M6.715 10.286c-0.518 0.225-0.951 0.595-1.254 1.072l-5.167 8.135c-0.647 1.296-0.188 2.847 1.005 3.614 0.022-0.034 0.029-0.074 0.052-0.108l10.079-14.395c-0.376-0.023-0.761 0.001-1.148 0.132z"></path>
<path d="M7.498 27.22v0.564c0 0.777 0.63 1.406 1.406 1.406s1.406-0.63 1.406-1.406v-0.469h-1.875c-0.321 0-0.634-0.033-0.938-0.095z"></path>
<path d="M12.186 27.314v0.469c0 0.777 0.63 1.406 1.406 1.406 0.688 0 1.234-0.504 1.356-1.157-0.305-0.126-0.616-0.241-0.912-0.387l-0.65-0.332h-1.2z"></path>
<path d="M26.375 14.188h-1.721l-5.958-2.885-4.587 6.552c1.141-0.177 2.219-0.697 3.040-1.518 0.366-0.366 0.96-0.366 1.326 0s0.366 0.96 0 1.326c-1.366 1.366-3.258 2.15-5.19 2.15-1.009 0-5.137 0-4.849 0-1.502 0-2.813 1.22-2.813 2.813 0 1.557 1.256 2.813 2.813 2.813h5.4c0.45 0.176 2.955 1.875 6.788 1.875 1.94 0 4.002-0.453 5.75-1.294z"></path>
</svg>
