<svg id="Layer_1" enable-background="new 0 0 256 256" height="512" viewBox="0 0 256 256" width="512" xmlns="http://www.w3.org/2000/svg"><g id="Layer_14"><g><circle cx="206.4" cy="63.9" fill="#fc657e" r="28.6"/><circle cx="218.9" cy="57.5" fill="#edf4fc" r="5.3"/><circle cx="193.9" cy="58" fill="#edf4fc" r="5.3"/><circle cx="128" cy="31.1" fill="#70d6f9" r="28.6"/><circle cx="140.5" cy="24.7" fill="#edf4fc" r="5.3"/><circle cx="115.5" cy="25.2" fill="#edf4fc" r="5.3"/><circle cx="49.6" cy="63.9" fill="#f5c84c" r="28.6"/><circle cx="62.1" cy="57.5" fill="#edf4fc" r="5.3"/><circle cx="37.1" cy="58" fill="#edf4fc" r="5.3"/><path d="m33.2 71.5c4.7 9.1 15.8 12.6 24.9 7.9 3.4-1.8 6.2-4.5 7.9-7.9z" fill="#fc657e"/><path d="m214.8 188.8c-4-.7-7.2-3.8-8-7.8 0-.1-.1-.2-.2-.1-.1 0-.1.1-.1.1-.8 4-4 7.1-8 7.8-.1 0-.2.1-.1.2 0 .1.1.1.1.1 4 .7 7.2 3.8 8 7.8 0 .1.1.2.2.1.1 0 .1-.1.1-.1.8-4 4-7.1 8-7.8.1 0 .2-.1.1-.2.1 0 0-.1-.1-.1z" fill="#f5c84c"/><path d="m65.2 123h-2.2v-2.2c0-1.7-1.3-3-3-3s-3 1.3-3 3v2.2h-2.2c-1.7 0-3 1.3-3 3s1.3 3 3 3h2.2v2.2c0 1.7 1.3 3 3 3s3-1.3 3-3v-2.2h2.2c1.7 0 3-1.3 3-3s-1.3-3-3-3z" fill="#b2e26d"/><circle cx="38.8" cy="107.5" fill="#f5c84c" r="3.2"/><circle cx="180.8" cy="173.5" fill="#70d6f9" r="3.2"/><circle cx="187.7" cy="104.4" fill="#fc657e" r="3.2"/><path d="m184.7 200.4c-.3-4.9-3.7-9-8.4-10.2l-22-5.5-13.2-6.5-4.5 12.8c-.3.7-1 1.2-1.8 1.2h-13.7c-.8 0-1.5-.5-1.8-1.2l-4.5-12.8-13.2 6.5-22 5.5c-4.7 1.2-8.2 5.3-8.4 10.2l-2.7 48.5c-.1 2.4 1.7 4.5 4.2 4.7h.2 110.1c2.4 0 4.4-2 4.4-4.4 0-.1 0-.2 0-.2z" fill="#edf4fc"/><g fill="#f9d0b4"><path d="m157.7 120.8c-.6 0-1.2 0-1.8.1v21.4c0 .6 0 1.3-.1 1.9 6.4 1 12.5-3.3 13.6-9.8 1-6.4-3.3-12.5-9.8-13.6-.6 0-1.3 0-1.9 0z"/><path d="m99.3 142.3v-21.4c-6.4-1-12.5 3.3-13.6 9.8-1 6.4 3.3 12.5 9.8 13.6 1.3.2 2.6.2 3.9 0-.1-.7-.1-1.3-.1-2z"/><path d="m131.8 108c-10.3 13-25.6 11.2-30.7 10.1-.8-.2-1.6.3-1.8 1.2v.3 22.8c0 15.6 12.7 28.3 28.3 28.3 15.6 0 28.3-12.7 28.3-28.3v-25.2c0-.1 0-.3 0-.4 0-.8-.7-1.5-1.5-1.5-11.8-.3-18-5-20.3-7.3-.6-.6-1.6-.6-2.2 0 0-.1 0 0-.1 0z"/><path d="m127.6 170.7c-4.4 0-8.7-1-12.6-3v10.5l4.5 12.8c.3.7 1 1.2 1.8 1.2h13.7c.8 0 1.5-.5 1.8-1.2l4.5-12.8v-10.9c-4.4 2.2-9 3.4-13.7 3.4z"/></g><path d="m97.5 120.8c.6 0 1.2 0 1.8.1v-1.4c0-.8.7-1.5 1.5-1.5h.3c5.1 1.1 20.4 2.9 30.7-10.1.5-.7 1.5-.8 2.1-.3 0 0 .1.1.1.1 2.4 2.3 8.6 7 20.3 7.3.8 0 1.4.7 1.5 1.5v.4 3.8c3.7-.6 7.4.6 10 3.2v-21.3c0-8.9-7.2-16.1-16.2-16.2-2.9 0-5.8.8-8.3 2.3-2.9-4.9-8.2-7.9-13.9-7.9h-8.3c-16.1 0-29.2 13.1-29.2 29.2v13.1c2.3-1.4 4.9-2.3 7.6-2.3z" fill="#5b5d60"/><path d="m189.9 248.7-2.7-48.5c-.3-6-4.5-11.1-10.3-12.5l-21.7-5.5-11.6-5.7v-7.9c7.8-4.8 13.2-12.7 14.5-21.8 7.9-.2 14.1-6.7 14-14.6-.1-3.4-1.4-6.7-3.6-9.2v-20.3c0-10.3-8.4-18.7-18.7-18.7-2.6 0-5.1.5-7.5 1.6-3.5-4.5-8.9-7.2-14.7-7.2h-8.3c-17.5 0-31.7 14.2-31.7 31.7v12c-5.7 5.4-5.9 14.5-.5 20.2 2.6 2.8 6.2 4.4 10 4.4 1.4 9.4 7.1 17.6 15.3 22.3v7.4l-11.6 5.7-21.7 5.5c-5.8 1.4-10 6.5-10.3 12.5l-2.7 48.5c-.2 3.8 2.7 7.1 6.5 7.3h.4 110c3.8 0 6.9-3.1 6.9-6.9 0 0 0-.2 0-.3zm-31.5-106.8v-18.6c5.1.4 9 4.8 8.6 10-.3 4.6-4 8.2-8.6 8.6zm-65.8-22.8v-8.8c0-14.7 12-26.7 26.7-26.7h8.3c4.8 0 9.3 2.6 11.7 6.7.7 1.2 2.2 1.6 3.4.9 6.4-3.9 14.8-1.8 18.7 4.6 1.3 2.1 2 4.6 1.9 7.1v16.6c-1.6-.7-3.3-1.1-5-1.2v-1.6c0-2.1-1.7-3.9-3.9-3.9-11.1-.3-16.7-4.7-18.7-6.6-1.6-1.6-4.1-1.5-5.7.1-.1.1-.2.2-.3.3-9.3 11.7-22.9 10.3-28.2 9.2-2-.4-4 .7-4.6 2.6-1.4-.1-2.9.2-4.3.7zm-4.4 13.5c0-4.9 3.8-8.9 8.6-9.3v18.6c-4.9-.4-8.6-4.4-8.6-9.3zm13.6 9.7v-21.6c5.9 1 20.8 2 31.3-10.4 3.2 2.8 9.5 6.8 20.3 7.3v24.7c0 9.4-5.2 18.1-13.4 22.6h-.1c-7.4 4-16.3 4.2-23.8.4h-.1c-8.7-4.3-14.2-13.2-14.2-23zm36.7 28.8v6.6l-4.2 12h-12.7l-4.2-12v-6.3c6.9 2.4 14.4 2.3 21.1-.3zm-67.4 77.9 2.7-48.5c.2-3.8 2.9-7 6.5-7.9l22-5.5c.2 0 .3-.1.5-.2l10.7-5.3 3.5 10.1c.6 1.8 2.3 2.9 4.1 2.9h13.7c1.9 0 3.5-1.2 4.1-2.9l3.5-10.1 10.7 5.3c.2.1.3.1.5.2l22 5.5c3.7.9 6.3 4.1 6.5 7.9l2.7 48.5c.1 1.1-.7 2-1.8 2h-.1-19.4v-24.5c0-1.4-1.1-2.5-2.5-2.5s-2.5 1.1-2.5 2.5v24.5h-62v-24.5c0-1.4-1.1-2.5-2.5-2.5s-2.5 1.1-2.5 2.5v24.5h-18.5c-1.1 0-1.9-.9-1.9-1.9z"/><path d="m128 210.2c1.4 0 2.5-1.1 2.5-2.5s-1.1-2.5-2.5-2.5-2.5 1.1-2.5 2.5 1.1 2.5 2.5 2.5z"/><path d="m128 225.4c1.4 0 2.5-1.1 2.5-2.5s-1.1-2.5-2.5-2.5-2.5 1.1-2.5 2.5c0 1.3 1.1 2.5 2.5 2.5z"/><path d="m128 240.5c1.4 0 2.5-1.1 2.5-2.5s-1.1-2.5-2.5-2.5-2.5 1.1-2.5 2.5 1.1 2.5 2.5 2.5z"/><path d="m128 0c-17.2 0-31.1 13.9-31.1 31.1s13.9 31.1 31.1 31.1 31.1-13.9 31.1-31.1-13.9-31.1-31.1-31.1zm0 57.2c-14.4 0-26.1-11.7-26.1-26.1s11.7-26.1 26.1-26.1 26.1 11.7 26.1 26.1-11.7 26.1-26.1 26.1z"/><path d="m237.5 63.9c0-17.2-13.9-31.1-31.1-31.1s-31.1 13.9-31.1 31.1 13.9 31.1 31.1 31.1c17.1 0 31-13.9 31.1-31.1zm-57.2 0c0-14.4 11.7-26.1 26.1-26.1s26.1 11.7 26.1 26.1-11.7 26.1-26.1 26.1-26.1-11.7-26.1-26.1z"/><path d="m18.5 63.9c0 17.2 14 31.1 31.1 31.1s31.1-13.9 31.1-31.1-13.9-31.1-31.1-31.1c-17.1.1-31 14-31.1 31.1zm31.1-26.1c14.4 0 26.1 11.7 26.1 26.1s-11.7 26.1-26.1 26.1-26.1-11.7-26.1-26.1c.1-14.4 11.7-26.1 26.1-26.1z"/><path d="m140.5 16.8c-4.3 0-7.8 3.5-7.8 7.8s3.5 7.8 7.8 7.8 7.8-3.5 7.8-7.8-3.5-7.8-7.8-7.8zm0 10.7c-1.6 0-2.8-1.3-2.8-2.8s1.3-2.8 2.8-2.8c1.6 0 2.8 1.3 2.8 2.8s-1.2 2.8-2.8 2.8z"/><path d="m115.5 33c4.3 0 7.8-3.5 7.8-7.8s-3.5-7.8-7.8-7.8-7.8 3.5-7.8 7.8 3.5 7.8 7.8 7.8zm0-10.6c1.6 0 2.8 1.3 2.8 2.8s-1.3 2.8-2.8 2.8c-1.6 0-2.8-1.3-2.8-2.8 0-1.6 1.2-2.8 2.8-2.8z"/><path d="m144.4 36.2h-32.8c-1.4 0-2.5 1.1-2.5 2.5s1.1 2.5 2.5 2.5h32.8c1.4 0 2.5-1.1 2.5-2.5s-1.1-2.5-2.5-2.5z"/><path d="m218.9 65.3c4.3 0 7.8-3.5 7.8-7.8s-3.5-7.8-7.8-7.8-7.8 3.5-7.8 7.8c0 4.3 3.5 7.8 7.8 7.8zm0-10.6c1.6 0 2.8 1.3 2.8 2.8s-1.3 2.8-2.8 2.8-2.8-1.3-2.8-2.8c0-1.6 1.2-2.8 2.8-2.8z"/><path d="m201.7 58c0-4.3-3.5-7.8-7.8-7.8s-7.8 3.5-7.8 7.8 3.5 7.8 7.8 7.8 7.8-3.5 7.8-7.8zm-10.7 0c0-1.6 1.3-2.8 2.8-2.8s2.8 1.3 2.8 2.8-1.3 2.8-2.8 2.8c-1.5 0-2.8-1.2-2.8-2.8z"/><path d="m218.6 79.7c.9 1 2.5 1.2 3.5.3s1.2-2.4.3-3.5c-7.5-8.8-20.7-9.9-29.5-2.5-.9.8-1.7 1.6-2.5 2.5-.9 1-.8 2.6.2 3.5s2.6.8 3.5-.2c0 0 0 0 .1-.1 5.7-6.7 15.8-7.6 22.5-1.9.7.5 1.3 1.2 1.9 1.9z"/><path d="m62.1 65.3c4.3 0 7.8-3.5 7.8-7.8s-3.5-7.8-7.8-7.8-7.8 3.5-7.8 7.8 3.5 7.8 7.8 7.8zm0-10.6c1.6 0 2.8 1.3 2.8 2.8s-1.3 2.8-2.8 2.8c-1.6 0-2.8-1.3-2.8-2.8 0-1.6 1.3-2.8 2.8-2.8z"/><path d="m37.1 65.8c4.3 0 7.8-3.5 7.8-7.8s-3.5-7.8-7.8-7.8-7.8 3.5-7.8 7.8c0 4.3 3.5 7.8 7.8 7.8zm0-10.6c1.6 0 2.8 1.3 2.8 2.8s-1.3 2.8-2.8 2.8-2.8-1.3-2.8-2.8c0-1.5 1.3-2.8 2.8-2.8z"/><path d="m31 72.7c5.3 10.3 18 14.3 28.3 9 3.9-2 7-5.1 9-9 .6-1.2.2-2.7-1.1-3.4-.4-.2-.7-.3-1.1-.3h-32.9c-1.4 0-2.5 1.1-2.5 2.5 0 .4.1.8.3 1.2zm30.2 1.3c-6.1 6.4-16.2 6.7-22.6.6-.2-.2-.4-.4-.6-.6z"/></g></g></svg>