<?xml version="1.0" encoding="UTF-8" standalone="no"?>
<!-- Created with Inkscape (http://www.inkscape.org/) -->

<svg
   xmlns:dc="http://purl.org/dc/elements/1.1/"
   xmlns:cc="http://creativecommons.org/ns#"
   xmlns:rdf="http://www.w3.org/1999/02/22-rdf-syntax-ns#"
   xmlns:svg="http://www.w3.org/2000/svg"
   xmlns="http://www.w3.org/2000/svg"
   xmlns:sodipodi="http://sodipodi.sourceforge.net/DTD/sodipodi-0.dtd"
   xmlns:inkscape="http://www.inkscape.org/namespaces/inkscape"
   width="160mm"
   height="160mm"
   viewBox="0 0 160 160"
   version="1.1"
   id="svg4552"
   inkscape:version="0.92.4 (5da689c313, 2019-01-14)"
   sodipodi:docname="man-default-picture.svg">
  <defs
     id="defs4546" />
  <sodipodi:namedview
     id="base"
     pagecolor="#ffffff"
     bordercolor="#666666"
     borderopacity="1.0"
     inkscape:pageopacity="0.0"
     inkscape:pageshadow="2"
     inkscape:zoom="0.98994949"
     inkscape:cx="21.537589"
     inkscape:cy="285.99157"
     inkscape:document-units="mm"
     inkscape:current-layer="layer1"
     showgrid="false"
     fit-margin-top="0"
     fit-margin-left="0"
     fit-margin-right="0"
     fit-margin-bottom="0"
     inkscape:window-width="1920"
     inkscape:window-height="1147"
     inkscape:window-x="-8"
     inkscape:window-y="-8"
     inkscape:window-maximized="1" />
  <metadata
     id="metadata4549">
    <rdf:RDF>
      <cc:Work
         rdf:about="">
        <dc:format>image/svg+xml</dc:format>
        <dc:type
           rdf:resource="http://purl.org/dc/dcmitype/StillImage" />
        <dc:title />
      </cc:Work>
    </rdf:RDF>
  </metadata>
  <g
     inkscape:label="Calque 1"
     inkscape:groupmode="layer"
     id="layer1"
     transform="translate(-44.198575,-44.548777)">
    <path
       style="fill:#464646;fill-opacity:1;stroke-width:0.01972993"
       inkscape:connector-curvature="0"
       d="m 128.49005,51.645525 c -1.9138,0.157839 -19.11831,0.217029 -24.76106,0.07892 l -1.77569,-0.03946 0.0197,0.789197 c 0.0197,1.065416 0.84839,2.821379 1.85461,3.906524 l 0.80892,0.887847 -1.63757,1.242986 c -4.064375,3.077868 -6.944935,7.240882 -8.602255,12.410123 -1.00622,3.176517 -1.1246,4.320853 -1.10487,10.25956 0,4.971941 0.0592,5.662488 0.5327,8.286569 0.57217,3.156783 0.57217,3.156783 -0.71027,3.156783 -1.06542,0 -1.91381,0.45379 -2.5057,1.32191 -0.47352,0.69055 -0.49325,0.86812 -0.47352,3.39355 0.0197,3.058136 0.23676,4.597066 1.16406,8.207646 1.67705,6.43195 3.53166,9.56901 5.68222,9.56901 0.49325,0 0.73001,0.0986 0.80893,0.33541 0.0592,0.1973 0.33541,1.3219 0.61163,2.52543 1.36136,5.6033 4.380045,11.24606 7.970885,14.87636 1.85461,1.89408 3.51192,3.05814 6.23465,4.41951 3.63031,1.81515 6.01764,2.58461 8.97713,2.9003 4.2222,0.43405 7.65521,0.15783 10.79226,-0.88785 7.06332,-2.36759 12.74554,-7.28034 15.80367,-13.75176 1.08515,-2.28867 2.19003,-5.28762 2.66354,-7.26061 0.78921,-3.2949 0.76947,-3.25544 1.42056,-3.27517 0.33541,-0.0197 0.7892,-0.0394 1.04569,-0.0592 0.55243,-0.0197 1.79542,-1.26272 2.46624,-2.46624 2.64381,-4.73518 4.71545,-15.349876 3.51192,-17.973956 -0.57216,-1.26272 -1.26271,-1.75597 -2.54516,-1.87435 l -1.1246,-0.0987 v -0.887843 c 0.0197,-0.493247 0.21703,-1.992721 0.43406,-3.354086 0.23675,-1.361365 0.53271,-3.354087 0.67081,-4.439233 0.29595,-2.525431 0.29595,-8.069539 0,-9.864963 -0.65108,-4.005174 -2.64381,-7.61575 -5.18897,-9.430903 -1.49947,-1.065416 -2.22948,-1.381095 -4.24193,-1.815154 -1.93353,-0.434058 -2.15056,-0.552438 -2.3084,-1.223255 -0.25649,-0.986496 -1.7165,-3.215978 -3.03841,-4.616802 -1.53893,-1.637584 -3.96572,-3.314628 -6.15574,-4.222204 -2.72273,-1.164066 -3.86706,-1.321906 -7.30007,-1.025956 z"
       id="path6" />
    <path
       style="fill:#464646;fill-opacity:1;stroke-width:0.01972993"
       inkscape:connector-curvature="0"
       d="m 100.27626,141.98884 c -4.380055,2.76219 -8.562795,4.93249 -13.751765,7.14224 -3.03841,1.28244 -4.32085,1.77569 -10.12145,3.80787 -7.02385,2.46624 -8.66144,3.41328 -10.53578,6.05709 -3.07787,4.32085 -4.28139,9.96361 -3.98545,18.66451 0.23676,6.64899 0.73001,10.89092 1.40083,11.91687 0.96677,1.47975 7.93143,4.91276 15.64583,7.69467 10.25956,3.72896 23.892945,6.57007 34.566825,7.20143 9.56902,0.57216 20.81508,0.41433 27.52325,-0.37487 14.79744,-1.75596 27.32595,-5.2087 39.61769,-10.95011 5.52438,-2.58462 5.97817,-3.05814 6.5898,-6.80682 0.43406,-2.703 0.49325,-15.21178 0.0789,-18.15153 -0.7892,-5.58357 -3.76842,-10.63443 -7.61575,-12.82445 -0.57217,-0.33542 -3.43301,-1.3811 -6.35304,-2.34787 -2.9003,-0.94703 -6.43195,-2.20975 -7.85251,-2.78192 -3.4922,-1.42055 -10.53578,-4.89301 -14.58041,-7.20142 -1.81516,-1.04569 -3.41328,-1.85461 -3.55139,-1.81515 -0.13811,0.0592 -0.51298,0.96676 -0.84839,2.03218 -0.71028,2.26894 -10.77254,33.7579 -11.91687,37.32902 -0.43406,1.32191 -0.86812,2.36759 -0.96677,2.3084 -0.1973,-0.11838 -1.5192,-3.70923 -3.66976,-9.92415 l -1.63759,-4.79438 1.49947,-2.40705 c 3.63031,-5.76113 4.38005,-9.98334 2.3084,-12.70606 -1.16406,-1.53894 -2.86083,-2.1703 -6.29384,-2.34787 -4.87329,-0.27622 -7.57629,0.74974 -8.93767,3.35409 -0.45378,0.88784 -0.51297,1.22326 -0.51297,2.78192 0.0197,2.62408 1.08514,5.32708 3.78815,9.60847 l 1.16407,1.87435 -2.1111,5.99789 c -2.24923,6.35304 -2.90032,8.06954 -3.13707,8.32603 -0.31568,0.31568 -1.28245,-2.54516 -8.18792,-24.327 -2.09137,-6.60952 -5.07058,-15.60637 -5.5441,-16.82962 -0.21703,-0.51298 -0.65109,-0.3946 -2.07164,0.49324 z"
       id="path8" />
  </g>
</svg>
