<?xml version="1.0" encoding="utf-8"?>
<!-- Generator: Adobe Illustrator 23.0.1, SVG Export Plug-In . SVG Version: 6.00 Build 0)  -->
<svg version="1.0" id="Capa_1" xmlns="http://www.w3.org/2000/svg" xmlns:xlink="http://www.w3.org/1999/xlink" x="0px" y="0px"
	 viewBox="0 0 24 24" style="enable-background:new 0 0 24 24;" xml:space="preserve">
<style type="text/css">
	.st0{fill:#C84030;}
	.st1{fill:#FFFFFF;}
</style>
<path class="st0" d="M18.6,21.3H5.4c-1.5,0-2.7-1.2-2.7-2.7V5.4c0-1.5,1.2-2.7,2.7-2.7h13.1c1.5,0,2.7,1.2,2.7,2.7v13.1
	C21.3,20.1,20.1,21.3,18.6,21.3z"/>
<path class="st1" d="M13.8,17.1c0.1,0.1,0,0.3-0.2,0.3H8.5h-5c-0.2,0-0.3-0.2-0.2-0.3l2.5-3.8l2.5-3.8c0.1-0.1,0.3-0.1,0.4,0
	l2.5,3.8L13.8,17.1z"/>
<path class="st1" d="M19.6,16.3c0.3,0.5-0.1,1.1-0.6,1.1h-4.2h-4.2c-0.6,0-0.9-0.6-0.6-1.1l2.1-3.7l2.3-4.1c0.2-0.3,0.7-0.3,0.8,0
	l2.3,4.1L19.6,16.3z"/>
<circle class="st1" cx="8.4" cy="6.3" r="2.1"/>
</svg>
