<?xml version="1.0" encoding="UTF-8" standalone="no"?>
<!-- Created with Inkscape (http://www.inkscape.org/) -->

<svg
   xmlns:dc="http://purl.org/dc/elements/1.1/"
   xmlns:cc="http://creativecommons.org/ns#"
   xmlns:rdf="http://www.w3.org/1999/02/22-rdf-syntax-ns#"
   xmlns:svg="http://www.w3.org/2000/svg"
   xmlns="http://www.w3.org/2000/svg"
   xmlns:sodipodi="http://sodipodi.sourceforge.net/DTD/sodipodi-0.dtd"
   xmlns:inkscape="http://www.inkscape.org/namespaces/inkscape"
   width="241mm"
   height="240mm"
   viewBox="0 0 241 240"
   version="1.1"
   id="svg5156"
   inkscape:version="0.92.4 (5da689c313, 2019-01-14)"
   sodipodi:docname="woman-default-picture.svg">
  <defs
     id="defs5150" />
  <sodipodi:namedview
     id="base"
     pagecolor="#ffffff"
     bordercolor="#666666"
     borderopacity="1.0"
     inkscape:pageopacity="0.0"
     inkscape:pageshadow="2"
     inkscape:zoom="0.7"
     inkscape:cx="-30.664527"
     inkscape:cy="287.44304"
     inkscape:document-units="mm"
     inkscape:current-layer="layer1"
     showgrid="false"
     fit-margin-top="0"
     fit-margin-left="0"
     fit-margin-right="0"
     fit-margin-bottom="0"
     inkscape:window-width="1920"
     inkscape:window-height="1147"
     inkscape:window-x="-8"
     inkscape:window-y="-8"
     inkscape:window-maximized="1" />
  <metadata
     id="metadata5153">
    <rdf:RDF>
      <cc:Work
         rdf:about="">
        <dc:format>image/svg+xml</dc:format>
        <dc:type
           rdf:resource="http://purl.org/dc/dcmitype/StillImage" />
        <dc:title />
      </cc:Work>
    </rdf:RDF>
  </metadata>
  <g
     inkscape:label="Calque 1"
     inkscape:groupmode="layer"
     id="layer1"
     transform="translate(-10.022669,2.5191527)">
    <path
       style="fill:#464646;fill-opacity:1;stroke-width:0.03527778"
       inkscape:connector-curvature="0"
       d="m 120.21029,10.0326 c -4.37445,0.49389 -11.85334,3.316111 -17.07444,6.491111 -8.290285,5.044722 -13.934728,12.206111 -17.462508,22.295554 -3.033887,8.5725 -4.233333,18.379723 -4.797777,38.981943 -0.49389,19.05 -1.834443,27.410842 -5.468056,35.101392 -2.751667,5.78556 -6.279444,9.77195 -9.771944,11.1125 -0.917223,0.35278 -1.72861,0.81139 -1.799166,1.05834 -0.388056,1.16416 6.208889,5.85611 11.25361,7.97277 7.62,3.21028 13.723056,4.445 28.292781,5.60917 l 2.71639,0.24694 v 4.445 c 0.0353,9.2075 0.21166,10.12473 8.78416,40.11084 7.76111,27.26972 10.33639,36.58305 10.16,36.75944 -0.14111,0.14111 -6.24416,-6.45583 -14.88722,-16.12194 -5.57388,-6.20889 -11.535834,-12.52362 -13.264445,-14.04056 l -1.305276,-1.12889 -7.231944,1.05833 c -7.549446,1.09362 -9.278056,1.23473 -9.56028,0.77612 -0.07055,-0.14112 0.282224,-1.30528 0.846667,-2.54 0.529167,-1.27 4.092223,-9.41917 7.902223,-18.13278 3.774721,-8.74889 6.843887,-15.91028 6.773334,-15.98083 -0.07056,-0.0706 -1.834447,0.74083 -3.951113,1.76388 -4.656664,2.32834 -7.514164,3.38667 -17.779998,6.63223 -18.520834,5.82083 -24.870833,8.92527 -29.633333,14.46389 -4.409722,5.11527 -4.797778,6.84388 -5.326944,22.18972 l -0.388056,11.46527 1.340556,1.19945 c 13.47611,11.85333 32.808331,18.87361 65.440279,23.84778 8.11389,1.19944 15.62805,1.905 24.20056,2.15194 36.21386,0.77947 73.51452,-10.62193 93.95983,-28.15923 0.74084,-0.77611 0.96514,-23.47735 -0.36789,-26.8741 -0.52917,-1.62278 -2.92806,-5.32695 -4.51556,-7.05556 -4.19805,-4.40972 -11.04194,-7.76111 -24.58861,-12.02972 -13.05278,-4.09222 -19.50861,-6.52639 -22.47194,-8.53722 -2.50472,-1.69333 -2.43417,-1.69333 -1.86972,-0.0706 0.28222,0.81139 3.24555,8.29028 6.59694,16.68639 6.56167,16.47472 7.19667,18.66195 5.50333,19.08528 -0.74083,0.17639 -3.13972,-0.10583 -14.07583,-1.79917 -1.19944,-0.17639 -1.37583,-0.0705 -4.48028,3.175 -1.76389,1.83445 -7.47889,8.07861 -12.7,13.86417 -9.94833,11.00666 -12.77055,13.93472 -12.77055,13.26444 0,-0.21166 1.97555,-6.73805 4.37444,-14.46389 2.39889,-7.72583 6.94972,-22.29555 10.05417,-32.42027 l 5.67972,-18.37972 v -7.58473 -7.58472 l 1.16417,-0.24694 c 0.59972,-0.14111 3.81,-0.45861 7.05555,-0.74084 9.66611,-0.84666 19.89667,-3.4925 26.14084,-6.80861 3.38666,-1.79916 7.97277,-4.86833 7.97277,-5.32694 0,-0.17639 -0.9525,-0.88195 -2.11666,-1.5875 -6.73806,-4.16278 -11.99445,-12.52361 -13.05278,-20.67278 -0.21167,-1.69333 -0.45861,-12.805836 -0.56445,-25.223615 -0.10583,-12.241387 -0.3175,-23.847777 -0.52916,-25.823331 -0.84667,-8.784166 -5.29167,-19.896667 -10.40695,-26.035 -4.26861,-5.08 -11.21833,-8.255 -18.13277,-8.290277 -3.28084,0 -4.79778,-0.423334 -6.56167,-1.763889 -5.08,-3.880556 -7.3025,-5.009445 -11.60639,-5.820838 -3.13972,-0.5996799 -12.24139,-0.9171799 -15.69861,-0.5644 z"
       id="path4"
       sodipodi:nodetypes="ccccccccccccscccccccccccccccccccccccccccsscccccccsccccccccc" />
  </g>
</svg>
