<?xml version="1.0" encoding="UTF-8"?>
<svg width="1270px" height="1270px" viewBox="0 0 1270 1270" version="1.1" xmlns="http://www.w3.org/2000/svg" xmlns:xlink="http://www.w3.org/1999/xlink">
    <!-- Generator: Sketch 63.1 (92452) - https://sketch.com -->
    <title>Icone eDossier PNC</title>
    <desc>Created with Sketch.</desc>
    <defs>
        <linearGradient x1="52.1724486%" y1="68.6381266%" x2="64.3755885%" y2="55.5365321%" id="linearGradient-1">
            <stop stop-color="#D2010D" offset="0%"></stop>
            <stop stop-color="#F90000" offset="100%"></stop>
        </linearGradient>
    </defs>
    <g id="Icone-eDossier-PNC" stroke="none" stroke-width="1" fill="none" fill-rule="evenodd">
        <g transform="translate(0.000000, 1.000000)">
            <rect id="Background-color" fill="#051039" x="1.02318154e-12" y="1.13686838e-13" width="1270" height="1270" rx="280"></rect>
            <path d="M1050.43905,1004 L975.315755,1108.40713 C965.42383,1122.14969 949.383627,1135.37642 930,1136.78944 L930,1140 L1013.54773,1140 C1035.73457,1140 1051.90982,1126.13085 1062.87066,1110.84708 L1140,1004 L1050.43905,1004 Z" id="Fill-1-Copy-3" fill="url(#linearGradient-1)"></path>
            <g id="Hand" transform="translate(172.997773, 132.000000)" fill="#FFFFFF">
                <path d="M773.140977,388.373965 C761.735236,394.614746 748.882678,401.527612 734.848553,408.872532 C666.486448,444.877041 591.30019,481.145583 523.516813,506.348739 C540.56514,512.34949 564.36528,519.982446 576.687338,520.702537 C577.531315,520.750543 578.423519,520.774546 579.412177,520.774546 C602.971181,520.774546 662.145997,506.51676 716.015818,478.553258 C770.826069,450.06169 820.837711,421.570122 830.169681,386.2617 C833.015088,375.508353 831.592384,365.067046 829.470386,357.050042 C811.819218,367.059295 792.96237,377.596615 773.140977,388.373965" id="Fill-1"></path>
                <path d="M919.291646,262.310662 C922.302533,260.245956 924.002227,256.845263 924.002227,253.201664 L924.002227,11.096642 C924.002227,2.71636379 915.04241,-2.62758171 907.66088,1.33179609 C764.352366,78.0659954 697.21444,103.109667 592.877489,59.1192795 C514.545862,26.0839801 468.144206,36.8933244 433.761818,52.487929 C451.899985,58.2933971 470.839436,64.4389344 489.171853,70.5844717 C506.04739,75.9769985 527.075037,83.191325 553.711675,93.2719495 C557.815223,94.8022611 561.627395,96.3811541 565.293878,97.9600471 C578.235837,103.182539 588.264033,107.797765 593.703055,111.344202 C607.349172,120.210293 617.280244,130.096592 623.617675,140.760192 C623.666238,140.833064 623.714801,140.881646 623.739082,140.954518 C624.467523,142.193342 625.171682,143.432165 625.802997,144.69528 C626.21578,145.472581 626.507156,146.225591 626.847095,146.954311 C629.420917,152.662617 631.120612,158.565247 631.679083,164.735075 C633.500184,184.701999 626.04581,204.863248 606.450763,223.518476 C582.363666,246.497442 536.156261,241.080624 521.441764,239.526022 C517.605311,239.08879 509.495341,237.437025 487.253627,232.700346 C458.48023,226.62768 410.330317,216.449893 398.213925,216.012661 C382.746706,215.429686 377.526217,215.23536 354.70175,240.424776 L352.17649,243.218202 C335.568048,261.630524 298.174773,303.046101 250.19483,322.600084 C237.884186,328.162645 228.802962,330.324514 222.392687,330.931781 C220.620148,331.29614 218.799047,331.611919 217.002227,331.854826 C232.37232,353.400642 249.442108,343.465762 268.745779,362.50964 C288.195139,381.650681 275.981621,405.601274 325.976916,426.831312 C369.901874,445.462249 348.922789,473.736579 373.422669,485.007446 C418.731664,505.873124 485.893871,483.890075 485.893871,483.890075 C492.984025,482.043985 501.215402,479.493466 510.272344,476.384261 C640.905995,427.195672 804.489434,333.360847 884.787851,285.289628 C896.831399,277.540907 908.413602,269.865058 919.291646,262.310662" id="Fill-4"></path>
                <path d="M324.251153,217.473901 L326.855621,214.639799 C354.239043,184.603158 369.038261,176.997105 399.269559,178.256706 C413.411576,178.765391 450.872097,186.468336 494.782935,195.697336 C507.756592,198.410323 522.482788,201.51088 525.257642,201.850003 C562.304369,205.846814 577.298314,199.427693 581.679661,195.261321 C589.273997,188.067061 595.992063,177.408898 595.067112,167.283643 C594.11782,156.819265 582.896702,147.493372 573.647191,141.510267 C555.975756,130.052742 458.223024,97.9571378 376.340507,72.7166701 C375.634624,72.6197777 375.123466,72.5471084 375.099125,72.5471084 C374.466264,72.450216 373.784721,72.3048775 373.492631,72.3048775 C369.257329,72.0626465 365.192412,72.0384234 361.054473,72.0384234 C359.569683,72.0384234 358.060552,72.0868696 356.575762,72.1110927 C353.727886,72.1595389 350.928692,72.2806544 348.105157,72.4259929 C344.575738,72.5955546 341.095,72.7893394 337.662945,73.0800166 C334.936773,73.3222476 332.307965,73.5644785 329.679156,73.8551557 C326.271441,74.2427253 322.936749,74.6545179 319.675079,75.0905337 C317.167975,75.4538801 314.685211,75.7687804 312.27547,76.15635 C308.940778,76.6892581 305.72779,77.2221663 302.539142,77.7792975 C300.275446,78.1910902 298.036091,78.5786597 295.821076,78.9662293 C291.926545,79.7171453 288.22674,80.4196151 284.575617,81.122085 C281.289607,81.7518855 278.271345,82.3090167 275.204402,82.866148 C272.989387,83.3021637 270.725691,83.7381795 268.60804,84.101526 C265.857527,84.610211 263.326082,84.9251113 260.794637,85.3126808 C259.358528,85.5064656 257.800716,85.7729197 256.413289,85.9424814 C252.664803,86.3784971 249.135384,86.6691743 245.922396,86.6691743 C201.20831,86.6691743 137.04591,62.0827303 104.623938,48.3240109 C93.0133672,43.382499 79.6259164,48.3240109 74.0031871,59.5150819 L2.51419991,201.82578 C-3.91177647,214.639799 2.46551827,230.166804 16.1207181,234.817639 L163.18795,284.814112 L183.731602,292.323273 C183.755943,292.347496 183.780283,292.347496 183.804624,292.347496 C186.06832,293.219527 188.332017,293.921997 190.571372,294.527575 C249.378792,299.929325 302.441779,241.503214 324.251153,217.473901" id="Fill-6"></path>
            </g>
            <path d="M563.165002,1137 L563.165002,1102.485 L582.860002,1102.485 C597.030002,1102.485 608.470002,1098.65 617.180002,1090.98 C625.890002,1083.31 630.245002,1073.235 630.245002,1060.755 C630.245002,1048.145 625.987502,1038.2 617.472502,1030.92 C608.957502,1023.64 597.420002,1020 582.860002,1020 L582.860002,1020 L538.010002,1020 L538.010002,1137 L563.165002,1137 Z M581.690002,1081.23 L563.165002,1081.23 L563.165002,1041.45 L581.690002,1041.45 C589.100002,1041.45 594.885002,1043.1075 599.045002,1046.4225 C603.205002,1049.7375 605.285002,1054.385 605.285002,1060.365 C605.285002,1066.865 603.172502,1071.9675 598.947502,1075.6725 C594.722502,1079.3775 588.970002,1081.23 581.690002,1081.23 L581.690002,1081.23 Z M664.960001,1137 L664.960001,1059.78 L729.700001,1137 L753.685001,1137 L753.685001,1020 L728.335001,1020 L728.335001,1096.83 L663.400001,1020 L640.195001,1020 L640.195001,1137 L664.960001,1137 Z M830.519999,1139.535 C840.919999,1139.535 850.507499,1137.3575 859.282499,1133.0025 C868.057499,1128.6475 875.434999,1122.44 881.414999,1114.38 L881.414999,1114.38 L863.084999,1098.78 C858.664999,1104.37 853.627499,1108.5625 847.972499,1111.3575 C842.317499,1114.1525 836.044999,1115.55 829.154999,1115.55 C818.104999,1115.55 808.874999,1112.0075 801.464999,1104.9225 C794.054999,1097.8375 790.349999,1088.705 790.349999,1077.525 C790.349999,1066.865 793.957499,1058.155 801.172499,1051.395 C808.387499,1044.635 817.649999,1041.255 828.959999,1041.255 C835.199999,1041.255 841.147499,1042.6525 846.802499,1045.4475 C852.457499,1048.2425 857.234999,1052.11 861.134999,1057.05 L861.134999,1057.05 L878.489999,1040.67 C872.899999,1033.26 865.814999,1027.54 857.234999,1023.51 C848.654999,1019.48 839.229999,1017.465 828.959999,1017.465 C811.019999,1017.465 795.809999,1023.2175 783.329999,1034.7225 C770.849999,1046.2275 764.609999,1060.495 764.609999,1077.525 C764.609999,1095.335 770.914999,1110.1225 783.524999,1121.8875 C796.134999,1133.6525 811.799999,1139.535 830.519999,1139.535 Z" id="PNC" fill="#FFFFFF" fill-rule="nonzero"></path>
            <path d="M207.75,952.115 C216.21,952.115 223.965,950.626667 231.015,947.65 C238.065,944.673333 244.096667,940.286667 249.11,934.49 L249.11,934.49 L235.01,918.275 C231.72,922.191667 227.764167,925.246667 223.1425,927.44 C218.520833,929.633333 213.625,930.73 208.455,930.73 C201.091667,930.73 194.981667,928.654167 190.125,924.5025 C185.268333,920.350833 182.526667,914.75 181.9,907.7 L181.9,907.7 L253.105,907.7 C254.358333,889.526667 250.480833,875.035 241.4725,864.225 C232.464167,853.415 220.048333,848.01 204.225,848.01 C189.811667,848.01 177.905,852.866667 168.505,862.58 C159.105,872.293333 154.405,884.591667 154.405,899.475 C154.405,915.455 159.34,928.223333 169.21,937.78 C179.08,947.336667 191.926667,952.115 207.75,952.115 Z M226.55,890.075 L181.665,890.075 C181.978333,883.495 184.210833,878.129167 188.3625,873.9775 C192.514167,869.825833 197.801667,867.75 204.225,867.75 C210.805,867.75 216.0925,869.786667 220.0875,873.86 C224.0825,877.933333 226.236667,883.338333 226.55,890.075 L226.55,890.075 Z M320.022913,950 C344.932913,950 364.35958,943.576667 378.302913,930.73 C392.246246,917.883333 399.217913,900.101667 399.217913,877.385 C399.217913,855.138333 392.44208,838.179167 378.890413,826.5075 C365.338746,814.835833 345.637913,809 319.787913,809 L319.787913,809 L269.262913,809 L269.262913,950 L320.022913,950 Z M320.022913,923.68 L299.342913,923.68 L299.342913,835.32 L319.787913,835.32 C335.611246,835.32 347.596246,838.923333 355.742913,846.13 C363.88958,853.336667 367.962913,863.99 367.962913,878.09 C367.962913,892.66 363.850413,903.900833 355.625413,911.8125 C347.400413,919.724167 335.532913,923.68 320.022913,923.68 L320.022913,923.68 Z M482.585826,953.055 C503.579159,953.055 521.282492,945.965833 535.695826,931.7875 C550.109159,917.609167 557.315826,900.023333 557.315826,879.03 C557.315826,858.663333 550.069992,841.390833 535.578326,827.2125 C521.086659,813.034167 503.422492,805.945 482.585826,805.945 C461.749159,805.945 444.124159,812.995 429.710826,827.095 C415.297492,841.195 408.090826,858.506667 408.090826,879.03 C408.090826,900.18 415.219159,917.805 429.475826,931.905 C443.732492,946.005 461.435826,953.055 482.585826,953.055 Z M482.585826,924.855 C469.582492,924.855 458.929159,920.585833 450.625826,912.0475 C442.322492,903.509167 438.170826,892.503333 438.170826,879.03 C438.170826,866.34 442.439992,855.686667 450.978326,847.07 C459.516659,838.453333 470.052492,834.145 482.585826,834.145 C495.432492,834.145 506.007492,838.375 514.310826,846.835 C522.614159,855.295 526.765826,866.026667 526.765826,879.03 C526.765826,892.503333 522.653326,903.509167 514.428326,912.0475 C506.203326,920.585833 495.589159,924.855 482.585826,924.855 Z M622.823739,953.055 C638.803739,953.055 651.963739,949.099167 662.303739,941.1875 C672.643739,933.275833 677.813739,923.366667 677.813739,911.46 C677.813739,902.686667 675.346239,895.205833 670.411239,889.0175 C665.476239,882.829167 657.525405,877.385 646.558739,872.685 L646.558739,872.685 L614.598739,859.055 C609.898739,857.175 606.530405,855.099167 604.493739,852.8275 C602.457072,850.555833 601.438739,847.931667 601.438739,844.955 C601.438739,840.725 603.592905,837.356667 607.901239,834.85 C612.209572,832.343333 617.967072,831.09 625.173739,831.09 C630.813739,831.09 636.532072,832.108333 642.328739,834.145 C648.125405,836.181667 653.608739,839.158333 658.778739,843.075 L658.778739,843.075 L673.348739,823.1 C666.298739,817.303333 658.661239,812.995 650.436239,810.175 C642.211239,807.355 633.398739,805.945 623.998739,805.945 C608.018739,805.945 594.897905,809.744167 584.636239,817.3425 C574.374572,824.940833 569.243739,834.615 569.243739,846.365 C569.243739,854.668333 571.789572,861.9925 576.881239,868.3375 C581.972905,874.6825 589.688739,880.126667 600.028739,884.67 L600.028739,884.67 L631.283739,898.065 C636.297072,900.101667 639.900405,902.255833 642.093739,904.5275 C644.287072,906.799167 645.383739,909.423333 645.383739,912.4 C645.383739,916.943333 643.229572,920.585833 638.921239,923.3275 C634.612905,926.069167 628.855405,927.44 621.648739,927.44 C614.598739,927.44 607.509572,925.951667 600.381239,922.975 C593.252905,919.998333 586.947072,916.003333 581.463739,910.99 L581.463739,910.99 L567.363739,933.315 C574.727072,939.581667 583.265405,944.438333 592.978739,947.885 C602.692072,951.331667 612.640405,953.055 622.823739,953.055 Z M744.496651,953.055 C760.476651,953.055 773.636651,949.099167 783.976651,941.1875 C794.316651,933.275833 799.486651,923.366667 799.486651,911.46 C799.486651,902.686667 797.019151,895.205833 792.084151,889.0175 C787.149151,882.829167 779.198318,877.385 768.231651,872.685 L768.231651,872.685 L736.271651,859.055 C731.571651,857.175 728.203318,855.099167 726.166651,852.8275 C724.129985,850.555833 723.111651,847.931667 723.111651,844.955 C723.111651,840.725 725.265818,837.356667 729.574151,834.85 C733.882485,832.343333 739.639985,831.09 746.846651,831.09 C752.486651,831.09 758.204985,832.108333 764.001651,834.145 C769.798318,836.181667 775.281651,839.158333 780.451651,843.075 L780.451651,843.075 L795.021651,823.1 C787.971651,817.303333 780.334151,812.995 772.109151,810.175 C763.884151,807.355 755.071651,805.945 745.671651,805.945 C729.691651,805.945 716.570818,809.744167 706.309151,817.3425 C696.047485,824.940833 690.916651,834.615 690.916651,846.365 C690.916651,854.668333 693.462485,861.9925 698.554151,868.3375 C703.645818,874.6825 711.361651,880.126667 721.701651,884.67 L721.701651,884.67 L752.956651,898.065 C757.969985,900.101667 761.573318,902.255833 763.766651,904.5275 C765.959985,906.799167 767.056651,909.423333 767.056651,912.4 C767.056651,916.943333 764.902485,920.585833 760.594151,923.3275 C756.285818,926.069167 750.528318,927.44 743.321651,927.44 C736.271651,927.44 729.182485,925.951667 722.054151,922.975 C714.925818,919.998333 708.619985,916.003333 703.136651,910.99 L703.136651,910.99 L689.036651,933.315 C696.399985,939.581667 704.938318,944.438333 714.651651,947.885 C724.364985,951.331667 734.313318,953.055 744.496651,953.055 Z M850.189564,950 L850.189564,809 L818.934564,809 L818.934564,950 L850.189564,950 Z M974.917477,950 L974.917477,923.68 L906.767477,923.68 L906.767477,891.25 L971.627477,891.25 L971.627477,866.575 L906.767477,866.575 L906.767477,835.32 L975.152477,835.32 L975.152477,809 L876.687477,809 L876.687477,950 L974.917477,950 Z M1027.26539,950 L1027.26539,898.77 L1045.83039,898.77 L1087.66039,950 L1125.02539,950 L1077.79039,894.54 C1088.44372,891.25 1096.74706,885.884167 1102.70039,878.4425 C1108.65372,871.000833 1111.63039,862.345 1111.63039,852.475 C1111.63039,839.001667 1106.65622,828.3875 1096.70789,820.6325 C1086.75956,812.8775 1073.09039,809 1055.70039,809 L1055.70039,809 L996.95039,809 L996.95039,950 L1027.26539,950 Z M1056.87539,874.565 L1027.26539,874.565 L1027.26539,833.675 L1056.87539,833.675 C1064.23872,833.675 1070.03539,835.476667 1074.26539,839.08 C1078.49539,842.683333 1080.61039,847.618333 1080.61039,853.885 C1080.61039,859.995 1078.41706,864.969167 1074.03039,868.8075 C1069.64372,872.645833 1063.92539,874.565 1056.87539,874.565 L1056.87539,874.565 Z" id="eDOSSIER" fill="#FFFFFF" fill-rule="nonzero"></path>
        </g>
    </g>
</svg>