<?xml version="1.0" encoding="UTF-8"?>
<svg width="2732px" height="2732px" viewBox="0 0 2732 2732" version="1.1" xmlns="http://www.w3.org/2000/svg" xmlns:xlink="http://www.w3.org/1999/xlink">
    <!-- Generator: Sketch 63.1 (92452) - https://sketch.com -->
    <title>SPLASHSCREEN EDOSSIER</title>
    <desc>Created with Sketch.</desc>
    <defs>
        <linearGradient x1="52.1724486%" y1="68.6370523%" x2="64.3755885%" y2="55.5362129%" id="linearGradient-1">
            <stop stop-color="#D2010D" offset="0%"></stop>
            <stop stop-color="#F90000" offset="100%"></stop>
        </linearGradient>
    </defs>
    <g id="SPLASHSCREEN-EDOSSIER" stroke="none" stroke-width="1" fill="none" fill-rule="evenodd">
        <rect id="Background-color" fill="#051039" x="0" y="0" width="2732" height="2732"></rect>
        <g id="Txt-+-Accent" transform="translate(785.000000, 1387.000000)">
            <path d="M617.580002,294 L617.580002,266.388 L633.336002,266.388 C644.672002,266.388 653.824002,263.32 660.792002,257.184 C667.760002,251.048 671.244002,242.988 671.244002,233.004 C671.244002,222.916 667.838002,214.96 661.026002,209.136 C654.214002,203.312 644.984002,200.4 633.336002,200.4 L633.336002,200.4 L597.456002,200.4 L597.456002,294 L617.580002,294 Z M632.400002,249.384 L617.580002,249.384 L617.580002,217.56 L632.400002,217.56 C638.328002,217.56 642.956002,218.886 646.284002,221.538 C649.612002,224.19 651.276002,227.908 651.276002,232.692 C651.276002,237.892 649.586002,241.974 646.206002,244.938 C642.826002,247.902 638.224002,249.384 632.400002,249.384 L632.400002,249.384 Z M699.016002,294 L699.016002,232.224 L750.808002,294 L769.996002,294 L769.996002,200.4 L749.716002,200.4 L749.716002,261.864 L697.768002,200.4 L679.204002,200.4 L679.204002,294 L699.016002,294 Z M831.464001,296.028 C839.784001,296.028 847.454001,294.286 854.474001,290.802 C861.494001,287.318 867.396001,282.352 872.180001,275.904 L872.180001,275.904 L857.516001,263.424 C853.980001,267.896 849.950001,271.25 845.426001,273.486 C840.902001,275.722 835.884001,276.84 830.372001,276.84 C821.532001,276.84 814.148001,274.006 808.220001,268.338 C802.292001,262.67 799.328001,255.364 799.328001,246.42 C799.328001,237.892 802.214001,230.924 807.986001,225.516 C813.758001,220.108 821.168001,217.404 830.216001,217.404 C835.208001,217.404 839.966001,218.522 844.490001,220.758 C849.014001,222.994 852.836001,226.088 855.956001,230.04 L855.956001,230.04 L869.840001,216.936 C865.368001,211.008 859.700001,206.432 852.836001,203.208 C845.972001,199.984 838.432001,198.372 830.216001,198.372 C815.864001,198.372 803.696001,202.974 793.712001,212.178 C783.728001,221.382 778.736001,232.796 778.736001,246.42 C778.736001,260.668 783.780001,272.498 793.868001,281.91 C803.956001,291.322 816.488001,296.028 831.464001,296.028 Z" id="PNC" fill="#FFFFFF" fill-rule="nonzero"></path>
            <path d="M56.8444452,172.043 C65.0164452,172.043 72.5074452,170.605333 79.3174452,167.73 C86.1274452,164.854667 91.9537785,160.617333 96.7964452,155.018 L96.7964452,155.018 L83.1764452,139.355 C79.9984452,143.138333 76.1772785,146.089333 71.7129452,148.208 C67.2486119,150.326667 62.5194452,151.386 57.5254452,151.386 C50.4127785,151.386 44.5107785,149.380833 39.8194452,145.3705 C35.1281119,141.360167 32.4797785,135.95 31.8744452,129.14 L31.8744452,129.14 L100.655445,129.14 C101.866112,111.585333 98.1206119,97.587 89.4189452,87.145 C80.7172785,76.703 68.7241119,71.482 53.4394452,71.482 C39.5167785,71.482 28.0154452,76.1733333 18.9354452,85.556 C9.85544521,94.9386667 5.31544521,106.818333 5.31544521,121.195 C5.31544521,136.631 10.0824452,148.964667 19.6164452,158.196 C29.1504452,167.427333 41.5597785,172.043 56.8444452,172.043 Z M75.0044452,112.115 L31.6474452,112.115 C31.9501119,105.759 34.1066119,100.575833 38.1169452,96.5655 C42.1272785,92.5551667 47.2347785,90.55 53.4394452,90.55 C59.7954452,90.55 64.9029452,92.5173333 68.7619452,96.452 C72.6209452,100.386667 74.7017785,105.607667 75.0044452,112.115 L75.0044452,112.115 Z M161.497265,170 C185.559265,170 204.324598,163.795333 217.793265,151.386 C231.261931,138.976667 237.996265,121.800333 237.996265,99.857 C237.996265,78.3676667 231.451098,61.9858333 218.360765,50.7115 C205.270431,39.4371667 186.240265,33.8 161.270265,33.8 L161.270265,33.8 L112.465265,33.8 L112.465265,170 L161.497265,170 Z M161.497265,144.576 L141.521265,144.576 L141.521265,59.224 L161.270265,59.224 C176.554931,59.224 188.131931,62.7046667 196.001265,69.666 C203.870598,76.6273333 207.805265,86.918 207.805265,100.538 C207.805265,114.612 203.832765,125.470167 195.887765,133.1125 C187.942765,140.754833 176.479265,144.576 161.497265,144.576 L161.497265,144.576 Z M314.728084,172.951 C335.006751,172.951 352.107417,166.103167 366.030084,152.4075 C379.952751,138.711833 386.914084,121.724667 386.914084,101.446 C386.914084,81.7726667 379.914917,65.0881667 365.916584,51.3925 C351.918251,37.6968333 334.855417,30.849 314.728084,30.849 C294.600751,30.849 277.575751,37.659 263.653084,51.279 C249.730417,64.899 242.769084,81.6213333 242.769084,101.446 C242.769084,121.876 249.654751,138.901 263.426084,152.521 C277.197417,166.141 294.298084,172.951 314.728084,172.951 Z M314.728084,145.711 C302.167417,145.711 291.876751,141.587167 283.856084,133.3395 C275.835417,125.091833 271.825084,114.460667 271.825084,101.446 C271.825084,89.188 275.948917,78.8973333 284.196584,70.574 C292.444251,62.2506667 302.621417,58.089 314.728084,58.089 C327.137417,58.089 337.352417,62.175 345.373084,70.347 C353.393751,78.519 357.404084,88.8853333 357.404084,101.446 C357.404084,114.460667 353.431584,125.091833 345.486584,133.3395 C337.541584,141.587167 327.288751,145.711 314.728084,145.711 Z M446.393903,172.951 C461.829903,172.951 474.541903,169.129833 484.529903,161.4875 C494.517903,153.845167 499.511903,144.273333 499.511903,132.772 C499.511903,124.297333 497.128403,117.071167 492.361403,111.0935 C487.594403,105.115833 479.914237,99.857 469.320903,95.317 L469.320903,95.317 L438.448903,82.151 C433.908903,80.335 430.655237,78.3298333 428.687903,76.1355 C426.72057,73.9411667 425.736903,71.4063333 425.736903,68.531 C425.736903,64.445 427.817737,61.1913333 431.979403,58.77 C436.14107,56.3486667 441.70257,55.138 448.663903,55.138 C454.111903,55.138 459.63557,56.1216667 465.234903,58.089 C470.834237,60.0563333 476.130903,62.9316667 481.124903,66.715 L481.124903,66.715 L495.198903,47.42 C488.388903,41.8206667 481.011403,37.659 473.066403,34.935 C465.121403,32.211 456.608903,30.849 447.528903,30.849 C432.092903,30.849 419.418737,34.5188333 409.506403,41.8585 C399.59407,49.1981667 394.637903,58.543 394.637903,69.893 C394.637903,77.9136667 397.09707,84.9885 402.015403,91.1175 C406.933737,97.2465 414.386903,102.505333 424.374903,106.894 L424.374903,106.894 L454.565903,119.833 C459.40857,121.800333 462.889237,123.881167 465.007903,126.0755 C467.12657,128.269833 468.185903,130.804667 468.185903,133.68 C468.185903,138.068667 466.10507,141.587167 461.943403,144.2355 C457.781737,146.883833 452.220237,148.208 445.258903,148.208 C438.448903,148.208 431.60107,146.770333 424.715403,143.895 C417.829737,141.019667 411.73857,137.160667 406.441903,132.318 L406.441903,132.318 L392.821903,153.883 C399.93457,159.936333 408.182237,164.627667 417.564903,167.957 C426.94757,171.286333 436.557237,172.951 446.393903,172.951 Z M560.126723,172.951 C575.562723,172.951 588.274723,169.129833 598.262723,161.4875 C608.250723,153.845167 613.244723,144.273333 613.244723,132.772 C613.244723,124.297333 610.861223,117.071167 606.094223,111.0935 C601.327223,105.115833 593.647056,99.857 583.053723,95.317 L583.053723,95.317 L552.181723,82.151 C547.641723,80.335 544.388056,78.3298333 542.420723,76.1355 C540.453389,73.9411667 539.469723,71.4063333 539.469723,68.531 C539.469723,64.445 541.550556,61.1913333 545.712223,58.77 C549.873889,56.3486667 555.435389,55.138 562.396723,55.138 C567.844723,55.138 573.368389,56.1216667 578.967723,58.089 C584.567056,60.0563333 589.863723,62.9316667 594.857723,66.715 L594.857723,66.715 L608.931723,47.42 C602.121723,41.8206667 594.744223,37.659 586.799223,34.935 C578.854223,32.211 570.341723,30.849 561.261723,30.849 C545.825723,30.849 533.151556,34.5188333 523.239223,41.8585 C513.326889,49.1981667 508.370723,58.543 508.370723,69.893 C508.370723,77.9136667 510.829889,84.9885 515.748223,91.1175 C520.666556,97.2465 528.119723,102.505333 538.107723,106.894 L538.107723,106.894 L568.298723,119.833 C573.141389,121.800333 576.622056,123.881167 578.740723,126.0755 C580.859389,128.269833 581.918723,130.804667 581.918723,133.68 C581.918723,138.068667 579.837889,141.587167 575.676223,144.2355 C571.514556,146.883833 565.953056,148.208 558.991723,148.208 C552.181723,148.208 545.333889,146.770333 538.448223,143.895 C531.562556,141.019667 525.471389,137.160667 520.174723,132.318 L520.174723,132.318 L506.554723,153.883 C513.667389,159.936333 521.915056,164.627667 531.297723,167.957 C540.680389,171.286333 550.290056,172.951 560.126723,172.951 Z M658.423542,170 L658.423542,33.8 L628.232542,33.8 L628.232542,170 L658.423542,170 Z M775.107361,170 L775.107361,144.576 L709.277361,144.576 L709.277361,113.25 L771.929361,113.25 L771.929361,89.415 L709.277361,89.415 L709.277361,59.224 L775.334361,59.224 L775.334361,33.8 L680.221361,33.8 L680.221361,170 L775.107361,170 Z M821.875181,170 L821.875181,120.514 L839.808181,120.514 L880.214181,170 L916.307181,170 L870.680181,116.428 C880.970847,113.25 888.991514,108.066833 894.742181,100.8785 C900.492847,93.6901667 903.368181,85.329 903.368181,75.795 C903.368181,62.7803333 898.563347,52.5275 888.953681,45.0365 C879.344014,37.5455 866.140181,33.8 849.342181,33.8 L849.342181,33.8 L792.592181,33.8 L792.592181,170 L821.875181,170 Z M850.477181,97.133 L821.875181,97.133 L821.875181,57.635 L850.477181,57.635 C857.589847,57.635 863.189181,59.3753333 867.275181,62.856 C871.361181,66.3366667 873.404181,71.1036667 873.404181,77.157 C873.404181,83.059 871.285514,87.8638333 867.048181,91.5715 C862.810847,95.2791667 857.287181,97.133 850.477181,97.133 L850.477181,97.133 Z" id="eDOSSIER" fill="#FFFFFF" fill-rule="nonzero"></path>
            <path d="M1070.90761,33.0237088 L994.546844,139.147631 C984.491973,153.116173 968.187547,166.560391 948.484621,167.99665 L948.484621,171.259997 L1033.4086,171.259997 C1055.96091,171.259997 1072.40261,157.162787 1083.544,141.627711 L1161.94387,33.0237088 L1070.90761,33.0237088 Z" id="Fill-1" fill="url(#linearGradient-1)"></path>
        </g>
        <g id="Hands" transform="translate(1037.000000, 892.000000)" fill="#FFFFFF">
            <path d="M550.936885,276.9301 C542.772367,281.356604 533.572181,286.259808 523.526199,291.469463 C474.590874,317.006987 420.770646,342.731787 372.249589,360.608053 C384.453213,364.864307 401.489956,370.278263 410.310397,370.789013 C410.914537,370.823063 411.553199,370.840088 412.260906,370.840088 C429.125037,370.840088 471.483869,360.727229 510.04525,340.893085 C549.279816,320.684391 585.079415,300.475697 591.759476,275.431898 C593.79629,267.804691 592.777883,260.398809 591.258903,254.712454 C578.62375,261.811885 565.12554,269.285867 550.936885,276.9301" id="Fill-1"></path>
            <path d="M654.924179,187.171965 C657.070837,185.698692 658.28266,183.272126 658.28266,180.672233 L658.28266,7.91801701 C658.28266,1.93826337 651.894621,-1.87491286 646.631846,0.950304078 C544.45784,55.7040482 496.590824,73.5739786 422.202193,42.1846052 C366.354456,18.6122431 333.271683,26.3252586 308.758231,37.4528002 C321.690116,41.5952962 335.193288,45.9804488 348.263667,50.3656015 C360.29534,54.213443 375.287324,59.3612309 394.278324,66.5542678 C397.204012,67.6462229 399.921958,68.7728431 402.536034,69.8994633 C411.763202,73.6259765 418.912958,76.9191741 422.790793,79.4497365 C432.520002,85.7761426 439.600511,92.8305186 444.118881,100.439538 C444.153504,100.491536 444.188128,100.526202 444.205439,100.578199 C444.724792,101.462163 445.226833,102.346127 445.676939,103.247423 C445.971239,103.802067 446.17898,104.339378 446.421345,104.859356 C448.256391,108.932522 449.468214,113.144348 449.866385,117.546834 C451.164767,131.794247 445.850057,146.180321 431.879466,159.491772 C414.706201,175.88843 381.761922,172.023256 371.270996,170.913968 C368.535738,170.601981 362.75361,169.423363 346.896038,166.043502 C326.381603,161.710347 292.052383,154.44798 283.413815,154.135993 C272.386224,153.72001 268.664196,153.581349 252.391141,171.555275 L250.590718,173.548526 C238.749475,186.686652 212.089365,216.238767 177.881328,230.191526 C169.104265,234.160696 162.629667,235.703299 158.059363,236.136614 C156.795604,236.396604 155.497222,236.621928 154.216152,236.795254 C165.174496,252.169287 177.344663,245.080246 191.107512,258.669019 C204.974232,272.327123 196.266416,289.417086 231.91133,304.565795 C263.228303,317.859914 248.270943,338.035083 265.738508,346.077418 C298.042252,360.966138 345.926579,345.280118 345.926579,345.280118 C350.981613,343.962839 356.8503,342.142913 363.307586,339.924338 C456.444854,304.825784 573.074179,237.869876 630.324168,203.568623 C638.910801,198.039517 647.168511,192.56241 654.924179,187.171965" id="Fill-4"></path>
            <path d="M230.605243,153.978255 L232.457535,151.972222 C251.932575,130.711705 262.457752,125.327993 283.958196,126.219563 C294.015972,126.57962 320.657826,132.031914 351.887134,138.56438 C361.113975,140.484685 371.587219,142.679319 373.560689,142.919357 C399.908254,145.748377 410.57192,141.204799 413.687927,138.255759 C419.089004,133.163523 423.866881,125.619468 423.209057,118.452616 C422.533922,111.045726 414.553484,104.444679 407.975248,100.209721 C395.407356,92.0998623 325.885792,69.3819709 267.651096,51.5162782 C267.149073,51.4476958 266.785539,51.3962591 266.768228,51.3962591 C266.318138,51.3276768 265.833426,51.2248033 265.625692,51.2248033 C262.613552,51.0533475 259.722591,51.036202 256.779696,51.036202 C255.723716,51.036202 254.650425,51.0704931 253.594445,51.0876387 C251.569041,51.1219298 249.578259,51.2076577 247.570166,51.3105312 C245.06005,51.4305503 242.584556,51.5677149 240.143684,51.7734618 C238.204836,51.9449176 236.335232,52.1163734 234.465628,52.3221203 C232.042068,52.5964496 229.670441,52.8879244 227.350747,53.1965448 C225.567699,53.4537285 223.801962,53.676621 222.088159,53.9509503 C219.716532,54.328153 217.43146,54.7053557 215.1637,55.099704 C213.553764,55.3911789 211.961138,55.6655081 210.385824,55.9398374 C207.61604,56.4713503 204.984746,56.9685721 202.388074,57.4657939 C200.051069,57.9115789 197.904487,58.3059272 195.723283,58.7002755 C194.147969,59.0088959 192.538032,59.3175163 191.031962,59.5747 C189.075803,59.9347572 187.275443,60.1576497 185.475084,60.4319789 C184.453727,60.5691436 183.345813,60.7577449 182.359078,60.877764 C179.693161,61.1863844 177.183045,61.3921313 174.897974,61.3921313 C143.097398,61.3921313 97.4652162,43.9893692 74.4067692,34.2506807 C66.1493524,30.7529827 56.6282219,34.2506807 52.6293471,42.1719379 L1.7865103,142.902211 C-2.78363233,151.972222 1.75188801,162.962538 11.4634411,166.254489 L116.057387,201.642963 L130.667995,206.958092 C130.685306,206.975238 130.702617,206.975238 130.719928,206.975238 C132.329865,207.592478 133.939802,208.0897 135.532427,208.51834 C177.356157,212.341804 215.094456,170.986669 230.605243,153.978255" id="Fill-6"></path>
        </g>
    </g>
</svg>