<svg xmlns="http://www.w3.org/2000/svg" viewBox="0 0 19.98 19.98"><defs><style>.cls-1{fill:#000;}</style></defs><title>icone-calendrier</title><g id="Calque_2" data-name="Calque 2"><g id="Parcours_de_developpement_deplie" data-name="Parcours de developpement_deplie"><path class="cls-1" d="M14.27,5.57h-.4v-.4a.81.81,0,1,0-1.62,0v.4H7.82v-.4a.81.81,0,1,0-1.62,0v.4H5.79A.82.82,0,0,0,5,6.38v9.08a.22.22,0,0,0,.21.21h9.69a.21.21,0,0,0,.2-.21V6.38A.81.81,0,0,0,14.27,5.57ZM9.83,8.4v2h-2v-2Zm2.42,0v2h-2v-2Zm2.42,0v2h-2v-2Zm-7.26,2h-2v-2h2Zm-2,.41h2v2h-2Zm2.43,0h2v2h-2Zm2.42,0h2v2h-2Zm2.42,0h2v2h-2Zm0-5.65a.4.4,0,0,1,.8,0V6.38a.4.4,0,0,1-.8,0V5.17Zm-6,0a.39.39,0,0,1,.4-.4.4.4,0,0,1,.4.4V6.38a.4.4,0,0,1-.4.4.39.39,0,0,1-.4-.4V5.17ZM5.39,6.38A.4.4,0,0,1,5.8,6h.4v.4a.81.81,0,1,0,1.62,0V6h4.43v.4a.81.81,0,1,0,1.62,0V6h.4a.4.4,0,0,1,.4.4V8H5.39Zm0,6.86h2v2h-2Zm2.43,0h2v2h-2Zm2.42,0h2v2h-2Zm4.43,2h-2v-2h2Z"/><path class="cls-1" d="M10,20A10,10,0,1,1,20,10,10,10,0,0,1,10,20ZM10,.75A9.24,9.24,0,1,0,19.23,10,9.26,9.26,0,0,0,10,.75Z"/></g></g></svg>