<?xml version="1.0" encoding="UTF-8" standalone="no"?>
<!-- Generated by IcoMoon.io -->

<svg
   xmlns:dc="http://purl.org/dc/elements/1.1/"
   xmlns:cc="http://creativecommons.org/ns#"
   xmlns:rdf="http://www.w3.org/1999/02/22-rdf-syntax-ns#"
   xmlns:svg="http://www.w3.org/2000/svg"
   xmlns="http://www.w3.org/2000/svg"
   xmlns:sodipodi="http://sodipodi.sourceforge.net/DTD/sodipodi-0.dtd"
   xmlns:inkscape="http://www.inkscape.org/namespaces/inkscape"
   version="1.1"
   width="1024"
   height="1024"
   viewBox="0 0 1024 1024"
   id="svg19"
   sodipodi:docname="developmentProgram.svg"
   inkscape:version="0.92.3 (2405546, 2018-03-11)">
  <metadata
     id="metadata25">
    <rdf:RDF>
      <cc:Work
         rdf:about="">
        <dc:format>image/svg+xml</dc:format>
        <dc:type
           rdf:resource="http://purl.org/dc/dcmitype/StillImage" />
      </cc:Work>
    </rdf:RDF>
  </metadata>
  <defs
     id="defs23" />
  <sodipodi:namedview
     pagecolor="#ffffff"
     bordercolor="#666666"
     borderopacity="1"
     objecttolerance="10"
     gridtolerance="10"
     guidetolerance="10"
     inkscape:pageopacity="0"
     inkscape:pageshadow="2"
     inkscape:window-width="1920"
     inkscape:window-height="1116"
     id="namedview21"
     showgrid="false"
     inkscape:zoom="0.65186406"
     inkscape:cx="536.85978"
     inkscape:cy="338.60582"
     inkscape:window-x="-8"
     inkscape:window-y="-8"
     inkscape:window-maximized="1"
     inkscape:current-layer="svg19" />
  <title
     id="title2" />
  <g
     id="icomoon-ignore" />
  <path
     fill="#fff"
     d="M345.429 367.275c10.923 0 20.48-9.557 20.48-20.48s-9.557-20.48-20.48-20.48-20.48 9.557-20.48 20.48c-1.365 12.288 8.192 20.48 20.48 20.48zM345.429 342.699c2.731 0 4.096 2.731 4.096 4.096 0 5.461-9.557 5.461-9.557 0 0-2.731 2.731-4.096 5.461-4.096z"
     id="path7"
     style="fill:#000000;fill-opacity:1" />
  <path
     fill="#fff"
     d="M731.819 283.989h-439.637c-4.096 0-8.192 4.096-8.192 8.192v439.637c0 4.096 4.096 8.192 8.192 8.192h439.637c4.096 0 8.192-4.096 8.192-8.192v-439.637c0-4.096-4.096-8.192-8.192-8.192zM723.627 300.373v94.208h-423.253v-94.208h423.253zM300.373 723.627v-314.027h423.253v314.027h-423.253z"
     id="path9"
     style="fill:#000000;fill-opacity:1" />
  <path
     fill="#fff"
     d="M510.635 368.64c12.288 0 21.845-9.557 21.845-21.845s-9.557-21.845-21.845-21.845c-12.288 0-21.845 9.557-21.845 21.845 1.365 12.288 10.923 21.845 21.845 21.845zM510.635 341.333c2.731 0 5.461 2.731 5.461 5.461 0 5.461-10.923 5.461-10.923 0 1.365-2.731 2.731-5.461 5.461-5.461z"
     id="path11"
     style="fill:#000000;fill-opacity:1" />
  <path
     fill="#fff"
     d="M350.891 450.56c-2.731-2.731-8.192-2.731-10.923 0s-2.731 8.192 0 10.923l50.517 49.152-49.152 50.517c-2.731 2.731-2.731 8.192 0 10.923 1.365 1.365 4.096 2.731 5.461 2.731s4.096-1.365 5.461-2.731l61.44-61.44-62.805-60.075z"
     id="path13"
     style="fill:#000000;fill-opacity:1" />
  <path
     fill="#fff"
     d="M457.387 558.421h-54.613c-4.096 0-8.192 4.096-8.192 8.192s4.096 8.192 8.192 8.192h54.613c4.096 0 8.192-4.096 8.192-8.192s-4.096-8.192-8.192-8.192z"
     id="path15"
     style="fill:#000000;fill-opacity:1" />
  <path
     fill="#fff"
     d="M427.349 368.64c12.288 0 21.845-9.557 21.845-21.845s-9.557-21.845-21.845-21.845c-12.288 0-21.845 9.557-21.845 21.845 1.365 12.288 10.923 21.845 21.845 21.845zM427.349 341.333c2.731 0 5.461 2.731 5.461 5.461 0 5.461-10.923 5.461-10.923 0 1.365-2.731 2.731-5.461 5.461-5.461z"
     id="path17"
     style="fill:#000000;fill-opacity:1" />
</svg>
