<svg height="512" viewBox="0 0 60 60" width="512" xmlns="http://www.w3.org/2000/svg"><g id="Page-1" fill="none" fill-rule="evenodd"><g id="001---Forward-Email" fill="rgb(0,0,0)" fill-rule="nonzero"><path id="Shape" d="m59.0791 23.8926c-.004-.0055-.01-.0079-.0144-.0133-.2117526-.2972304-.4556625-.5701827-.7273-.8139l-11.0074-9.8654c-2.1492545-7.79737066-9.2412718-13.19928008-17.3294288-13.19963011-8.088157-.00035004-15.1806418 5.40094551-17.3305712 13.19813011l-11.0064 9.866c-1.05903215.9487974-1.66401662 2.303612-1.6636 3.7255v28.21c.00325114 2.760076 2.23992404 4.9967489 5 5h50c2.760076-.0032511 4.9967489-2.239924 5-5v-28.21c-.0012756-1.0262352-.3179778-2.0272753-.9072-2.8675-.0064-.0094-.007-.0206-.0137-.0299zm-1.0791 2.8974v28.21c.0006157.5961905-.1774428 1.1788863-.5112 1.6729l-20.9594-15.1771 21.3511-15.4976c.0752032.2573709.1153979.5236984.1195.7918zm-28-24.79c8.836556 0 16 7.163444 16 16s-7.163444 16-16 16-16-7.163444-16-16c.0100847-8.83237539 7.1676246-15.98991526 16-16zm-17.92 14.4114c-.0457.5245-.08 1.0523-.08 1.5886 0 9.9411255 8.0588745 18 18 18s18-8.0588745 18-18c0-.5356-.0343-1.0629-.08-1.5868l8.8423 7.926-25.0582 18.1881c-1.0302102.7465894-2.4190132.7632143-3.4668.0415l-2.6631-1.8383-.0107-.0074-22.8953-15.8042c.09947228-.1303562.20965501-.2521794.3294-.3642zm-9.5689 40.2613c-.33369479-.4939633-.51171753-1.0765863-.5111-1.6727l-.0000016-28.1129 21.3160016 14.7141zm2.4889 1.3273c-.25703048-.0035681-.51250581-.0405448-.76-.11l20.8221-15.084 2.04 1.4081c1.7459574 1.2030765 4.0605308 1.175473 5.7773-.0689l1.9474-1.4135 20.9332 15.1583c-.2474883.069483-.5029673.1064602-.76.11z"/><path id="Shape" d="m20 23h11v2.499c-.0012972.60703.3645184 1.1546074.9258 1.3858.1843709.0763254.381955.1156384.5815.1157.3851571.0021459.75549-.1483244 1.03-.4185l8.0229-7.5215c.2831891-.2862545.440116-.6738881.4358144-1.0765283-.0043016-.4026403-.1694743-.7868327-.4587144-1.0669717l-7.9768-7.477c-.4290557-.42892619-1.0742405-.55716539-1.6347128-.32492126s-.9258599.77923641-.9257872 1.38592126v2.499h-11c-1.1041125.0011025-1.9988975.8958875-2 2v6c.0011025 1.1041125.8958875 1.9988975 2 2zm0-8h11c1.1041125-.0011025 1.9988975-.8958875 2-2v-1.3447l6.769 6.3447-6.769 6.3452v-1.3452c-.0011025-1.1041125-.8958875-1.9988975-2-2h-11z"/></g></g></svg>