<svg id="Calque_1" data-name="Calque 1" xmlns="http://www.w3.org/2000/svg" viewBox="0 0 50 50"><title>icone</title><path d="M21.46,37.47H17.7a.73.73,0,1,1,0-1.46h1.11V13.68a.73.73,0,0,1,1.46,0V36h1.19a.73.73,0,1,1,0,1.46Z"/><polyline points="19.61 15.76 19.62 23.83 33.25 23.83 31.09 20.12 33.25 15.79 19.62 15.79"/><path d="M33.25,24.56H19.62a.73.73,0,0,1-.73-.73V15.76a.73.73,0,0,1,.73-.73h0a.85.85,0,0,1,.23,0H33.25a.72.72,0,0,1,.62.35.7.7,0,0,1,0,.71l-2,4,2,3.37a.71.71,0,0,1,0,.73A.72.72,0,0,1,33.25,24.56ZM20.35,23.1H32l-1.52-2.61a.73.73,0,0,1,0-.7l1.64-3.26H20.34Z"/></svg>