<?xml version="1.0" encoding="UTF-8" standalone="no"?>
<!-- Generated by IcoMoon.io -->

<svg
   xmlns:dc="http://purl.org/dc/elements/1.1/"
   xmlns:cc="http://creativecommons.org/ns#"
   xmlns:rdf="http://www.w3.org/1999/02/22-rdf-syntax-ns#"
   xmlns:svg="http://www.w3.org/2000/svg"
   xmlns="http://www.w3.org/2000/svg"
   xmlns:sodipodi="http://sodipodi.sourceforge.net/DTD/sodipodi-0.dtd"
   xmlns:inkscape="http://www.inkscape.org/namespaces/inkscape"
   version="1.1"
   width="1024"
   height="1024"
   viewBox="0 0 1024 1024"
   id="svg9"
   sodipodi:docname="helpCenter.svg"
   inkscape:version="0.92.3 (2405546, 2018-03-11)">
  <metadata
     id="metadata15">
    <rdf:RDF>
      <cc:Work
         rdf:about="">
        <dc:format>image/svg+xml</dc:format>
        <dc:type
           rdf:resource="http://purl.org/dc/dcmitype/StillImage" />
      </cc:Work>
    </rdf:RDF>
  </metadata>
  <defs
     id="defs13" />
  <sodipodi:namedview
     pagecolor="#ffffff"
     bordercolor="#666666"
     borderopacity="1"
     objecttolerance="10"
     gridtolerance="10"
     guidetolerance="10"
     inkscape:pageopacity="0"
     inkscape:pageshadow="2"
     inkscape:window-width="1920"
     inkscape:window-height="1116"
     id="namedview11"
     showgrid="false"
     inkscape:zoom="0.23046875"
     inkscape:cx="512"
     inkscape:cy="512"
     inkscape:window-x="-8"
     inkscape:window-y="-8"
     inkscape:window-maximized="1"
     inkscape:current-layer="svg9" />
  <title
     id="title2" />
  <g
     id="icomoon-ignore" />
  <path
     fill="#fff"
     d="M513.365 249.856c86.016 0 146.091 54.613 146.091 128.341 0 53.248-25.941 90.112-75.093 121.515-46.421 30.037-60.075 50.517-60.075 90.112v27.307h-47.787v-34.133c0-47.787 20.48-77.824 70.997-109.227 45.056-30.037 62.805-54.613 62.805-92.843 0-50.517-40.96-87.381-98.304-87.381s-96.939 35.499-101.035 92.843h-46.421c4.096-77.824 57.344-136.533 148.821-136.533zM468.309 741.376c0-19.115 15.019-34.133 32.768-34.133 19.115 0 34.133 15.019 34.133 34.133s-15.019 32.768-34.133 32.768c-17.749 0-32.768-15.019-32.768-32.768z"
     id="path7"
     style="fill:#000000;fill-opacity:1" />
</svg>
