<?xml version="1.0" encoding="UTF-8" standalone="no"?>
<!-- Generated by IcoMoon.io -->

<svg
   xmlns:dc="http://purl.org/dc/elements/1.1/"
   xmlns:cc="http://creativecommons.org/ns#"
   xmlns:rdf="http://www.w3.org/1999/02/22-rdf-syntax-ns#"
   xmlns:svg="http://www.w3.org/2000/svg"
   xmlns="http://www.w3.org/2000/svg"
   xmlns:sodipodi="http://sodipodi.sourceforge.net/DTD/sodipodi-0.dtd"
   xmlns:inkscape="http://www.inkscape.org/namespaces/inkscape"
   version="1.1"
   width="1024"
   height="1024"
   viewBox="0 0 1024 1024"
   id="svg13"
   sodipodi:docname="home.svg"
   inkscape:version="0.92.3 (2405546, 2018-03-11)">
  <metadata
     id="metadata19">
    <rdf:RDF>
      <cc:Work
         rdf:about="">
        <dc:format>image/svg+xml</dc:format>
        <dc:type
           rdf:resource="http://purl.org/dc/dcmitype/StillImage" />
      </cc:Work>
    </rdf:RDF>
  </metadata>
  <defs
     id="defs17" />
  <sodipodi:namedview
     pagecolor="#ffffff"
     bordercolor="#666666"
     borderopacity="1"
     objecttolerance="10"
     gridtolerance="10"
     guidetolerance="10"
     inkscape:pageopacity="0"
     inkscape:pageshadow="2"
     inkscape:window-width="1920"
     inkscape:window-height="1116"
     id="namedview15"
     showgrid="false"
     inkscape:zoom="0.4609375"
     inkscape:cx="493.81482"
     inkscape:cy="16.878804"
     inkscape:window-x="-8"
     inkscape:window-y="-8"
     inkscape:window-maximized="1"
     inkscape:current-layer="svg13" />
  <title
     id="title2" />
  <g
     id="icomoon-ignore" />
  <path
     inkscape:connector-curvature="0"
     d="m 310.40457,755.72633 c -18.833,-7.6 -19.236,-10.473 -19.236,-137.278 v -117.696 h -20.746 c -30.981,0 -43.797,-12.359 -33.252,-32.064 5.401,-10.092 243.86501,-220.71698 253.75501,-224.13098 4.85,-1.674 12.828,-2.037 17.729,-0.808 4.901,1.229 33.98,24.818 64.618,52.417 30.638,27.599 57.31,50.18 59.272,50.18 1.962,0 4.519,-2.483 5.684,-5.519 2.983,-7.772 20.362,-16.026 33.746,-16.026 8.074,0 14.802,3.493 23.519,12.209 12.109,12.11 12.209,12.477 12.209,45.13898 v 32.93 l 30.542,29.37 c 16.798,16.154 30.533,31.464 30.522,34.022 -0.011,2.558 -3.986,8.618 -8.834,13.465 -7.414,7.414 -12.261,8.814 -30.522,8.814 h -21.708 v 239.942 l -22.096,18.592 -183.753,-0.215 c -101.06401,-0.107 -187.21601,-1.623 -191.44801,-3.332 z m 375.03401,-18.702 c 3.186,-3.187 4.309,-36.865 4.309,-129.267 v -124.959 h 28.726 c 15.8,0 28.727,-1.483 28.727,-3.3 0,-1.817 -12.927,-14.971 -28.727,-29.238 l -28.726,-25.938 v -34.216 c 0,-37.108 -4.271,-47.34898 -19.749,-47.34898 -11.707,0 -19.146,10.59498 -20.415,29.07498 l -1.13,16.455 -71.196,-64.05898 c -39.158,-35.233 -73.483,-64.059 -76.279,-64.059 -2.796,0 -19.31,12.541 -36.697,27.868 -126.52001,111.53298 -212.61201,189.17298 -212.61201,191.73698 0,1.666 12.927,3.026 28.726,3.026 h 28.726 v 125.498 c 0,115.734 0.489,125.783 6.284,129.159 9.621,5.603 364.41101,5.191 370.03201,-0.43 z"
     id="path9"
     style="fill:#000000;stroke:none" />
</svg>
