<svg xmlns="http://www.w3.org/2000/svg" width="24" height="24" viewBox="0 0 24 24">
    <path fill="#AB004D" fill-rule="nonzero" d="M11.278 19.826h1.444c.31 0 .569-.29.569-.627v-1.572c0-.336-.259-.639-.569-.639h-1.447c-.31 0-.568.3-.568.64v1.571a.597.597 0 0 0 .571.627zM10.262 4.795c.017.377.037.754.054 1.132l.236 4.92c.048 1.03.097 2.059.149 3.088v.025c0 .047.003.09.011.137.003.013.006.028.012.04 0 .007.003.01.006.016.008.02.02.038.025.053a.103.103 0 0 1 .01.04l.013.01.009.003c.003.004.009.004.009.007V14.279c.003.005.003.012.008.018.003.003.006.01.009.012.014.019.031.038.046.056a.532.532 0 0 0 .086.078c.009.007.014.013.023.016.006.003.011.01.017.012l.017.01.015.01c.008.002.017.009.026.012.005.003.008.003.011.006a.19.19 0 0 0 .037.015.05.05 0 0 0 .02.007c.003 0 .006.003.006.003.003.003.009.003.015.003.002 0 .005 0 .005.003l.012.003c.006.003.014.003.02.006h.006l.048.01a.32.32 0 0 0 .055.003H12.725c.324 0 .557-.287.574-.624.017-.377.037-.754.055-1.132.08-1.64.158-3.28.235-4.921.049-1.03.1-2.058.15-3.087.017-.337-.276-.624-.575-.624h-2.328a.58.58 0 0 0-.416.196.576.576 0 0 0-.158.425z"/>
</svg>
