<svg xmlns="http://www.w3.org/2000/svg" viewBox="0 0 11.11 14.95"><title>icone-details-2</title><g id="Calque_2" data-name="Calque 2"><g id="Parcours_de_developpement" data-name="Parcours de developpement"><path d="M10.82,15H.29A.29.29,0,0,1,0,14.66V.29A.29.29,0,0,1,.29,0H10.82a.29.29,0,0,1,.29.29V14.66A.29.29,0,0,1,10.82,15ZM.58,14.37h10V.58H.58Z"/><path d="M2.16,7.45H9a.31.31,0,1,1,0,.62H2.16a.31.31,0,1,1,0-.62Z"/><path d="M2.16,9.66H9a.33.33,0,0,1,.34.32A.33.33,0,0,1,9,10.3H2.16A.33.33,0,0,1,1.82,10,.33.33,0,0,1,2.16,9.66Z"/><path d="M2.16,11.88H9a.33.33,0,0,1,.34.32.34.34,0,0,1-.34.33H2.16a.34.34,0,0,1-.34-.33A.33.33,0,0,1,2.16,11.88Z"/><path d="M3.51,3H7.6a.33.33,0,0,1,.34.31.32.32,0,0,1-.34.31H3.51a.32.32,0,0,1-.34-.31A.33.33,0,0,1,3.51,3Z"/><path d="M2.16,5.22H9a.33.33,0,0,1,.34.32A.34.34,0,0,1,9,5.87H2.16a.34.34,0,0,1-.34-.33A.33.33,0,0,1,2.16,5.22Z"/></g></g></svg>