<?xml version="1.0" encoding="UTF-8" standalone="no"?>
<!-- Generated by IcoMoon.io -->

<svg
   xmlns:dc="http://purl.org/dc/elements/1.1/"
   xmlns:cc="http://creativecommons.org/ns#"
   xmlns:rdf="http://www.w3.org/1999/02/22-rdf-syntax-ns#"
   xmlns:svg="http://www.w3.org/2000/svg"
   xmlns="http://www.w3.org/2000/svg"
   xmlns:sodipodi="http://sodipodi.sourceforge.net/DTD/sodipodi-0.dtd"
   xmlns:inkscape="http://www.inkscape.org/namespaces/inkscape"
   version="1.1"
   width="1024"
   height="1024"
   viewBox="0 0 1024 1024"
   id="svg9"
   sodipodi:docname="myBoard.svg"
   inkscape:version="0.92.3 (2405546, 2018-03-11)">
  <metadata
     id="metadata15">
    <rdf:RDF>
      <cc:Work
         rdf:about="">
        <dc:format>image/svg+xml</dc:format>
        <dc:type
           rdf:resource="http://purl.org/dc/dcmitype/StillImage" />
      </cc:Work>
    </rdf:RDF>
  </metadata>
  <defs
     id="defs13" />
  <sodipodi:namedview
     pagecolor="#ffffff"
     bordercolor="#666666"
     borderopacity="1"
     objecttolerance="10"
     gridtolerance="10"
     guidetolerance="10"
     inkscape:pageopacity="0"
     inkscape:pageshadow="2"
     inkscape:window-width="1920"
     inkscape:window-height="1116"
     id="namedview11"
     showgrid="false"
     inkscape:zoom="0.23046875"
     inkscape:cx="-1071.7288"
     inkscape:cy="512"
     inkscape:window-x="-8"
     inkscape:window-y="-8"
     inkscape:window-maximized="1"
     inkscape:current-layer="svg9" />
  <title
     id="title2" />
  <g
     id="icomoon-ignore" />
  <path
     style="color:#000000;font-style:normal;font-variant:normal;font-weight:normal;font-stretch:normal;font-size:medium;line-height:normal;font-family:sans-serif;font-variant-ligatures:normal;font-variant-position:normal;font-variant-caps:normal;font-variant-numeric:normal;font-variant-alternates:normal;font-feature-settings:normal;text-indent:0;text-align:start;text-decoration:none;text-decoration-line:none;text-decoration-style:solid;text-decoration-color:#000000;letter-spacing:normal;word-spacing:normal;text-transform:none;writing-mode:lr-tb;direction:ltr;text-orientation:mixed;dominant-baseline:auto;baseline-shift:baseline;text-anchor:start;white-space:normal;shape-padding:0;clip-rule:nonzero;display:inline;overflow:visible;visibility:visible;opacity:1;isolation:auto;mix-blend-mode:normal;color-interpolation:sRGB;color-interpolation-filters:linearRGB;solid-color:#000000;solid-opacity:1;vector-effect:none;fill:#000000;fill-opacity:1;fill-rule:nonzero;stroke:none;stroke-width:20.65480042;stroke-linecap:butt;stroke-linejoin:miter;stroke-miterlimit:10;stroke-dasharray:none;stroke-dashoffset:0;stroke-opacity:1;color-rendering:auto;image-rendering:auto;shape-rendering:auto;text-rendering:auto;enable-background:accumulate"
     d="m 501.07617,118.52344 c -59.09609,0 -96.1327,15.97267 -123.4707,36.0957 -36.11891,25.63236 -55.6169,70.12725 -58.81055,98.60742 -7.08546,47.83345 5.26835,106.99899 10.21094,127.90625 -5.53892,3.24366 -11.10868,9.06358 -16.02539,18.89649 -7.02161,14.04395 -1.8363,28.45284 3.61523,39.16797 5.45154,10.71512 11.60386,20.86499 11.92383,22.30468 0.78552,3.53441 0.42382,11.59321 0.60938,20.50196 0.18555,8.90875 1.07501,19.56303 8.14648,28.65429 l 0.15234,0.19336 0.16016,0.1875 c 7.50822,8.75929 15.9015,15.06678 20.07422,18.08399 1.00678,6.80568 7.72521,52.33974 8.87695,66.16406 l -0.0156,-0.21289 c 0.91139,14.58564 8.83542,26.29073 15.88476,34.67383 4.12837,4.90947 7.71158,8.3029 10.40235,10.68359 0.49853,4.79187 2.06712,21.32338 0.51172,43.38281 -1.79908,25.51534 -8.81346,53.81183 -23.35352,66.73633 l -0.0117,0.0117 -0.0137,0.01 c -8.79073,7.8656 -30.64479,11.0701 -55.58594,13.99414 -24.94114,2.92404 -53.01484,6.3735 -73.9043,24.04882 l -0.32812,0.27735 -0.30469,0.30273 c -3.94765,3.94765 -6.37234,8.84634 -7.95508,13.59571 l -2.33984,7.01757 5.89063,4.47266 c 75.3944,57.24424 169.09327,92.21289 271.12109,92.21289 h 0.0703 0.0684 c 103.27494,-1.39526 198.26771,-36.29784 273.71094,-93.57812 l -6.24414,-8.22461 h 10.32812 c 0,-6.39042 -3.37713,-14.21904 -9.80468,-17.43164 l 1.87109,1.20507 c -20.8902,-16.87269 -48.76235,-20.28691 -73.6543,-23.37695 -24.89194,-3.09004 -46.78996,-6.58306 -55.65625,-14.51562 l -0.0215,-0.0195 -0.0215,-0.0176 C 633.506,738.43573 626.3228,710.00639 624.35547,684.26562 c -1.69725,-22.20692 -0.36426,-38.96338 0.0703,-43.89062 2.69177,-2.38835 6.26295,-5.78102 10.33789,-10.62695 7.04934,-8.3831 14.97337,-20.08819 15.88477,-34.67383 l -0.0156,0.21289 c 1.15175,-13.82433 7.87019,-59.35843 8.87696,-66.16406 4.1736,-3.01765 12.56645,-9.32432 20.07421,-18.08399 l 0.16016,-0.1875 0.15039,-0.19336 c 7.07072,-9.09124 7.9608,-19.74565 8.14649,-28.65429 0.18568,-8.90865 -0.17425,-16.96729 0.61132,-20.50196 0.31999,-1.43975 6.47037,-11.58948 11.92188,-22.30468 5.4515,-10.71521 10.63903,-25.12429 3.61719,-39.16797 -4.91646,-9.83344 -10.48806,-15.65287 -16.02735,-18.89649 4.9526,-20.94936 17.35699,-80.32781 10.17578,-128.20312 l -0.0117,-0.084 -0.0137,-0.082 c -4.63646,-27.81877 -24.1034,-71.0429 -58.43554,-97.91211 l -0.11719,-0.0918 -0.1211,-0.0899 C 612.29628,134.52085 575.24282,118.52344 516.0957,118.52344 Z m 0,20.65625 h 15.01953 c 55.42895,0 86.62159,13.98548 111.13672,32.01367 28.39966,22.28136 47.12004,63.58394 50.69336,84.91016 7.55696,50.67276 -12.08594,129.57421 -12.08594,129.57421 l -4.51953,17.47461 15.99414,-4.56836 c 0.0633,0.0255 -0.0359,-0.0157 0.0586,0.0293 1.01021,0.48103 4.26905,2.50448 8.34375,10.6543 2.53515,5.07031 0.89621,11.82366 -3.55078,20.56445 -4.447,8.74079 -11.26672,16.3412 -13.67774,27.18945 -1.94542,8.75334 -0.94184,17.07738 -1.09766,24.55274 -0.15375,7.37684 -1.29386,13.03155 -3.71289,16.25195 -6.77241,7.7926 -19.70117,17.14649 -19.70117,17.14649 l -3.63476,2.54296 -0.65625,4.38477 c 0,0 -8.14553,53.77321 -9.63672,71.67188 l -0.008,0.10546 -0.008,0.10743 c -0.4536,7.25936 -5.49821,16.03427 -11.07812,22.66992 -5.57991,6.63565 -10.89649,10.7832 -10.89649,10.7832 l -3.47265,2.70117 -0.45703,4.37696 c 0,0 -2.49561,23.67495 -0.36719,51.52343 2.12784,27.84092 7.91392,60.84071 29.7207,80.14649 17.0753,15.25601 42.26635,16.54521 66.85547,19.59765 22.80131,2.83052 44.9943,6.63838 59.76563,16.5625 -70.70002,51.24563 -158.36285,82.38564 -253.61524,83.69141 -93.99302,-0.0108 -180.42061,-31.14547 -251.14258,-82.57812 14.70543,-11.43333 37.67417,-15.39407 61.41797,-18.17774 24.54728,-2.87786 49.79134,-3.77313 66.94141,-19.10937 22.31105,-19.84509 28.26574,-52.97892 30.2207,-80.70508 1.95542,-27.73266 -0.90234,-51.1211 -0.90234,-51.1211 l -0.51758,-4.26953 -3.39453,-2.63867 c 0,0 -5.31462,-4.14755 -10.89453,-10.7832 -5.57991,-6.63565 -10.62647,-15.41056 -11.08008,-22.66992 l -0.006,-0.10743 -0.01,-0.10546 c -1.49119,-17.89867 -9.63476,-71.67188 -9.63476,-71.67188 l -0.65821,-4.38477 -3.63281,-2.54296 c 0,0 -12.93106,-9.35955 -19.70312,-17.15235 -2.41695,-3.22116 -3.55932,-8.87277 -3.71289,-16.24609 -0.1557,-7.47525 0.84782,-15.79914 -1.09766,-24.55274 -2.41103,-10.8483 -9.22881,-18.44882 -13.67578,-27.18945 -4.44697,-8.74063 -6.08617,-15.4934 -3.55078,-20.56445 h -0.002 c 4.07523,-8.15002 7.33554,-10.17328 8.34571,-10.6543 0.0924,-0.044 -0.006,-0.004 0.0566,-0.0293 l 15.99414,4.57032 -4.51953,-17.47657 c 0,0 -19.67244,-79.01605 -12.07227,-129.68359 l 0.0293,-0.19531 0.0215,-0.19727 c 2.29427,-20.65342 20.9926,-63.41674 50.31836,-84.18945 l 0.0781,-0.0566 0.0781,-0.0566 c 24.53914,-18.08037 55.75221,-32.11914 111.29297,-32.11914 z"
     id="path7"
     inkscape:connector-curvature="0" />
</svg>
