<svg xmlns="http://www.w3.org/2000/svg" width="38" height="24" viewBox="0 0 38 24">
    <g fill="#5E97A5" fill-rule="nonzero">
        <path d="M11.984 10.7c1.4.41 1.37 1.12 2 4.71.63 3.59 4.6 3.08 4.6 3.08s-5.58-1.35-3.07-8.49c.4-1.6-.91-2.93-2.82-3.24-4.39-.72-7.72-1-10.22-1.4 2.56 5.81 1.58 3.97 9.51 5.34z"/>
        <path d="M5.754 13.16l7.06.49a.11.11 0 0 0 .11-.12c0-1.52-.3-2.14-1.54-2.45l-7-.93c.34 1.43.22 2.85 1.37 3.01zM13.244 14.7l.47 1.75a.18.18 0 0 1-.15.23c-3.05.15-5.76 1.29-6.88-2.53a.17.17 0 0 1 .17-.23l6.25.66a.15.15 0 0 1 .14.12zM15.894 18.91a.1.1 0 0 1-.05.17c-2.14 0-8.52-1.29-6.36-1.47l4.34-.35a.35.35 0 0 1 .26.08l1.81 1.57zM37.514 5.33c-2.51.43-5.83.68-10.22 1.4-1.9.27-3.2 1.64-2.78 3.27 2.48 7.17-3.13 8.52-3.13 8.52s3.94.51 4.6-3.08c.66-3.59.62-4.3 2-4.71 7.94-1.4 6.96.44 9.53-5.4z"/>
        <path d="M35.514 10.15l-7 .93c-1.23.31-1.51.93-1.53 2.45a.11.11 0 0 0 .11.12l7.05-.49c1.23-.16 1.11-1.58 1.37-3.01zM26.874 14.58l6.25-.66a.18.18 0 0 1 .17.23c-1.12 3.82-3.84 2.68-6.89 2.53a.18.18 0 0 1-.14-.23l.47-1.75a.15.15 0 0 1 .14-.12zM25.884 17.34a.38.38 0 0 1 .27-.08l4.34.35c2.16.18-4.22 1.5-6.37 1.47-.08 0-.11-.11-.05-.17l1.81-1.57zM23.184 8.85a3.79 3.79 0 0 0-.38-.32.61.61 0 0 0-.16-.12 4.5 4.5 0 0 0-2.62-.85 5.2 5.2 0 0 0-4.91 5.44 5.66 5.66 0 0 0 1.71 4.12l.14.13.4.32.16.11a4.59 4.59 0 0 0 2.5.75 5.2 5.2 0 0 0 4.9-5.43 5.65 5.65 0 0 0-1.59-4l-.15-.15zM15.614 13a4.66 4.66 0 0 1 4.41-4.87 4 4 0 0 1 1.8.43l-5.15 7.6a5.14 5.14 0 0 1-1.06-3.16zm4.41 4.87a4 4 0 0 1-1.51-.3c.87-1.16 4.19-6.42 4.95-7.61.65.884 1 1.953 1 3.05a4.65 4.65 0 0 1-4.44 4.87v-.01zm2.78-9.33l-.29.46-5.25 7.82-.3.45-.14-.13.3-.45 5.22-7.81.3-.44a.61.61 0 0 1 .16.11v-.01zm.38.32l-.3.45-5.21 7.81-.31.45.16.11.3-.45 5.21-7.77.3-.45-.15-.15z"/>
    </g>
</svg>
