<svg id="Calque_1" data-name="Calque 1" xmlns="http://www.w3.org/2000/svg" viewBox="0 0 50 50"><defs><style>.cls-1{fill-rule:evenodd;}</style></defs><title>icone</title><path class="cls-1" d="M16.47,23.7c1.4.41,1.37,1.12,2,4.71s4.6,3.08,4.6,3.08S17.49,30.14,20,23c.4-1.6-.91-2.93-2.82-3.24-4.39-.72-7.72-1-10.22-1.4C9.52,24.17,8.54,22.33,16.47,23.7Z"/><path class="cls-1" d="M10.24,26.16l7.06.49a.11.11,0,0,0,.11-.12c0-1.52-.3-2.14-1.54-2.45l-7-.93C9.21,24.58,9.09,26,10.24,26.16Z"/><path class="cls-1" d="M17.73,27.7l.47,1.75a.18.18,0,0,1-.15.23c-3.05.15-5.76,1.29-6.88-2.53a.17.17,0,0,1,.17-.23l6.25.66A.15.15,0,0,1,17.73,27.7Z"/><path class="cls-1" d="M20.38,31.91a.1.1,0,0,1-.05.17c-2.14,0-8.52-1.29-6.36-1.47l4.34-.35a.35.35,0,0,1,.26.08Z"/><path class="cls-1" d="M42,18.33c-2.51.43-5.83.68-10.22,1.4C29.88,20,28.58,21.37,29,23c2.48,7.17-3.13,8.52-3.13,8.52s3.94.51,4.6-3.08.62-4.3,2-4.71C40.41,22.33,39.43,24.17,42,18.33Z"/><path class="cls-1" d="M40,23.15l-7,.93c-1.23.31-1.51.93-1.53,2.45a.11.11,0,0,0,.11.12l7.05-.49C39.86,26,39.74,24.58,40,23.15Z"/><path class="cls-1" d="M31.36,27.58l6.25-.66a.18.18,0,0,1,.17.23c-1.12,3.82-3.84,2.68-6.89,2.53a.18.18,0,0,1-.14-.23l.47-1.75A.15.15,0,0,1,31.36,27.58Z"/><path class="cls-1" d="M30.37,30.34a.38.38,0,0,1,.27-.08l4.34.35c2.16.18-4.22,1.5-6.37,1.47-.08,0-.11-.11-.05-.17Z"/><path class="cls-1" d="M27.82,22l-.15-.15a3.79,3.79,0,0,0-.38-.32.61.61,0,0,0-.16-.12,4.5,4.5,0,0,0-2.62-.85A5.2,5.2,0,0,0,19.6,26a5.66,5.66,0,0,0,1.71,4.12l.14.13.4.32.16.11a4.59,4.59,0,0,0,2.5.75A5.2,5.2,0,0,0,29.41,26,5.65,5.65,0,0,0,27.82,22ZM20.1,26a4.66,4.66,0,0,1,4.41-4.87,4,4,0,0,1,1.8.43l-5.15,7.6A5.14,5.14,0,0,1,20.1,26Zm4.41,4.87A4,4,0,0,1,23,30.57c.87-1.16,4.19-6.42,4.95-7.61a5.14,5.14,0,0,1,1,3.05A4.65,4.65,0,0,1,24.51,30.88Zm2.78-9.33L27,22l-5.25,7.82-.3.45-.14-.13.3-.45,5.22-7.81.3-.44A.61.61,0,0,1,27.29,21.55Zm.38.32-.3.45-5.21,7.81-.31.45.16.11.3-.45,5.21-7.77.3-.45Z"/></svg>