<?xml version="1.0" encoding="utf-8"?>
<!-- Generator: Adobe Illustrator 23.0.1, SVG Export Plug-In . SVG Version: 6.00 Build 0)  -->
<svg version="1.1" id="Calque_1" xmlns="http://www.w3.org/2000/svg" xmlns:xlink="http://www.w3.org/1999/xlink" x="0px" y="0px"
	 viewBox="0 0 76 76" style="enable-background:new 0 0 76 76;" xml:space="preserve">
<style type="text/css">
	.st0{fill:#818385;}
	.st1{fill-rule:evenodd;clip-rule:evenodd;fill:#FFFFFF;}
	.st2{fill:none;stroke:#000000;stroke-width:3.7844;stroke-miterlimit:10;}
	.st3{stroke:#000000;stroke-width:0.7961;stroke-miterlimit:10;}
	.st4{fill-rule:evenodd;clip-rule:evenodd;}
	.st5{fill:#FFFFFF;}
	.st6{fill:none;stroke:#818385;stroke-width:0.6677;stroke-miterlimit:10;}
	.st7{stroke:#000000;stroke-width:0.2065;stroke-miterlimit:10;}
	.st8{stroke:#000000;stroke-width:0.2116;stroke-miterlimit:10;}
</style>
<g transform="translate(0,-952.36218)">
	<path class="st0" d="M-533.7,798.5c-1.2,0-2.1,1-2.1,2.1v6.4c0,1.2,1,2.1,2.1,2.1c1.2,0,2.1-1,2.1-2.1v-6.4
		C-531.6,799.4-532.5,798.5-533.7,798.5z M-512.2,798.5c-1.2,0-2.1,1-2.1,2.1v6.4c0,1.2,1,2.1,2.1,2.1c1.2,0,2.1-1,2.1-2.1v-6.4
		C-510.1,799.4-511.1,798.5-512.2,798.5z M-542.3,803.8c-1.2,0-2.1,1-2.1,2.1v6.4h43V806c0-1.2-1-2.1-2.1-2.1h-5.4v3.2
		c0,1.8-1.5,3.2-3.2,3.2c-1.8,0-3.2-1.5-3.2-3.2v-3.2h-15v3.2c0,1.8-1.5,3.2-3.2,3.2c-1.8,0-3.2-1.5-3.2-3.2v-3.2H-542.3z
		 M-544.5,813.5v23.6c0,1.2,1,2.1,2.1,2.1h38.7c1.2,0,2.1-1,2.1-2.1v-23.6H-544.5z"/>
</g>
<g>
	<path class="st1" d="M-516.9-116.5l2-2l-2-10.2l3.6-3.6c0.8-0.8,0.8-2.2,0-3c-0.8-0.8-2.2-0.8-3,0l-3.6,3.6l-10.2-2l-2,2l7.1,5.1
		l-3,3l-3-1l-2,2l4.1,2c0,0,0.3,0.3,0.5,0.5c0.2,0.2,0.5,0.5,0.5,0.5l2,4.1l2-2l-1-3l3-3L-516.9-116.5z"/>
</g>
<g>
	<circle class="st2" cx="512.7" cy="-124.4" r="34.9"/>
	<g>
		<path class="st3" d="M505.3-166.9c-0.2,0-0.4-0.1-0.5-0.2c-0.3-0.2-0.4-0.6-0.3-0.9l2.8-8.9l-7.6-5.4c-0.3-0.2-0.4-0.6-0.3-0.9
			s0.4-0.6,0.8-0.6l9.5-0.1l2.7-8.8c0.1-0.3,0.4-0.6,0.8-0.6c0.4,0,0.7,0.2,0.8,0.6l3.2,8.6l9.1,0.2c0.4,0,0.7,0.2,0.8,0.6
			c0.1,0.3,0,0.7-0.3,0.9l-7.5,5.7l2.9,8.7c0.1,0.3,0,0.7-0.3,0.9c-0.3,0.2-0.7,0.2-1,0l-7.5-5.3l-7.6,5.4
			C505.6-166.9,505.5-166.9,505.3-166.9z"/>
	</g>
	<g>
		<path class="st4" d="M452.4-140c10.6,2.8,10.3,7.6,15.2,31.9c4.9,24.3,34.5,20.9,34.5,20.9S460-96.4,478.6-145
			c3-10.9-6.8-19.9-21.2-22c-32.9-4.9-57.9-6.6-76.7-9.5C400.2-136.9,392.9-149.3,452.4-140z"/>
		<path class="st4" d="M405.6-123.3l53,3.3c0.4,0,0.8-0.3,0.8-0.8c-0.1-10.3-2.2-14.5-11.5-16.6l-52.2-6.4
			C397.9-134.1,397-124.5,405.6-123.3z"/>
		<path class="st4" d="M461.8-112.9l3.5,11.8c0.2,0.8-0.3,1.5-1.1,1.5c-22.9,1-43.2,8.8-51.7-17.1c-0.3-0.8,0.4-1.7,1.3-1.6
			l46.9,4.5C461.3-113.7,461.7-113.4,461.8-112.9z"/>
		<path class="st4" d="M481.7-84.4c0.5,0.4,0.2,1.1-0.4,1.2c-16.1,0.2-63.9-8.8-47.7-10l32.6-2.4c0.7-0.1,1.4,0.2,2,0.6L481.7-84.4z
			"/>
	</g>
	<g>
		<path class="st4" d="M644.1-176.4c-18.8,2.9-43.8,4.6-76.7,9.5c-14.4,2.1-24.2,11.1-21.2,22c18.6,48.6-23.5,57.7-23.5,57.7
			s29.6,3.4,34.5-20.9c4.9-24.3,4.7-29.1,15.2-31.9C632-149.3,624.6-136.9,644.1-176.4z"/>
		<path class="st4" d="M629.2-143.8l-52.2,6.4c-9.3,2.1-11.4,6.3-11.5,16.6c0,0.4,0.4,0.8,0.8,0.8l53-3.3
			C627.9-124.5,627-134.1,629.2-143.8z"/>
		<path class="st4" d="M564.1-113.8l46.9-4.5c0.9-0.1,1.5,0.8,1.3,1.6c-8.4,25.9-28.8,18.1-51.7,17.1c-0.8,0-1.3-0.8-1.1-1.5
			l3.5-11.8C563.2-113.4,563.6-113.7,564.1-113.8z"/>
		<path class="st4" d="M556.7-95c0.6-0.4,1.3-0.7,2-0.6l32.6,2.4c16.2,1.2-31.6,10.2-47.7,10c-0.6,0-0.9-0.8-0.4-1.2L556.7-95z"/>
	</g>
	<path class="st4" d="M487.4-102.7c0,0,10,12.1,12.4,10.8c2.4-1.3,39.7-54.8,39.7-54.8l-12.1-9.3L487.4-102.7z"/>
	<g>
		<polygon class="st5" points="531.6,-152.1 491.9,-98.6 491,-99.3 530.6,-152.9 		"/>
	</g>
	<g>
		<polygon class="st5" points="535.6,-148.9 495.8,-95.4 494.9,-96.1 534.5,-149.7 		"/>
	</g>
</g>
<path d="M-144.9,214.1c0-10.1-8.2-18.3-18.3-18.3c-10.1,0-18.3,8.2-18.3,18.3c0,5.8,2.7,11.2,7.5,14.7l2.3,1.7l-2.7,0.8
	c-16.6,4.6-20.3,19-20.4,39.3h63.3c-0.2-20.3-3.8-34.7-20.3-39.3l-2.7-0.8l2.3-1.7C-147.6,225.3-144.9,219.9-144.9,214.1z
	 M-82.5,190.8c-9,1.4-21,2.2-36.8,4.5c-6.9,1-11.6,5.3-10.2,10.6c8.9,23.3-11.3,27.7-11.3,27.7s14.2,1.6,16.6-10
	c2.4-11.7,2.3-14,7.3-15.3C-88.3,203.8-91.8,209.8-82.5,190.8z M-89.6,206.5l-25.1,3c-4.4,1-5.5,3-5.5,8c0,0.2,0.2,0.4,0.4,0.4
	l25.4-1.6C-90.3,215.7-90.7,211.1-89.6,206.5z M-120.9,220.9l22.5-2.1c0.4,0,0.7,0.4,0.6,0.8c-4,12.4-13.8,8.7-24.8,8.2
	c-0.4,0-0.6-0.4-0.5-0.7l1.7-5.7C-121.3,221.1-121.1,220.9-120.9,220.9z M-124.4,229.9c0.3-0.2,0.6-0.3,1-0.3l15.6,1.2
	c7.8,0.6-15.2,4.9-22.9,4.8c-0.3,0-0.4-0.4-0.2-0.6L-124.4,229.9z"/>
<path d="M-496.3,204.3c-0.4,0.3-0.5,0.9-0.3,1.3c0,0,0.5,1.2,0.5,2.3h0c0,0,0,0.1,0,0.1c0,0.3-0.3,0.6-0.6,0.6h-11.5
	c-0.3,0-0.6-0.3-0.6-0.6c0,0,0-0.1,0-0.1h0c0-1.1,0.5-2.3,0.5-2.3c0.2-0.4,0-1-0.3-1.3c0,0-7.8-6.6-7.8-12.4c0-7.8,6.3-14,14-14
	c7.8,0,14,6.3,14,14C-488.5,197.8-496.3,204.3-496.3,204.3z M-496.8,211c0-0.6-0.5-1.1-1.1-1.1h-9.2c-0.6,0-1.1,0.5-1.1,1.1v0.3
	c0,0.6,0.5,1.1,1.1,1.1h9.2c0.6,0,1.1-0.5,1.1-1.1V211z M-496.8,214.4c0-0.6-0.5-1.1-1.1-1.1h-9.2c-0.6,0-1.1,0.5-1.1,1.1v0.3
	c0,0.6,0.5,1.1,1.1,1.1h9.2c0.6,0,1.1-0.5,1.1-1.1V214.4z M-499.1,218.1c0-0.6-0.5-1.1-1.1-1.1h-4.5c-0.6,0-1.1,0.5-1.1,1.1l0,0
	c0,0.6,0.5,1.1,1.1,1.1h4.5C-499.6,219.2-499.1,218.7-499.1,218.1L-499.1,218.1z M-502.5,169.9c15.8,0,28.7,12.8,28.7,28.7
	c0,15.8-12.8,28.7-28.7,28.7c-5,0-9.8-1.3-13.9-3.6c-0.5,1-1.1,1.9-1.7,2.8c4.6,2.6,10,4.1,15.7,4.1c17.6,0,32-14.4,32-32
	c0-17.6-14.4-32-32-32c-15.8,0-28.9,11.5-31.5,26.5c1.1,0.1,2.2,0.2,3.3,0.4C-528.3,180.1-516.6,169.9-502.5,169.9z M-516.9,214.1
	c0-10.1-8.2-18.3-18.3-18.3c-10.1,0-18.3,8.2-18.3,18.3c0,5.8,2.7,11.2,7.5,14.7l2.3,1.7l-2.7,0.8c-16.6,4.6-20.3,19-20.4,39.3h63.3
	c-0.2-20.3-3.8-34.7-20.3-39.3l-2.7-0.8l2.3-1.7C-519.6,225.3-516.9,219.9-516.9,214.1z"/>
<g>
	<g>
		<path class="st0" d="M-405.5-131.4h-19.9c0.1-0.4,0.1-0.9,0.1-1.4c0-1.1-0.2-2.2-0.7-3.1l7.5-0.7v-0.3h-8
			c-0.9-1.3-2.2-2.2-3.7-2.4l-0.4-4.4h-0.3h-0.3l-0.4,4.4c-1.5,0.2-2.8,1.1-3.7,2.4h-8v0.3l7.5,0.7c-0.4,0.9-0.7,2-0.7,3.1
			c0,0.5,0,0.9,0.1,1.4h-21v0.9l4.3,0.6c-0.3,0.3-0.4,0.8-0.4,1.2c0,1.1,0.9,2,2,2c1.1,0,2-0.9,2-2c0-0.4-0.1-0.8-0.3-1.1l1.1,0.3
			c-0.1,0.2-0.1,0.5-0.1,0.8c0,1.3,1.1,2.4,2.4,2.4c1.3,0,2.4-1.1,2.4-2.4c0-0.2,0-0.4-0.1-0.5l2.5,0.2v4.4h0.9v-1.9l3.1-2.3
			l2.4,0.1c1,1.4,2.6,2.4,4.3,2.4c1.7,0,3.3-0.9,4.3-2.4l2.4-0.1l3.1,2.3v1.9h0.9v-4.4l1.7-0.2c0,0.2-0.1,0.4-0.1,0.5
			c0,1.3,1.1,2.4,2.4,2.4c1.3,0,2.4-1.1,2.4-2.4c0-0.3-0.1-0.5-0.1-0.8l1.1-0.3c-0.2,0.3-0.3,0.7-0.3,1.1c0,1.1,0.9,2,2,2
			c1.1,0,2-0.9,2-2c0-0.5-0.2-0.9-0.4-1.2l4-0.6L-405.5-131.4L-405.5-131.4z M-440.6-126.9v-2l2.4,0.1L-440.6-126.9z M-431.7-133.9
			h-3.5c0,0,0.7-2.9,3.5-2.9V-133.9z M-430.1-133.9v-2.9c2.8,0,3.5,2.9,3.5,2.9H-430.1z M-421.2-126.9l-2.4-1.9l2.4-0.1V-126.9z"/>
		<path class="st0" d="M-439.6-125.6c-0.4,0-0.7,0.3-0.7,0.7v0.4h-1.6v-0.4c0-0.4-0.3-0.7-0.7-0.7c-0.4,0-0.7,0.3-0.7,0.7v2
			c0,0.4,0.3,0.7,0.7,0.7c0.4,0,0.7-0.3,0.7-0.7v-0.4h1.6v0.4c0,0.4,0.3,0.7,0.7,0.7c0.4,0,0.7-0.3,0.7-0.7v-2
			C-438.9-125.3-439.2-125.6-439.6-125.6z"/>
		<path class="st0" d="M-419.2-125.6c-0.4,0-0.7,0.3-0.7,0.7v0.4h-1.6v-0.4c0-0.4-0.3-0.7-0.7-0.7c-0.4,0-0.7,0.3-0.7,0.7v2
			c0,0.4,0.3,0.7,0.7,0.7c0.4,0,0.7-0.3,0.7-0.7v-0.4h1.6v0.4c0,0.4,0.3,0.7,0.7,0.7c0.4,0,0.7-0.3,0.7-0.7v-2
			C-418.5-125.3-418.8-125.6-419.2-125.6z"/>
	</g>
	<g>
		<line class="st6" x1="-434.7" y1="-125.8" x2="-437.9" y2="-120.1"/>
		<line class="st6" x1="-427.3" y1="-125.8" x2="-423.7" y2="-120"/>
	</g>
	<g>
		<g>
			<polygon class="st0" points="-430.6,-125.2 -430.6,-125 -431.2,-125 -431.2,-125.2 			"/>
			<polygon class="st0" points="-430.5,-124.5 -430.5,-124.1 -431.3,-124.1 -431.3,-124.5 			"/>
			<polygon class="st0" points="-430.4,-123.7 -430.4,-123.3 -431.4,-123.3 -431.4,-123.7 			"/>
			<polygon class="st0" points="-430.3,-122.9 -430.3,-122.5 -431.5,-122.5 -431.5,-122.9 			"/>
			<polygon class="st0" points="-430.2,-122 -430.2,-121.6 -431.6,-121.6 -431.6,-122 			"/>
			<polygon class="st0" points="-430.1,-121.2 -430.1,-120.8 -431.7,-120.8 -431.7,-121.2 			"/>
			<polygon class="st0" points="-430,-120.4 -430,-120.2 -431.8,-120.2 -431.8,-120.4 			"/>
		</g>
	</g>
</g>
<g>
	<path class="st7" d="M243.1-139.8c0,0-0.1,0-0.1,0c-0.1-0.1-0.1-0.2-0.1-0.2l0.7-2.3l-2-1.4c-0.1-0.1-0.1-0.2-0.1-0.2
		c0-0.1,0.1-0.2,0.2-0.2l2.5,0l0.7-2.3c0-0.1,0.1-0.2,0.2-0.2c0.1,0,0.2,0.1,0.2,0.1l0.8,2.2l2.4,0.1c0.1,0,0.2,0.1,0.2,0.2
		c0,0.1,0,0.2-0.1,0.2l-1.9,1.5l0.7,2.3c0,0.1,0,0.2-0.1,0.2c-0.1,0.1-0.2,0.1-0.3,0l-2-1.4l-2,1.4
		C243.2-139.8,243.2-139.8,243.1-139.8z"/>
</g>
<g>
	<path class="st4" d="M229.4-132.8c2.7,0.7,2.7,2,4,8.3c1.3,6.3,9,5.4,9,5.4s-10.9-2.4-6.1-15c0.8-2.8-1.8-5.2-5.5-5.7
		c-8.5-1.3-15-1.7-19.9-2.5C215.8-132,213.9-135.3,229.4-132.8z"/>
	<path class="st4" d="M217.3-128.5l13.7,0.8c0.1,0,0.2-0.1,0.2-0.2c0-2.7-0.6-3.8-3-4.3l-13.6-1.6
		C215.2-131.3,215-128.8,217.3-128.5z"/>
	<path class="st4" d="M231.8-125.8l0.9,3.1c0.1,0.2-0.1,0.4-0.3,0.4c-5.9,0.3-11.2,2.3-13.4-4.4c-0.1-0.2,0.1-0.4,0.3-0.4l12.2,1.2
		C231.7-126,231.8-125.9,231.8-125.8z"/>
	<path class="st4" d="M237-118.4c0.1,0.1,0.1,0.3-0.1,0.3c-4.2,0-16.6-2.3-12.4-2.6l8.5-0.6c0.2,0,0.4,0,0.5,0.2L237-118.4z"/>
</g>
<g>
	<path class="st4" d="M279.1-142.3c-4.9,0.7-11.4,1.2-19.9,2.5c-3.7,0.6-6.3,2.9-5.5,5.7c4.8,12.6-6.1,15-6.1,15s7.7,0.9,9-5.4
		c1.3-6.3,1.2-7.6,4-8.3C276-135.3,274.1-132,279.1-142.3z"/>
	<path class="st4" d="M275.3-133.8l-13.6,1.6c-2.4,0.5-3,1.6-3,4.3c0,0.1,0.1,0.2,0.2,0.2l13.7-0.8
		C274.9-128.8,274.7-131.3,275.3-133.8z"/>
	<path class="st4" d="M258.4-126l12.2-1.2c0.2,0,0.4,0.2,0.3,0.4c-2.2,6.7-7.5,4.7-13.4,4.4c-0.2,0-0.3-0.2-0.3-0.4l0.9-3.1
		C258.1-125.9,258.2-126,258.4-126z"/>
	<path class="st4" d="M256.4-121.2c0.1-0.1,0.3-0.2,0.5-0.2l8.5,0.6c4.2,0.3-8.2,2.6-12.4,2.6c-0.2,0-0.2-0.2-0.1-0.3L256.4-121.2z"
		/>
</g>
<path class="st4" d="M251.5-135.8c-0.1-0.1-0.2-0.2-0.3-0.3c-0.2-0.2-0.5-0.4-0.7-0.6c-0.1-0.1-0.2-0.2-0.3-0.2
	c-1.5-0.9-3.2-1.5-5.1-1.5c-5.3,0-9.6,4.3-9.6,9.5c0,2.9,1.3,5.5,3.3,7.2c0.1,0.1,0.2,0.2,0.3,0.2c0.2,0.2,0.5,0.4,0.8,0.6
	c0.1,0.1,0.2,0.1,0.3,0.2c1.4,0.8,3.1,1.3,4.9,1.3c5.3,0,9.6-4.3,9.6-9.6C254.6-131.6,253.4-134.1,251.5-135.8z M236.4-128.8
	c0-4.7,3.9-8.6,8.6-8.6c1.3,0,2.4,0.3,3.5,0.8l-10,13.4C237.2-124.7,236.4-126.7,236.4-128.8z M245-120.2c-1,0-2-0.2-3-0.5
	c1.7-2.1,8.2-11.3,9.6-13.4c1.2,1.5,1.9,3.3,1.9,5.4C253.6-124.1,249.8-120.2,245-120.2z M250.4-136.6l-0.6,0.8l-10.2,13.8l-0.6,0.8
	c-0.1-0.1-0.2-0.1-0.3-0.2l0.6-0.8l10.1-13.7l0.6-0.8C250.2-136.8,250.3-136.7,250.4-136.6z M251.2-136.1l-0.6,0.8l-10.2,13.8
	l-0.6,0.8c0.1,0.1,0.2,0.1,0.3,0.2l0.6-0.8l10.1-13.7l0.6-0.8C251.4-135.9,251.3-136,251.2-136.1z"/>
<g>
	<g>
		<path class="st8" d="M35.8,30.5c0,0-0.1,0-0.1,0c-0.1-0.1-0.1-0.2-0.1-0.2l0.7-2.4l-2-1.4c-0.1-0.1-0.1-0.2-0.1-0.3
			c0-0.1,0.1-0.2,0.2-0.2l2.5,0l0.7-2.3c0-0.1,0.1-0.2,0.2-0.2c0.1,0,0.2,0.1,0.2,0.1l0.9,2.3l2.4,0.1c0.1,0,0.2,0.1,0.2,0.2
			c0,0.1,0,0.2-0.1,0.2l-2,1.5l0.8,2.3c0,0.1,0,0.2-0.1,0.3c-0.1,0.1-0.2,0.1-0.3,0L38,29l-2,1.4C35.9,30.4,35.9,30.5,35.8,30.5z"/>
	</g>
	<g>
		<path class="st4" d="M21.8,37.6c2.8,0.7,2.7,2,4.1,8.5c1.3,6.5,9.2,5.6,9.2,5.6s-11.2-2.4-6.2-15.4c0.8-2.9-1.8-5.3-5.6-5.8
			c-8.7-1.3-15.4-1.7-20.4-2.5C7.9,38.4,5.9,35.1,21.8,37.6z"/>
		<path class="st4" d="M9.3,42l14.1,0.9c0.1,0,0.2-0.1,0.2-0.2c0-2.7-0.6-3.9-3.1-4.4L6.7,36.6C7.3,39.2,7,41.7,9.3,42z"/>
		<path class="st4" d="M24.3,44.8l0.9,3.1c0.1,0.2-0.1,0.4-0.3,0.4c-6.1,0.3-11.5,2.3-13.7-4.5c-0.1-0.2,0.1-0.4,0.3-0.4L24,44.6
			C24.1,44.6,24.2,44.7,24.3,44.8z"/>
		<path class="st4" d="M29.6,52.4c0.1,0.1,0.1,0.3-0.1,0.3c-4.3,0.1-17-2.3-12.7-2.6l8.7-0.6c0.2,0,0.4,0,0.5,0.2L29.6,52.4z"/>
	</g>
	<g>
		<path class="st4" d="M72.7,27.9c-5,0.8-11.6,1.2-20.4,2.5c-3.8,0.6-6.4,2.9-5.6,5.8c4.9,12.9-6.2,15.4-6.2,15.4s7.9,0.9,9.2-5.6
			c1.3-6.5,1.2-7.7,4.1-8.5C69.5,35.1,67.6,38.4,72.7,27.9z"/>
		<path class="st4" d="M68.8,36.6l-13.9,1.7c-2.5,0.5-3,1.7-3.1,4.4c0,0.1,0.1,0.2,0.2,0.2L66.1,42C68.4,41.7,68.2,39.2,68.8,36.6z"
			/>
		<path class="st4" d="M51.5,44.6l12.5-1.2c0.2,0,0.4,0.2,0.3,0.4c-2.2,6.9-7.6,4.8-13.7,4.5c-0.2,0-0.4-0.2-0.3-0.4l0.9-3.1
			C51.2,44.7,51.3,44.6,51.5,44.6z"/>
		<path class="st4" d="M49.5,49.6c0.1-0.1,0.3-0.2,0.5-0.2l8.7,0.6c4.3,0.3-8.4,2.7-12.7,2.6c-0.2,0-0.2-0.2-0.1-0.3L49.5,49.6z"/>
	</g>
	<path class="st4" d="M44.4,34.6c-0.1-0.1-0.2-0.2-0.3-0.3c-0.2-0.2-0.5-0.4-0.7-0.6c-0.1-0.1-0.2-0.2-0.3-0.2
		c-1.5-1-3.3-1.5-5.2-1.5c-5.4,0-9.8,4.4-9.8,9.8c0,3,1.3,5.6,3.4,7.4c0.1,0.1,0.2,0.2,0.3,0.2c0.3,0.2,0.5,0.4,0.8,0.6
		c0.1,0.1,0.2,0.1,0.3,0.2c1.5,0.9,3.2,1.4,5,1.4c5.4,0,9.8-4.4,9.8-9.8C47.6,38.9,46.4,36.3,44.4,34.6z M29,41.8
		c0-4.8,3.9-8.8,8.8-8.8c1.3,0,2.5,0.3,3.6,0.8L31.1,47.4C29.8,45.9,29,43.9,29,41.8z M37.8,50.5c-1.1,0-2.1-0.2-3-0.6
		c1.7-2.1,8.4-11.6,9.9-13.7c1.2,1.5,2,3.4,2,5.5C46.6,46.6,42.6,50.5,37.8,50.5z M43.4,33.7l-0.6,0.8L32.3,48.6l-0.6,0.8
		c-0.1-0.1-0.2-0.2-0.3-0.2l0.6-0.8l10.4-14.1l0.6-0.8C43.1,33.6,43.2,33.6,43.4,33.7z M44.1,34.3l-0.6,0.8L33.1,49.2L32.5,50
		c0.1,0.1,0.2,0.1,0.3,0.2l0.6-0.8l10.4-14l0.6-0.8C44.3,34.5,44.2,34.4,44.1,34.3z"/>
</g>
</svg>
