<?xml version="1.0" encoding="UTF-8" standalone="no"?>
<!-- Generated by IcoMoon.io -->

<svg
   xmlns:dc="http://purl.org/dc/elements/1.1/"
   xmlns:cc="http://creativecommons.org/ns#"
   xmlns:rdf="http://www.w3.org/1999/02/22-rdf-syntax-ns#"
   xmlns:svg="http://www.w3.org/2000/svg"
   xmlns="http://www.w3.org/2000/svg"
   xmlns:sodipodi="http://sodipodi.sourceforge.net/DTD/sodipodi-0.dtd"
   xmlns:inkscape="http://www.inkscape.org/namespaces/inkscape"
   version="1.1"
   width="1024"
   height="1024"
   viewBox="0 0 1024 1024"
   id="svg13"
   sodipodi:docname="pncTeam.svg"
   inkscape:version="0.92.3 (2405546, 2018-03-11)">
  <metadata
     id="metadata19">
    <rdf:RDF>
      <cc:Work
         rdf:about="">
        <dc:format>image/svg+xml</dc:format>
        <dc:type
           rdf:resource="http://purl.org/dc/dcmitype/StillImage" />
      </cc:Work>
    </rdf:RDF>
  </metadata>
  <defs
     id="defs17" />
  <sodipodi:namedview
     pagecolor="#ffffff"
     bordercolor="#666666"
     borderopacity="1"
     objecttolerance="10"
     gridtolerance="10"
     guidetolerance="10"
     inkscape:pageopacity="0"
     inkscape:pageshadow="2"
     inkscape:window-width="1920"
     inkscape:window-height="1116"
     id="namedview15"
     showgrid="false"
     inkscape:zoom="0.23046875"
     inkscape:cx="512"
     inkscape:cy="512"
     inkscape:window-x="-8"
     inkscape:window-y="-8"
     inkscape:window-maximized="1"
     inkscape:current-layer="svg13" />
  <title
     id="title2" />
  <g
     id="icomoon-ignore" />
  <path
     fill="#fff"
     d="M730.453 394.581c9.557 0 19.115 1.365 25.941 5.461 16.384 5.461 20.48 20.48 20.48 20.48v0c9.557 15.019 2.731 35.499 2.731 35.499v0 0c1.365 1.365 1.365 4.096-1.365 12.288 0 0-1.365 9.557-5.461 13.653v0c-2.731 6.827-5.461 12.288-9.557 19.115v0l1.365 9.557c0 0 0 1.365 0 1.365v1.365c1.365 2.731 6.827 8.192 19.115 12.288 0 0 5.461 2.731 13.653 5.461 8.192 4.096 19.115 10.923 28.672 17.749v0c0 0 16.384 12.288 15.019 45.056 0 2.731 0 5.461 0 6.827 0 2.731-1.365 4.096-5.461 6.827 0 0-43.691 16.384-101.035 16.384 0 0 0 0 0 0s-1.365 0-1.365 0c0 0 0 0 0 0-1.365 0-1.365 0-2.731 0s-1.365 0-2.731 0c-19.115 0-36.864-1.365-51.883-4.096 1.365-47.787-21.845-68.267-27.307-73.728-1.365-1.365-2.731-2.731-4.096-4.096 6.827-4.096 13.653-8.192 19.115-10.923 8.192-4.096 13.653-5.461 13.653-6.827 13.653-4.096 17.749-9.557 19.115-12.288v-1.365c0-1.365 0-1.365 0-1.365l1.365-9.557c-4.096-5.461-8.192-12.288-10.923-17.749v0c-4.096-4.096-5.461-13.653-5.461-13.653-2.731-8.192-1.365-10.923-1.365-12.288v0 0c0-1.365-6.827-20.48 1.365-35.499v0c0 0 2.731-13.653 19.115-20.48 5.461-4.096 16.384-5.461 25.941-5.461h4.096c-1.365 0-1.365 0 0 0zM730.453 374.101v0 0 0h-2.731c-6.827 0-21.845 1.365-34.133 8.192-17.749 8.192-27.307 21.845-30.037 31.403-8.192 16.384-6.827 34.133-4.096 43.691-1.365 5.461 0 12.288 2.731 19.115 1.365 6.827 4.096 13.653 8.192 17.749 1.365 4.096 4.096 8.192 5.461 12.288-1.365 1.365-4.096 1.365-6.827 2.731h-1.365c-4.096 1.365-9.557 4.096-13.653 6.827-5.461 2.731-13.653 6.827-21.845 12.288l-21.845 16.384 21.845 17.749c1.365 1.365 2.731 2.731 4.096 2.731 4.096 2.731 20.48 19.115 19.115 55.979v17.749l17.749 2.731c17.749 2.731 36.864 4.096 54.613 4.096h6.827c55.979 0 98.304-13.653 107.861-17.749v0c16.384-5.461 20.48-17.749 20.48-24.576 0-2.731 0-5.461 0-8.192 1.365-38.229-17.749-57.344-23.211-61.44-8.192-6.827-19.115-13.653-32.768-20.48-5.461-2.731-9.557-4.096-15.019-6.827v0h-1.365c-2.731-1.365-5.461-1.365-6.827-2.731 2.731-4.096 4.096-8.192 5.461-12.288 4.096-5.461 6.827-12.288 8.192-17.749 2.731-6.827 2.731-13.653 2.731-19.115 1.365-9.557 4.096-27.307-4.096-43.691-2.731-9.557-12.288-23.211-30.037-31.403-15.019-5.461-30.037-5.461-35.499-5.461v0z"
     id="path7"
     style="fill:#000000;fill-opacity:1" />
  <path
     fill="#fff"
     d="M294.912 397.312c9.557 0 19.115 1.365 24.576 5.461 16.384 5.461 20.48 20.48 20.48 20.48v0c9.557 15.019 2.731 35.499 2.731 35.499v0 0c1.365 1.365 1.365 4.096-1.365 12.288 0 0-1.365 9.557-5.461 13.653v0c-2.731 6.827-5.461 12.288-9.557 19.115v0l1.365 9.557c0 0 0 1.365 0 1.365v1.365c1.365 2.731 6.827 8.192 19.115 12.288 0 0 5.461 2.731 13.653 5.461 5.461 2.731 12.288 6.827 19.115 10.923-1.365 1.365-2.731 2.731-4.096 4.096v0c-5.461 4.096-27.307 25.941-25.941 73.728-15.019 2.731-34.133 4.096-53.248 4.096 0 0 0 0 0 0s-1.365 0-1.365 0c0 0 0 0 0 0-1.365 0-1.365 0-2.731 0s-1.365 0-2.731 0c-55.979 0-98.304-15.019-99.669-15.019-5.461-1.365-5.461-4.096-5.461-6.827s0-5.461 0-6.827c-1.365-32.768 15.019-45.056 15.019-45.056 8.192-8.192 19.115-13.653 27.307-17.749s13.653-5.461 13.653-6.827c13.653-4.096 17.749-9.557 19.115-12.288v-1.365c0-1.365 0-1.365 0-1.365l1.365-9.557c-4.096-5.461-8.192-12.288-10.923-17.749v0c-4.096-4.096-5.461-13.653-5.461-13.653-2.731-8.192-1.365-10.923-1.365-12.288v0 0c0-1.365-6.827-20.48 1.365-35.499v0c0 0 2.731-13.653 19.115-20.48 5.461-4.096 16.384-5.461 25.941-5.461l5.461-1.365c0 0 0 0 0 0zM294.912 376.832v0 0 0h-2.731c-6.827 0-21.845 1.365-34.133 8.192-19.115 8.192-27.307 23.211-30.037 31.403-8.192 16.384-6.827 34.133-4.096 43.691-1.365 5.461 0 12.288 2.731 19.115 1.365 6.827 4.096 13.653 8.192 17.749 1.365 4.096 4.096 8.192 5.461 12.288-1.365 1.365-4.096 1.365-6.827 2.731h-1.365c-5.461 2.731-10.923 5.461-13.653 6.827-12.288 6.827-23.211 13.653-31.403 20.48-5.461 4.096-23.211 23.211-21.845 61.44 0 2.731 0 5.461 0 8.192 0 6.827 4.096 19.115 20.48 24.576 4.096 1.365 49.152 16.384 105.131 16.384h6.827c19.115 0 38.229-1.365 57.344-5.461l17.749-2.731-1.365-17.749c-1.365-38.229 16.384-54.613 17.749-55.979s2.731-2.731 4.096-4.096l20.48-17.749-21.845-15.019c-8.192-5.461-16.384-9.557-21.845-12.288-4.096-2.731-8.192-4.096-13.653-5.461v0l-1.365-2.731c-2.731-1.365-5.461-1.365-6.827-2.731 2.731-4.096 4.096-8.192 5.461-12.288 4.096-5.461 6.827-13.653 8.192-17.749 2.731-6.827 2.731-13.653 2.731-19.115 1.365-9.557 4.096-27.307-4.096-43.691-2.731-9.557-12.288-23.211-30.037-31.403-13.653-5.461-28.672-6.827-35.499-6.827v0z"
     id="path9"
     style="fill:#000000;fill-opacity:1" />
  <path
     fill="#fff"
     d="M512 363.179c12.288 0 24.576 2.731 32.768 6.827 20.48 8.192 25.941 25.941 25.941 25.941v0c12.288 19.115 4.096 45.056 2.731 46.421v2.731c1.365 1.365 2.731 5.461-1.365 16.384 0 0-2.731 12.288-6.827 17.749v0c-2.731 8.192-6.827 16.384-13.653 23.211v0l2.731 10.923c0 1.365 0 1.365 0 2.731l1.365 2.731c2.731 4.096 8.192 9.557 24.576 16.384 0 0 6.827 2.731 17.749 8.192s24.576 13.653 35.499 23.211v0c0 0 21.845 16.384 19.115 57.344 0 2.731 0 6.827 0 9.557s-1.365 5.461-6.827 8.192c0 0-55.979 20.48-131.072 20.48 0 0 0 0 0 0s-1.365 0-1.365 0c0 0 0 0 0 0-1.365 0-1.365 0-2.731 0s-2.731 0-2.731 0c-72.363 0-126.976-19.115-126.976-19.115-6.827-1.365-8.192-4.096-8.192-8.192 0-2.731 0-6.827-1.365-9.557-2.731-42.325 19.115-57.344 19.115-58.709 10.923-9.557 24.576-17.749 35.499-23.211 9.557-5.461 17.749-8.192 17.749-8.192 16.384-5.461 23.211-12.288 24.576-16.384l1.365-2.731c0-1.365 0-1.365 0-2.731l1.365-10.923c-5.461-6.827-10.923-15.019-13.653-23.211v0c-5.461-5.461-8.192-16.384-8.192-17.749-4.096-9.557-2.731-13.653-1.365-16.384v-2.731c0-1.365-9.557-25.941 2.731-46.421v0c0 0 4.096-17.749 24.576-25.941 8.192-5.461 20.48-6.827 32.768-6.827h4.096c0 0 0 0 0 0zM512 342.699v0h-2.731c-8.192 0-27.307 1.365-42.325 9.557-21.845 9.557-32.768 27.307-35.499 36.864-10.923 20.48-6.827 43.691-4.096 54.613-1.365 6.827 0 15.019 2.731 23.211 1.365 5.461 4.096 15.019 9.557 21.845 2.731 6.827 5.461 12.288 9.557 17.749v2.731c-1.365 1.365-5.461 4.096-13.653 6.827v0 0c-1.365 1.365-9.557 4.096-19.115 8.192-16.384 8.192-30.037 17.749-39.595 25.941-5.461 4.096-28.672 27.307-25.941 75.093 0 4.096 0 6.827 1.365 9.557 0 8.192 4.096 20.48 21.845 25.941v0c9.557 2.731 62.805 20.48 133.803 20.48h8.192c73.728 0 129.707-19.115 137.899-21.845 17.749-5.461 21.845-19.115 21.845-25.941 0-2.731 0-6.827 1.365-10.923 1.365-47.787-21.845-69.632-27.307-73.728-10.923-9.557-24.576-17.749-39.595-25.941-10.923-5.461-19.115-8.192-19.115-8.192-8.192-2.731-12.288-5.461-13.653-6.827v-2.731c4.096-5.461 6.827-12.288 9.557-19.115 5.461-6.827 8.192-16.384 9.557-21.845 2.731-9.557 4.096-16.384 2.731-23.211 2.731-10.923 5.461-34.133-5.461-54.613-2.731-9.557-13.653-27.307-35.499-36.864-19.115-6.827-38.229-6.827-46.421-6.827v0z"
     id="path11"
     style="fill:#000000;fill-opacity:1" />
</svg>
