<?xml version="1.0" encoding="UTF-8" standalone="no"?>
<!-- Generated by IcoMoon.io -->

<svg
   xmlns:dc="http://purl.org/dc/elements/1.1/"
   xmlns:cc="http://creativecommons.org/ns#"
   xmlns:rdf="http://www.w3.org/1999/02/22-rdf-syntax-ns#"
   xmlns:svg="http://www.w3.org/2000/svg"
   xmlns="http://www.w3.org/2000/svg"
   xmlns:sodipodi="http://sodipodi.sourceforge.net/DTD/sodipodi-0.dtd"
   xmlns:inkscape="http://www.inkscape.org/namespaces/inkscape"
   version="1.1"
   width="1024"
   height="1024"
   viewBox="0 0 1024 1024"
   id="svg23"
   sodipodi:docname="professionalLevel.svg"
   inkscape:version="0.92.3 (2405546, 2018-03-11)">
  <metadata
     id="metadata29">
    <rdf:RDF>
      <cc:Work
         rdf:about="">
        <dc:format>image/svg+xml</dc:format>
        <dc:type
           rdf:resource="http://purl.org/dc/dcmitype/StillImage" />
      </cc:Work>
    </rdf:RDF>
  </metadata>
  <defs
     id="defs27" />
  <sodipodi:namedview
     pagecolor="#ffffff"
     bordercolor="#666666"
     borderopacity="1"
     objecttolerance="10"
     gridtolerance="10"
     guidetolerance="10"
     inkscape:pageopacity="0"
     inkscape:pageshadow="2"
     inkscape:window-width="1582"
     inkscape:window-height="930"
     id="namedview25"
     showgrid="false"
     inkscape:zoom="0.4609375"
     inkscape:cx="69.449247"
     inkscape:cy="416.85527"
     inkscape:window-x="0"
     inkscape:window-y="40"
     inkscape:window-maximized="0"
     inkscape:current-layer="svg23" />
  <title
     id="title2" />
  <g
     id="icomoon-ignore" />
  <path
     fill="#fff"
     d="M512 313.667l4.177 57.398c17.662 2.882 32.578 12.801 42.032 26.728l0.14 0.219h92.834v3.503l-86.097 7.949c4.765 10.167 7.546 22.077 7.546 34.638 0 0.139 0 0.277-0.001 0.415v-0.021c-0.007 5.532-0.546 10.933-1.569 16.162l0.087-0.532h395.857v9.971l-136.488 7.276c3.031 3.643 4.934 8.319 5.119 13.434l0.001 0.040c-0.94 11.872-10.805 21.15-22.838 21.15s-21.898-9.278-22.833-21.070l-0.005-0.080c0.007-4.47 1.365-8.621 3.687-12.069l-0.049 0.077-56.724 2.964c0.982 2.682 1.571 5.779 1.617 9.007v0.020c0 15.478-12.547 28.025-28.025 28.025s-28.025-12.547-28.025-28.025v0c0.031-2.069 0.275-4.064 0.711-5.987l-0.037 0.193-52.547 2.695v51.2h-10.779v-21.827l-35.166-26.947-26.947 1.347c-10.691 16.235-28.836 26.803-49.448 26.803s-38.757-10.568-49.311-26.581l-0.137-0.222-27.621-0.808-35.166 26.947v21.288h-10.509v-50.796l-52.547-2.695c0.418 1.818 0.663 3.909 0.674 6.056v0.007c0 15.478-12.547 28.025-28.025 28.025s-28.025-12.547-28.025-28.025v0c0.046-3.248 0.634-6.345 1.679-9.223l-0.062 0.196-56.724-2.964c2.273 3.371 3.631 7.522 3.638 11.99v0.002c-0.94 11.872-10.805 21.15-22.838 21.15s-21.898-9.278-22.833-21.070l-0.005-0.080c0.186-5.154 2.089-9.831 5.149-13.51l-0.029 0.036-136.893-7.815v-9.971h395.992c-0.858-4.518-1.35-9.716-1.35-15.028 0-0.212 0.001-0.423 0.002-0.634v0.032c-0.001-0.117-0.001-0.256-0.001-0.394 0-12.56 2.781-24.471 7.761-35.15l-0.215 0.512-86.097-7.949v-3.503h93.373c9.595-14.146 24.511-24.065 41.81-26.898l0.362-0.049 4.177-57.398h7.545zM517.12 433.179h40.421c-4.696-18.461-20.896-32-40.355-32.605l-0.066-0.002v32.606zM459.183 433.179h40.421v-32.741c-19.542 0.559-35.766 14.12-40.358 32.31l-0.063 0.296zM619.789 512v-23.175l-28.025 1.482 28.025 21.693zM395.587 512l28.025-21.019-28.025-1.482v22.501zM512 293.457h-7.276c-0.016 0-0.035 0-0.054 0-10.64 0-19.36 8.223-20.152 18.66l-0.004 0.068-3.099 42.981c-13.058 5.031-24.086 12.81-32.798 22.681l-0.078 0.090h-83.537c-11.162 0-20.211 9.049-20.211 20.211v0 3.503c0.049 10.724 8.388 19.485 18.935 20.207l0.063 0.003 61.575 5.659c-0.674 4.177-1.078 8.354-1.347 12.531h-375.377c-11.162 0-20.211 9.049-20.211 20.211v0 9.971c0 0.009 0 0.019 0 0.029 0 10.783 8.444 19.593 19.081 20.179l0.052 0.002 112.505 6.063c2.78 21.371 20.87 37.707 42.775 37.707 20.316 0 37.35-14.052 41.914-32.966l0.060-0.294h13.474c5.213 21.595 24.369 37.388 47.214 37.388 21.018 0 38.913-13.368 45.648-32.065l0.106-0.338 13.474 0.808v32.202c0 11.162 9.049 20.211 20.211 20.211v0h10.509c11.162 0 20.211-9.049 20.211-20.211v0-11.048l21.288-16.034 11.318 0.674c14.463 16.725 35.713 27.245 59.419 27.245s44.956-10.52 59.335-27.145l0.084-0.099 11.318-0.674 21.288 16.034v11.048c0 11.162 9.049 20.211 20.211 20.211v0h10.509c0.040 0 0.087 0 0.135 0 11.162 0 20.211-9.049 20.211-20.211 0 0 0 0 0 0v0-31.528l13.474-0.808c6.841 19.035 24.737 32.403 45.754 32.403 22.845 0 42.001-15.793 47.146-37.057l0.068-0.331h13.474c4.624 19.209 21.658 33.26 41.974 33.26 21.905 0 39.995-16.336 42.752-37.49l0.023-0.217 112.505-6.063c10.688-0.588 19.133-9.399 19.133-20.182 0-0.010 0-0.020 0-0.030v0.002-9.971c0-11.162-9.049-20.211-20.211-20.211v0h-374.029c-0.152-4.556-0.587-8.877-1.292-13.106l0.079 0.576 61.44-5.659c10.379-0.995 18.434-9.658 18.459-20.208v-3.506c0-11.162-9.049-20.211-20.211-20.211v0h-83.672c-8.79-9.961-19.817-17.74-32.31-22.578l-0.566-0.193-3.099-42.981c-0.435-10.63-9.017-19.118-19.645-19.402l-0.027-0.001z"
     id="path5"
     style="fill:#000000;fill-opacity:1" />
  <path
     fill="#fff"
     d="M407.714 579.368c0.040-0.001 0.087-0.001 0.135-0.001 4.465 0 8.084 3.619 8.084 8.084 0 0 0 0.001 0 0.001v0 22.636c0 4.539-3.68 8.219-8.219 8.219s-8.219-3.68-8.219-8.219v0-5.12h-18.055v4.581c0 4.539-3.68 8.219-8.219 8.219s-8.219-3.68-8.219-8.219v0-22.636c0-4.539 3.68-8.219 8.219-8.219s8.219 3.68 8.219 8.219v0 4.581h18.055v-4.581c0.076-4.481 3.726-8.084 8.218-8.084 0 0 0.001 0 0.001 0v0zM407.714 565.356c-6.993 0.032-13.21 3.327-17.21 8.44l-0.036 0.048c-4.003-5.212-10.238-8.538-17.249-8.538-11.981 0-21.693 9.712-21.693 21.693 0 0.112 0.001 0.224 0.003 0.336v-0.017 22.636c-0.001 0.095-0.002 0.207-0.002 0.319 0 11.981 9.712 21.693 21.693 21.693 7.011 0 13.245-3.326 17.211-8.486l0.038-0.051c4.037 5.161 10.253 8.456 17.241 8.488h0.005c0 0 0 0 0 0 11.933 0 21.616-9.635 21.692-21.551v-23.451c-0.375-11.687-9.939-21.019-21.682-21.019-0.004 0-0.007 0-0.011 0h0.001z"
     id="path7"
     style="fill:#000000;fill-opacity:1" />
  <path
     fill="#fff"
     d="M642.291 579.368c0.040-0.001 0.088-0.001 0.136-0.001 4.492 0 8.143 3.604 8.218 8.078v22.643c-0.544 4.136-4.046 7.295-8.286 7.295s-7.743-3.159-8.282-7.253l-0.005-0.042v-5.12h-18.055v4.581c0 0 0 0.001 0 0.001 0 4.465-3.619 8.084-8.084 8.084-0.047 0-0.095 0-0.142-0.001h0.007c0 0-0.001 0-0.001 0-4.492 0-8.142-3.603-8.218-8.077v-22.643c0.076-4.481 3.726-8.084 8.218-8.084 0 0 0.001 0 0.001 0v0c0.040-0.001 0.087-0.001 0.135-0.001 4.465 0 8.084 3.619 8.084 8.084 0 0 0 0.001 0 0.001v0 4.581h18.055v-4.581c0.076-4.481 3.726-8.084 8.218-8.084 0 0 0.001 0 0.001 0v0zM642.291 565.356c-6.993 0.032-13.21 3.327-17.21 8.44l-0.036 0.048c-4.003-5.212-10.238-8.538-17.249-8.538-11.981 0-21.693 9.712-21.693 21.693 0 0.112 0.001 0.224 0.003 0.336v-0.017 22.636c-0.001 0.095-0.002 0.207-0.002 0.319 0 11.981 9.712 21.693 21.693 21.693 7.011 0 13.245-3.326 17.211-8.486l0.038-0.051c4.031 5.161 10.255 8.449 17.247 8.449 12.055 0 21.827-9.772 21.827-21.827 0-0.033 0-0.067 0-0.1v0.005-23.040c-0.447-11.702-10.042-21.019-21.812-21.019-0.005 0-0.011 0-0.016 0h0.001z"
     id="path9"
     style="fill:#000000;fill-opacity:1" />
  <path
     style="color:#000000;font-style:normal;font-variant:normal;font-weight:normal;font-stretch:normal;font-size:medium;line-height:normal;font-family:sans-serif;font-variant-ligatures:normal;font-variant-position:normal;font-variant-caps:normal;font-variant-numeric:normal;font-variant-alternates:normal;font-feature-settings:normal;text-indent:0;text-align:start;text-decoration:none;text-decoration-line:none;text-decoration-style:solid;text-decoration-color:#000000;letter-spacing:normal;word-spacing:normal;text-transform:none;writing-mode:lr-tb;direction:ltr;text-orientation:mixed;dominant-baseline:auto;baseline-shift:baseline;text-anchor:start;white-space:normal;shape-padding:0;clip-rule:nonzero;display:inline;overflow:visible;visibility:visible;opacity:1;isolation:auto;mix-blend-mode:normal;color-interpolation:sRGB;color-interpolation-filters:linearRGB;solid-color:#000000;solid-opacity:1;vector-effect:none;fill:#000000;fill-opacity:1;fill-rule:nonzero;stroke:none;stroke-width:20.21050072;stroke-linecap:butt;stroke-linejoin:miter;stroke-miterlimit:10;stroke-dasharray:none;stroke-dashoffset:0;stroke-opacity:1;color-rendering:auto;image-rendering:auto;shape-rendering:auto;text-rendering:auto;enable-background:accumulate"
     d="m 454.75586,576 -68.71484,135.14258 18.01367,9.16015 68.71679,-135.14062 z"
     id="path11"
     inkscape:connector-curvature="0" />
  <path
     style="color:#000000;font-style:normal;font-variant:normal;font-weight:normal;font-stretch:normal;font-size:medium;line-height:normal;font-family:sans-serif;font-variant-ligatures:normal;font-variant-position:normal;font-variant-caps:normal;font-variant-numeric:normal;font-variant-alternates:normal;font-feature-settings:normal;text-indent:0;text-align:start;text-decoration:none;text-decoration-line:none;text-decoration-style:solid;text-decoration-color:#000000;letter-spacing:normal;word-spacing:normal;text-transform:none;writing-mode:lr-tb;direction:ltr;text-orientation:mixed;dominant-baseline:auto;baseline-shift:baseline;text-anchor:start;white-space:normal;shape-padding:0;clip-rule:nonzero;display:inline;overflow:visible;visibility:visible;opacity:1;isolation:auto;mix-blend-mode:normal;color-interpolation:sRGB;color-interpolation-filters:linearRGB;solid-color:#000000;solid-opacity:1;vector-effect:none;fill:#000000;fill-opacity:1;fill-rule:nonzero;stroke:none;stroke-width:20.21050072;stroke-linecap:butt;stroke-linejoin:miter;stroke-miterlimit:10;stroke-dasharray:none;stroke-dashoffset:0;stroke-opacity:1;color-rendering:auto;image-rendering:auto;shape-rendering:auto;text-rendering:auto;enable-background:accumulate"
     d="m 557.98438,575.60742 -17.59376,9.94727 76.39454,135.14062 17.5957,-9.94531 z"
     id="path13"
     inkscape:connector-curvature="0" />
  <path
     fill="#fff"
     d="M517.928 542.989l1.752 13.474h-23.714l1.752-13.474h20.211z"
     id="path15"
     style="fill:#000000;fill-opacity:1" />
  <path
     fill="#fff"
     d="M522.779 581.524l3.099 24.926h-36.109l3.099-24.926h29.912z"
     id="path17"
     style="fill:#000000;fill-opacity:1" />
  <path
     fill="#fff"
     d="M529.112 631.377l3.099 24.926h-48.775l3.234-24.926h42.442z"
     id="path19"
     style="fill:#000000;fill-opacity:1" />
  <path
     fill="#fff"
     d="M535.309 681.364l1.752 13.474h-58.476l1.752-13.474h54.973z"
     id="path21"
     style="fill:#000000;fill-opacity:1" />
</svg>
