<?xml version="1.0" encoding="utf-8"?>
<!-- Generator: Adobe Illustrator 23.0.1, SVG Export Plug-In . SVG Version: 6.00 Build 0)  -->
<svg version="1.1" id="Calque_1" xmlns="http://www.w3.org/2000/svg" xmlns:xlink="http://www.w3.org/1999/xlink" x="0px" y="0px"
	 viewBox="0 0 58 58" style="enable-background:new 0 0 58 58;" xml:space="preserve">
<style type="text/css">
	.st0{stroke:#000000;stroke-width:0.5;stroke-miterlimit:10;}
	.st1{enable-background:new    ;}
</style>
<title>bulle-58X58</title>
<g>
	<g id="Calque_12">
		<path d="M29,2c14.9,0,27,12.1,27,27S43.9,56,29,56S2,43.9,2,29S14.1,2,29,2 M29,0C13,0,0,13,0,29s13,29,29,29s29-13,29-29
			S45,0,29,0z"/>
		<path class="st0" d="M29,44.8c-0.2,0-0.4-0.1-0.5-0.3l-3.8-6.3h-7.6c-1.2,0-2.2-1-2.2-2.2V18.1c0-1.2,1-2.2,2.2-2.2c0,0,0,0,0,0
			h23.8c1.2,0,2.2,1,2.2,2.2V36c0,1.2-1,2.2-2.2,2.2c0,0,0,0,0,0h-7.6l-3.8,6.3C29.4,44.7,29.2,44.8,29,44.8L29,44.8z M17.1,17.1
			c-0.6,0-1.1,0.5-1.1,1.1c0,0,0,0,0,0V36c0,0.6,0.5,1.1,1,1.1c0,0,0,0,0,0H25c0.2,0,0.4,0.1,0.5,0.3l3.5,5.8l3.5-5.8
			c0.1-0.2,0.3-0.3,0.5-0.3h7.9c0.6,0,1.1-0.4,1.1-1c0,0,0,0,0,0V18.1c0-0.6-0.5-1.1-1-1.1c0,0,0,0,0,0H17.1z"/>
		<g class="st1">
			<path class="st0" d="M21.8,27.6c0-0.9,0.7-1.6,1.5-1.6c0.8,0,1.5,0.7,1.5,1.6c0,0.9-0.7,1.6-1.5,1.6
				C22.5,29.2,21.8,28.5,21.8,27.6z"/>
			<path class="st0" d="M27.7,27.6c0-0.9,0.7-1.6,1.5-1.6c0.8,0,1.5,0.7,1.5,1.6c0,0.9-0.7,1.6-1.5,1.6
				C28.3,29.2,27.7,28.5,27.7,27.6z"/>
		</g>

		<g class="st1">
			<path class="st0" d="M33.4,27.6c0-0.9,0.7-1.6,1.5-1.6c0.8,0,1.5,0.7,1.5,1.6c0,0.9-0.7,1.6-1.5,1.6C34,29.2,33.4,28.5,33.4,27.6
				z"/>
		</g>
	</g>
</g>
</svg>
