<?xml version="1.0" encoding="UTF-8" standalone="no"?>
<!-- Generated by IcoMoon.io -->

<svg
   xmlns:dc="http://purl.org/dc/elements/1.1/"
   xmlns:cc="http://creativecommons.org/ns#"
   xmlns:rdf="http://www.w3.org/1999/02/22-rdf-syntax-ns#"
   xmlns:svg="http://www.w3.org/2000/svg"
   xmlns="http://www.w3.org/2000/svg"
   xmlns:sodipodi="http://sodipodi.sourceforge.net/DTD/sodipodi-0.dtd"
   xmlns:inkscape="http://www.inkscape.org/namespaces/inkscape"
   version="1.1"
   width="1024"
   height="1024"
   viewBox="0 0 1024 1024"
   id="svg19"
   sodipodi:docname="statutoryCertificate.svg"
   inkscape:version="0.92.3 (2405546, 2018-03-11)">
  <metadata
     id="metadata25">
    <rdf:RDF>
      <cc:Work
         rdf:about="">
        <dc:format>image/svg+xml</dc:format>
        <dc:type
           rdf:resource="http://purl.org/dc/dcmitype/StillImage" />
      </cc:Work>
    </rdf:RDF>
  </metadata>
  <defs
     id="defs23" />
  <sodipodi:namedview
     pagecolor="#ffffff"
     bordercolor="#666666"
     borderopacity="1"
     objecttolerance="10"
     gridtolerance="10"
     guidetolerance="10"
     inkscape:pageopacity="0"
     inkscape:pageshadow="2"
     inkscape:window-width="1920"
     inkscape:window-height="1116"
     id="namedview21"
     showgrid="false"
     inkscape:zoom="0.23046875"
     inkscape:cx="512"
     inkscape:cy="512"
     inkscape:window-x="-8"
     inkscape:window-y="-8"
     inkscape:window-maximized="1"
     inkscape:current-layer="svg19" />
  <title
     id="title2" />
  <g
     id="icomoon-ignore" />
  <path
     fill="#fff"
     d="M577.536 374.101c0 36.195-29.341 65.536-65.536 65.536s-65.536-29.341-65.536-65.536c0-36.195 29.341-65.536 65.536-65.536s65.536 29.341 65.536 65.536z"
     id="path7"
     style="fill:#000000;fill-opacity:1" />
  <path
     fill="#fff"
     d="M469.675 439.637c12.288 8.192 25.941 12.288 42.325 12.288s30.037-4.096 42.325-12.288v84.651l-42.325-35.499-42.325 35.499v-84.651z"
     id="path9"
     style="fill:#000000;fill-opacity:1" />
  <path
     fill="#fff"
     d="M393.216 572.075h238.933c6.827 0 12.288 5.461 12.288 10.923s-5.461 10.923-12.288 10.923h-238.933c-6.827 0-12.288-5.461-12.288-10.923s5.461-10.923 12.288-10.923z"
     id="path11"
     style="fill:#000000;fill-opacity:1" />
  <path
     fill="#fff"
     d="M393.216 626.688h238.933c6.827 0 12.288 5.461 12.288 10.923s-5.461 10.923-12.288 10.923h-238.933c-6.827 0-12.288-5.461-12.288-10.923s5.461-10.923 12.288-10.923z"
     id="path13"
     style="fill:#000000;fill-opacity:1" />
  <path
     fill="#fff"
     d="M393.216 679.936h238.933c6.827 0 12.288 5.461 12.288 10.923s-5.461 10.923-12.288 10.923h-238.933c-6.827 0-12.288-5.461-12.288-10.923s5.461-10.923 12.288-10.923z"
     id="path15"
     style="fill:#000000;fill-opacity:1" />
</svg>
