<?xml version="1.0" encoding="UTF-8" standalone="no"?>
<!-- Generated by IcoMoon.io -->

<svg
   xmlns:dc="http://purl.org/dc/elements/1.1/"
   xmlns:cc="http://creativecommons.org/ns#"
   xmlns:rdf="http://www.w3.org/1999/02/22-rdf-syntax-ns#"
   xmlns:svg="http://www.w3.org/2000/svg"
   xmlns="http://www.w3.org/2000/svg"
   xmlns:sodipodi="http://sodipodi.sourceforge.net/DTD/sodipodi-0.dtd"
   xmlns:inkscape="http://www.inkscape.org/namespaces/inkscape"
   version="1.1"
   width="1024"
   height="1024"
   viewBox="0 0 1024 1024"
   id="svg11"
   sodipodi:docname="summarySheet.svg"
   inkscape:version="0.92.3 (2405546, 2018-03-11)">
  <metadata
     id="metadata17">
    <rdf:RDF>
      <cc:Work
         rdf:about="">
        <dc:format>image/svg+xml</dc:format>
        <dc:type
           rdf:resource="http://purl.org/dc/dcmitype/StillImage" />
      </cc:Work>
    </rdf:RDF>
  </metadata>
  <defs
     id="defs15" />
  <sodipodi:namedview
     pagecolor="#ffffff"
     bordercolor="#666666"
     borderopacity="1"
     objecttolerance="10"
     gridtolerance="10"
     guidetolerance="10"
     inkscape:pageopacity="0"
     inkscape:pageshadow="2"
     inkscape:window-width="756"
     inkscape:window-height="480"
     id="namedview13"
     showgrid="false"
     inkscape:zoom="0.23046875"
     inkscape:cx="512"
     inkscape:cy="723.73305"
     inkscape:window-x="628"
     inkscape:window-y="241"
     inkscape:window-maximized="0"
     inkscape:current-layer="svg11" />
  <title
     id="title2" />
  <g
     id="icomoon-ignore" />
  <path
     fill="#fff"
     d="M697.685 386.389c0-2.731-1.365-4.096-2.731-5.461l-125.611-125.611c-1.365-1.365-4.096-2.731-5.461-2.731 0 0 0 0-1.365 0h-228.011c-5.461 0-9.557 4.096-9.557 9.557v501.077c0 5.461 4.096 9.557 9.557 9.557h353.621c5.461 0 9.557-4.096 9.557-9.557v-376.832c0 0 0 0 0 0zM573.44 283.989l92.843 92.843h-92.843v-92.843zM344.064 753.664v-481.963h210.261v116.053c0 5.461 4.096 9.557 9.557 9.557h116.053v356.352h-335.872z"
     id="path7"
     style="fill:#000000;fill-opacity:1" />
  <path
     fill="#fff"
     d="M512 420.523c8.192 0 17.749 1.365 23.211 5.461 15.019 5.461 17.749 17.749 17.749 17.749v0c8.192 13.653 2.731 31.403 2.731 32.768v0 0c1.365 1.365 1.365 4.096-1.365 10.923 0 0-1.365 8.192-5.461 12.288v0c-2.731 5.461-5.461 12.288-9.557 16.384v0l1.365 8.192c0 0 0 1.365 0 1.365v1.365c1.365 2.731 5.461 6.827 17.749 10.923 0 0 5.461 1.365 12.288 5.461 8.192 4.096 17.749 9.557 25.941 16.384v0c0 0 15.019 10.923 13.653 40.96 0 2.731 0 4.096 0 6.827s-1.365 4.096-5.461 5.461c0 0-39.595 15.019-92.843 15.019 0 0 0 0 0 0s-1.365 0-1.365 0c0 0 0 0 0 0s-1.365 0-1.365 0-1.365 0-2.731 0c-51.883 0-90.112-13.653-90.112-13.653-4.096-1.365-5.461-2.731-5.461-5.461s0-4.096 0-6.827c-1.365-30.037 13.653-40.96 13.653-40.96 8.192-6.827 17.749-12.288 25.941-16.384 6.827-4.096 12.288-5.461 12.288-5.461 12.288-4.096 16.384-8.192 17.749-10.923v-1.365c0 0 0-1.365 0-1.365l1.365-8.192c-4.096-5.461-6.827-10.923-9.557-16.384v0c-4.096-2.731-5.461-12.288-5.461-12.288-2.731-6.827-1.365-9.557-1.365-10.923v0 0c0-1.365-6.827-19.115 1.365-32.768v0c0 0 2.731-12.288 17.749-19.115 5.461-4.096 15.019-5.461 23.211-5.461h4.096c0 0 0 0 0 0zM512 406.869v0 0 0h-2.731c-5.461 0-19.115 1.365-28.672 6.827-15.019 6.827-21.845 19.115-24.576 25.941-8.192 13.653-5.461 30.037-2.731 38.229-1.365 4.096 0 9.557 1.365 16.384 1.365 5.461 2.731 10.923 6.827 15.019 1.365 4.096 4.096 9.557 6.827 13.653v2.731c-1.365 1.365-4.096 2.731-9.557 5.461v0 0c-1.365 0-6.827 2.731-13.653 5.461-10.923 5.461-20.48 12.288-28.672 19.115-4.096 2.731-19.115 19.115-17.749 51.883 0 2.731 0 4.096 0 6.827 0 5.461 2.731 13.653 15.019 17.749v0c6.827 2.731 45.056 13.653 94.208 13.653h8.192c51.883 0 91.477-13.653 96.939-15.019 12.288-4.096 15.019-12.288 15.019-17.749 0-2.731 0-5.461 0-6.827 1.365-34.133-15.019-49.152-19.115-51.883-6.827-6.827-16.384-12.288-28.672-17.749-6.827-4.096-12.288-5.461-13.653-5.461-6.827-2.731-9.557-4.096-10.923-5.461v0-2.731c2.731-4.096 5.461-8.192 6.827-13.653 4.096-4.096 5.461-10.923 6.827-15.019 2.731-6.827 2.731-12.288 1.365-16.384 1.365-8.192 4.096-24.576-4.096-38.229-1.365-5.461-8.192-19.115-24.576-25.941-10.923-6.827-24.576-6.827-30.037-6.827v0z"
     id="path9"
     style="fill:#000000;fill-opacity:1" />
</svg>
