<?xml version="1.0" encoding="UTF-8" standalone="no"?>
<!-- Generated by IcoMoon.io -->

<svg
   xmlns:dc="http://purl.org/dc/elements/1.1/"
   xmlns:cc="http://creativecommons.org/ns#"
   xmlns:rdf="http://www.w3.org/1999/02/22-rdf-syntax-ns#"
   xmlns:svg="http://www.w3.org/2000/svg"
   xmlns="http://www.w3.org/2000/svg"
   xmlns:sodipodi="http://sodipodi.sourceforge.net/DTD/sodipodi-0.dtd"
   xmlns:inkscape="http://www.inkscape.org/namespaces/inkscape"
   version="1.1"
   width="1024"
   height="1024"
   viewBox="0 0 1024 1024"
   id="svg9"
   sodipodi:docname="upcomingFlight.svg"
   inkscape:version="0.92.3 (2405546, 2018-03-11)">
  <metadata
     id="metadata15">
    <rdf:RDF>
      <cc:Work
         rdf:about="">
        <dc:format>image/svg+xml</dc:format>
        <dc:type
           rdf:resource="http://purl.org/dc/dcmitype/StillImage" />
      </cc:Work>
    </rdf:RDF>
  </metadata>
  <defs
     id="defs13" />
  <sodipodi:namedview
     pagecolor="#ffffff"
     bordercolor="#666666"
     borderopacity="1"
     objecttolerance="10"
     gridtolerance="10"
     guidetolerance="10"
     inkscape:pageopacity="0"
     inkscape:pageshadow="2"
     inkscape:window-width="756"
     inkscape:window-height="480"
     id="namedview11"
     showgrid="false"
     inkscape:zoom="0.23046875"
     inkscape:cx="600.03672"
     inkscape:cy="512"
     inkscape:window-x="0"
     inkscape:window-y="0"
     inkscape:window-maximized="0"
     inkscape:current-layer="svg9" />
  <title
     id="title2" />
  <g
     id="icomoon-ignore" />
  <path
     fill="#fff"
     d="M505.173 228.011c23.211 0 42.325 19.115 42.325 42.325v136.533c0 2.731 1.365 5.461 4.096 6.827l181.589 120.149c2.731 1.365 4.096 4.096 4.096 6.827v47.787c0 4.096-2.731 8.192-6.827 8.192-1.365 0-1.365 0-2.731 0l-166.571-58.709c-1.365 0-1.365 0-2.731 0-4.096 0-8.192 2.731-8.192 8.192v158.379c0 2.731 1.365 5.461 4.096 6.827l60.075 39.595c2.731 1.365 4.096 4.096 4.096 6.827v24.576c0 4.096-4.096 8.192-8.192 8.192-1.365 0-1.365 0-2.731 0l-79.189-25.941c0 0 0 0-1.365 0h-42.325c-1.365 0-1.365 0-2.731 0 0 0 0 0-1.365 0l-73.728 25.941c-1.365 0-1.365 0-2.731 0-4.096 0-8.192-2.731-8.192-8.192v-28.672c0-2.731 1.365-5.461 4.096-6.827l60.075-39.595c2.731-1.365 4.096-4.096 4.096-6.827v-150.187c0-4.096-4.096-8.192-8.192-8.192-1.365 0-1.365 0-2.731 0l-166.571 64.171c-1.365 0-1.365 0-2.731 0-4.096 0-8.192-4.096-8.192-8.192l-1.365-50.517c0-2.731 1.365-4.096 4.096-6.827l181.589-124.245c2.731-1.365 4.096-4.096 4.096-6.827v-139.264c-1.365-23.211 17.749-42.325 40.96-42.325zM505.173 207.531c-34.133 0-62.805 28.672-62.805 62.805v133.803l-176.128 120.149-2.731 2.731c-2.731 2.731-9.557 9.557-9.557 20.48l1.365 50.517c0 16.384 12.288 28.672 28.672 28.672 4.096 0 6.827-1.365 10.923-2.731l148.821-57.344v124.245l-53.248 35.499c-8.192 5.461-13.653 13.653-13.653 24.576v28.672c0 16.384 12.288 28.672 28.672 28.672 2.731 0 5.461 0 8.192-1.365h2.731l69.632-24.576c0 0 1.365 0 1.365 0h36.864l73.728 24.576c2.731 1.365 6.827 1.365 9.557 1.365 16.384 0 28.672-13.653 28.672-28.672v-24.576c0-10.923-5.461-20.48-13.653-24.576l-54.613-34.133v-133.803l150.187 51.883c2.731 1.365 6.827 1.365 10.923 1.365 15.019 0 27.307-12.288 27.307-28.672v-47.787c0-10.923-5.461-20.48-13.653-24.576l-174.763-116.053v-129.707c0-32.768-27.307-61.44-62.805-61.44v0z"
     id="path7"
     style="fill:#000000;fill-opacity:1" />
</svg>
