<?xml version="1.0" encoding="UTF-8" standalone="no"?>
<svg
   xmlns:dc="http://purl.org/dc/elements/1.1/"
   xmlns:cc="http://creativecommons.org/ns#"
   xmlns:rdf="http://www.w3.org/1999/02/22-rdf-syntax-ns#"
   xmlns:svg="http://www.w3.org/2000/svg"
   xmlns="http://www.w3.org/2000/svg"
   xmlns:sodipodi="http://sodipodi.sourceforge.net/DTD/sodipodi-0.dtd"
   xmlns:inkscape="http://www.inkscape.org/namespaces/inkscape"
   version="1.0"
   width="317pt"
   height="315.84259pt"
   viewBox="0 0 317 315.84259"
   preserveAspectRatio="xMidYMid meet"
   id="svg44"
   sodipodi:docname="customer-continuity.svg"
   inkscape:version="0.92.4 (5da689c313, 2019-01-14)">
  <defs
     id="defs48" />
  <sodipodi:namedview
     pagecolor="#ffffff"
     bordercolor="#666666"
     borderopacity="1"
     objecttolerance="10"
     gridtolerance="10"
     guidetolerance="10"
     inkscape:pageopacity="0"
     inkscape:pageshadow="2"
     inkscape:window-width="1920"
     inkscape:window-height="1147"
     id="namedview46"
     showgrid="false"
     fit-margin-top="0"
     fit-margin-left="0"
     fit-margin-right="0"
     fit-margin-bottom="0"
     inkscape:zoom="1.331467"
     inkscape:cx="188.27017"
     inkscape:cy="262.95388"
     inkscape:window-x="-8"
     inkscape:window-y="-8"
     inkscape:window-maximized="1"
     inkscape:current-layer="svg44" />
  <metadata
     id="metadata2">
Created by potrace 1.15, written by Peter Selinger 2001-2017
<rdf:RDF>
  <cc:Work
     rdf:about="">
    <dc:format>image/svg+xml</dc:format>
    <dc:type
       rdf:resource="http://purl.org/dc/dcmitype/StillImage" />
    <dc:title></dc:title>
  </cc:Work>
</rdf:RDF>
</metadata>
  <g
     transform="matrix(0.1,0,0,-0.1,-30,345.792)"
     id="g42"
     style="fill:#000000;stroke:none">
    <path
       d="m 1788,3440 c -79,-43 -122,-142 -99,-227 26,-98 97,-153 196,-153 199,0 279,239 122,364 -34,27 -48,31 -110,33 -57,3 -80,-1 -109,-17 z"
       id="path4"
       inkscape:connector-curvature="0" />
    <path
       d="m 1652,2984 c -106,-53 -142,-128 -142,-301 v -113 h 375 375 v 123 c 0,107 -3,128 -24,172 -28,60 -66,97 -126,124 -40,18 -66,21 -226,21 -174,0 -182,-1 -232,-26 z"
       id="path6"
       inkscape:connector-curvature="0" />
    <path
       d="m 1144,2700 c -89,-36 -82,-173 10,-199 48,-13 82,-3 111,31 44,52 29,134 -30,163 -36,17 -59,18 -91,5 z"
       id="path8"
       inkscape:connector-curvature="0" />
    <path
       d="m 2544,2700 c -89,-36 -82,-173 10,-199 48,-13 82,-3 111,31 44,52 29,134 -30,163 -36,17 -59,18 -91,5 z"
       id="path10"
       inkscape:connector-curvature="0" />
    <path
       d="m 855,2439 c -37,-21 -55,-53 -55,-97 0,-60 41,-102 100,-102 52,0 76,13 95,50 23,45 19,85 -12,120 -31,35 -94,49 -128,29 z"
       id="path12"
       inkscape:connector-curvature="0" />
    <path
       d="m 2821,2437 c -63,-31 -76,-123 -26,-173 35,-35 112,-34 147,1 86,86 -14,227 -121,172 z"
       id="path14"
       inkscape:connector-curvature="0" />
    <path
       d="m 1794,2121 c -114,-52 -148,-219 -64,-315 41,-46 87,-66 153,-66 67,0 102,12 141,48 81,76 87,211 13,290 -57,61 -162,80 -243,43 z"
       id="path16"
       inkscape:connector-curvature="0" />
    <path
       d="m 639,2081 c -41,-41 -41,-98 0,-143 25,-28 36,-33 76,-33 40,0 51,5 76,33 64,72 20,172 -76,172 -38,0 -52,-5 -76,-29 z"
       id="path18"
       inkscape:connector-curvature="0" />
    <path
       d="m 2983,2086 c -24,-21 -28,-32 -28,-74 0,-39 5,-56 24,-76 30,-31 71,-41 115,-26 68,22 89,111 40,169 -22,27 -32,31 -74,31 -37,0 -56,-6 -77,-24 z"
       id="path20"
       inkscape:connector-curvature="0" />
    <path
       d="m 585,1705 c -129,-70 -154,-239 -49,-337 84,-78 239,-62 301,31 66,98 45,226 -49,288 -51,35 -155,44 -203,18 z"
       id="path22"
       inkscape:connector-curvature="0" />
    <path
       d="m 3015,1706 c -145,-64 -158,-281 -21,-361 88,-51 220,-24 273,56 28,43 40,114 29,174 -8,43 -68,113 -113,132 -41,17 -129,16 -168,-1 z"
       id="path24"
       inkscape:connector-curvature="0" />
    <path
       d="m 1676,1675 c -56,-20 -107,-65 -136,-121 -22,-43 -25,-63 -29,-176 l -3,-128 h 376 376 v 123 c 0,107 -3,128 -24,172 -28,60 -66,97 -126,124 -40,18 -65,21 -220,20 -123,0 -187,-4 -214,-14 z"
       id="path26"
       inkscape:connector-curvature="0" />
    <path
       d="m 445,1246 c -60,-28 -97,-66 -124,-126 -17,-37 -21,-66 -21,-167 V 830 h 376 376 l -4,128 c -3,119 -5,131 -33,181 -16,29 -44,65 -62,78 -59,45 -96,52 -283,52 -164,1 -178,-1 -225,-23 z"
       id="path28"
       inkscape:connector-curvature="0" />
    <path
       d="m 2882,1252 c -55,-22 -110,-75 -135,-132 -16,-35 -22,-73 -25,-167 l -4,-123 148,-2 c 82,-1 165,-2 184,-4 19,-1 122,1 228,4 l 192,5 v 126 c 0,149 -13,185 -83,247 -64,57 -98,64 -293,63 -135,0 -178,-4 -212,-17 z"
       id="path30"
       inkscape:connector-curvature="0" />
    <path
       d="m 1109,715 c -56,-30 -64,-129 -14,-172 19,-17 39,-23 71,-23 83,0 128,76 92,155 -23,50 -95,69 -149,40 z"
       id="path32"
       inkscape:connector-curvature="0" />
    <path
       d="m 2534,696 c -38,-38 -44,-77 -19,-126 19,-37 43,-50 95,-50 58,0 100,42 100,100 0,52 -13,76 -50,95 -49,25 -88,19 -126,-19 z"
       id="path34"
       inkscape:connector-curvature="0" />
    <path
       d="m 1463,555 c -34,-14 -63,-59 -63,-97 0,-68 77,-120 145,-98 44,15 66,47 67,98 0,52 -16,81 -57,98 -42,17 -51,17 -92,-1 z"
       id="path36"
       inkscape:connector-curvature="0" />
    <path
       d="m 2224,561 c -64,-27 -84,-116 -39,-169 30,-36 66,-47 111,-32 75,25 99,112 47,170 -30,33 -82,46 -119,31 z"
       id="path38"
       inkscape:connector-curvature="0" />
    <path
       d="m 1831,496 c -68,-38 -66,-152 4,-184 79,-36 155,9 155,93 0,38 -5,52 -29,76 -33,32 -87,39 -130,15 z"
       id="path40"
       inkscape:connector-curvature="0" />
  </g>
</svg>
