<?xml version="1.0" encoding="UTF-8" standalone="no"?>
<svg
   xmlns:dc="http://purl.org/dc/elements/1.1/"
   xmlns:cc="http://creativecommons.org/ns#"
   xmlns:rdf="http://www.w3.org/1999/02/22-rdf-syntax-ns#"
   xmlns:svg="http://www.w3.org/2000/svg"
   xmlns="http://www.w3.org/2000/svg"
   xmlns:sodipodi="http://sodipodi.sourceforge.net/DTD/sodipodi-0.dtd"
   xmlns:inkscape="http://www.inkscape.org/namespaces/inkscape"
   id="Layer_1"
   enable-background="new 0 0 256 256"
   height="512px"
   viewBox="0 0 256 256"
   width="512px"
   class=""
   version="1.1"
   sodipodi:docname="e-score.svg"
   inkscape:version="0.92.4 (5da689c313, 2019-01-14)">
  <metadata
     id="metadata88">
    <rdf:RDF>
      <cc:Work
         rdf:about="">
        <dc:format>image/svg+xml</dc:format>
        <dc:type
           rdf:resource="http://purl.org/dc/dcmitype/StillImage" />
      </cc:Work>
    </rdf:RDF>
  </metadata>
  <defs
     id="defs86" />
  <sodipodi:namedview
     pagecolor="#ffffff"
     bordercolor="#666666"
     borderopacity="1"
     objecttolerance="10"
     gridtolerance="10"
     guidetolerance="10"
     inkscape:pageopacity="0"
     inkscape:pageshadow="2"
     inkscape:window-width="1920"
     inkscape:window-height="1147"
     id="namedview84"
     showgrid="false"
     inkscape:zoom="1.3037281"
     inkscape:cx="-29.808677"
     inkscape:cy="415.57995"
     inkscape:window-x="-8"
     inkscape:window-y="-8"
     inkscape:window-maximized="1"
     inkscape:current-layer="g78" />
  <g
     id="g81">
    <g
       id="Layer_14">
      <g
         id="g78">
        <circle
           cx="37.420219"
           cy="74.863182"
           r="33.224663"
           data-original="#FC657E"
           class=""
           id="circle2"
           style="fill:#fda0ae;stroke-width:1.16170156;fill-opacity:1" />
        <circle
           cx="51.941475"
           cy="67.428284"
           r="6.1570177"
           data-original="#EDF4FC"
           id="circle4"
           style="fill:#000000;stroke-width:1.16170156;fill-opacity:1" />
        <circle
           cx="22.898933"
           cy="68.009125"
           r="6.1570177"
           data-original="#EDF4FC"
           id="circle6"
           style="fill:#000000;stroke-width:1.16170156;fill-opacity:1" />
        <circle
           cx="128.1292"
           cy="36.759346"
           r="33.224663"
           data-original="#70D6F9"
           class="active-path"
           style="fill:#ffd59c;stroke-width:1.16170156;fill-opacity:1"
           data-old_color="#70d6f9"
           id="circle8" />
        <circle
           cx="142.65044"
           cy="29.324467"
           r="6.1570177"
           data-original="#EDF4FC"
           id="circle10"
           style="fill:#000000;stroke-width:1.16170156;fill-opacity:1" />
        <circle
           cx="113.60792"
           cy="29.905315"
           r="6.1570177"
           data-original="#EDF4FC"
           id="circle12"
           style="fill:#000000;stroke-width:1.16170156;fill-opacity:1" />
        <circle
           cx="218.83815"
           cy="74.863182"
           r="33.224663"
           data-original="#F5C84C"
           id="circle14"
           style="fill:#d2ff79;fill-opacity:1;stroke-width:1.16170156" />
        <circle
           cx="233.35944"
           cy="67.428284"
           r="6.1570177"
           data-original="#EDF4FC"
           id="circle16"
           style="fill:#000000;stroke-width:1.16170156;fill-opacity:1" />
        <circle
           cx="204.31689"
           cy="68.009125"
           r="6.1570177"
           data-original="#EDF4FC"
           id="circle18"
           style="fill:#000000;stroke-width:1.16170156;fill-opacity:1" />
        <path
           d="m184.7 200.4c-.3-4.9-3.7-9-8.4-10.2l-22-5.5-13.2-6.5-4.5 12.8c-.3.7-1 1.2-1.8 1.2h-13.7c-.8 0-1.5-.5-1.8-1.2l-4.5-12.8-13.2 6.5-22 5.5c-4.7 1.2-8.2 5.3-8.4 10.2l-2.7 48.5c-.1 2.4 1.7 4.5 4.2 4.7h.2 110.1c2.4 0 4.4-2 4.4-4.4 0-.1 0-.2 0-.2z"
           fill="#edf4fc"
           data-original="#EDF4FC"
           id="path32"
           style="fill:#14438b;fill-opacity:1" />
        <g
           fill="#f9d0b4"
           id="g42">
          <path
             d="m157.7 120.8c-.6 0-1.2 0-1.8.1v21.4c0 .6 0 1.3-.1 1.9 6.4 1 12.5-3.3 13.6-9.8 1-6.4-3.3-12.5-9.8-13.6-.6 0-1.3 0-1.9 0z"
             data-original="#F9D0B4"
             id="path34" />
          <path
             d="m99.3 142.3v-21.4c-6.4-1-12.5 3.3-13.6 9.8-1 6.4 3.3 12.5 9.8 13.6 1.3.2 2.6.2 3.9 0-.1-.7-.1-1.3-.1-2z"
             data-original="#F9D0B4"
             id="path36" />
          <path
             d="m131.8 108c-10.3 13-25.6 11.2-30.7 10.1-.8-.2-1.6.3-1.8 1.2v.3 22.8c0 15.6 12.7 28.3 28.3 28.3 15.6 0 28.3-12.7 28.3-28.3v-25.2c0-.1 0-.3 0-.4 0-.8-.7-1.5-1.5-1.5-11.8-.3-18-5-20.3-7.3-.6-.6-1.6-.6-2.2 0 0-.1 0 0-.1 0z"
             data-original="#F9D0B4"
             id="path38" />
          <path
             d="m127.6 170.7c-4.4 0-8.7-1-12.6-3v10.5l4.5 12.8c.3.7 1 1.2 1.8 1.2h13.7c.8 0 1.5-.5 1.8-1.2l4.5-12.8v-10.9c-4.4 2.2-9 3.4-13.7 3.4z"
             data-original="#F9D0B4"
             id="path40" />
        </g>
        <path
           d="m97.5 120.8c.6 0 1.2 0 1.8.1v-1.4c0-.8.7-1.5 1.5-1.5h.3c5.1 1.1 20.4 2.9 30.7-10.1.5-.7 1.5-.8 2.1-.3 0 0 .1.1.1.1 2.4 2.3 8.6 7 20.3 7.3.8 0 1.4.7 1.5 1.5v.4 3.8c3.7-.6 7.4.6 10 3.2v-21.3c0-8.9-7.2-16.1-16.2-16.2-2.9 0-5.8.8-8.3 2.3-2.9-4.9-8.2-7.9-13.9-7.9h-8.3c-16.1 0-29.2 13.1-29.2 29.2v13.1c2.3-1.4 4.9-2.3 7.6-2.3z"
           fill="#5b5d60"
           data-original="#5B5D60"
           class=""
           id="path44"
           style="fill:#000000;fill-opacity:1" />
        <path
           d="m189.9 248.7-2.7-48.5c-.3-6-4.5-11.1-10.3-12.5l-21.7-5.5-11.6-5.7v-7.9c7.8-4.8 13.2-12.7 14.5-21.8 7.9-.2 14.1-6.7 14-14.6-.1-3.4-1.4-6.7-3.6-9.2v-20.3c0-10.3-8.4-18.7-18.7-18.7-2.6 0-5.1.5-7.5 1.6-3.5-4.5-8.9-7.2-14.7-7.2h-8.3c-17.5 0-31.7 14.2-31.7 31.7v12c-5.7 5.4-5.9 14.5-.5 20.2 2.6 2.8 6.2 4.4 10 4.4 1.4 9.4 7.1 17.6 15.3 22.3v7.4l-11.6 5.7-21.7 5.5c-5.8 1.4-10 6.5-10.3 12.5l-2.7 48.5c-.2 3.8 2.7 7.1 6.5 7.3h.4 110c3.8 0 6.9-3.1 6.9-6.9 0 0 0-.2 0-.3zm-31.5-106.8v-18.6c5.1.4 9 4.8 8.6 10-.3 4.6-4 8.2-8.6 8.6zm-65.8-22.8v-8.8c0-14.7 12-26.7 26.7-26.7h8.3c4.8 0 9.3 2.6 11.7 6.7.7 1.2 2.2 1.6 3.4.9 6.4-3.9 14.8-1.8 18.7 4.6 1.3 2.1 2 4.6 1.9 7.1v16.6c-1.6-.7-3.3-1.1-5-1.2v-1.6c0-2.1-1.7-3.9-3.9-3.9-11.1-.3-16.7-4.7-18.7-6.6-1.6-1.6-4.1-1.5-5.7.1-.1.1-.2.2-.3.3-9.3 11.7-22.9 10.3-28.2 9.2-2-.4-4 .7-4.6 2.6-1.4-.1-2.9.2-4.3.7zm-4.4 13.5c0-4.9 3.8-8.9 8.6-9.3v18.6c-4.9-.4-8.6-4.4-8.6-9.3zm13.6 9.7v-21.6c5.9 1 20.8 2 31.3-10.4 3.2 2.8 9.5 6.8 20.3 7.3v24.7c0 9.4-5.2 18.1-13.4 22.6h-.1c-7.4 4-16.3 4.2-23.8.4h-.1c-8.7-4.3-14.2-13.2-14.2-23zm36.7 28.8v6.6l-4.2 12h-12.7l-4.2-12v-6.3c6.9 2.4 14.4 2.3 21.1-.3zm-67.4 77.9 2.7-48.5c.2-3.8 2.9-7 6.5-7.9l22-5.5c.2 0 .3-.1.5-.2l10.7-5.3 3.5 10.1c.6 1.8 2.3 2.9 4.1 2.9h13.7c1.9 0 3.5-1.2 4.1-2.9l3.5-10.1 10.7 5.3c.2.1.3.1.5.2l22 5.5c3.7.9 6.3 4.1 6.5 7.9l2.7 48.5c.1 1.1-.7 2-1.8 2h-.1-19.4v-24.5c0-1.4-1.1-2.5-2.5-2.5s-2.5 1.1-2.5 2.5v24.5h-62v-24.5c0-1.4-1.1-2.5-2.5-2.5s-2.5 1.1-2.5 2.5v24.5h-18.5c-1.1 0-1.9-.9-1.9-1.9z"
           data-original="#000000"
           class=""
           id="path46" />
        <path
           d="m 128.12918,0.6304361 c -19.98126,0 -36.128916,16.1476499 -36.128916,36.1289149 0,19.981266 16.147656,36.128915 36.128916,36.128915 19.98126,0 36.12892,-16.147649 36.12892,-36.128915 0,-19.981265 -16.14766,-36.1289149 -36.12892,-36.1289149 z m 0,66.4493249 c -16.7285,0 -30.320398,-13.591907 -30.320398,-30.32041 0,-16.7285 13.591898,-30.3204072 30.320398,-30.3204072 16.7285,0 30.32042,13.5919072 30.32042,30.3204072 0,16.728503 -13.59192,30.32041 -30.32042,30.32041 z"
           data-original="#000000"
           class=""
           id="path54"
           inkscape:connector-curvature="0"
           style="stroke-width:1.16170156" />
        <path
           d="m 73.549109,74.863159 c 0,-19.981264 -16.14765,-36.128915 -36.12892,-36.128915 -19.98125,0 -36.1288997,16.147651 -36.1288997,36.128915 0,19.981265 16.1476497,36.128911 36.1288997,36.128911 19.86512,0 36.01275,-16.147646 36.12892,-36.128911 z m -66.4493197,0 c 0,-16.728502 13.5919097,-30.320407 30.3203997,-30.320407 16.72851,0 30.32042,13.591905 30.32042,30.320407 0,16.728501 -13.59191,30.320411 -30.32042,30.320411 -16.72849,0 -30.3203997,-13.59191 -30.3203997,-30.320411 z"
           data-original="#000000"
           class=""
           id="path56"
           inkscape:connector-curvature="0"
           style="stroke-width:1.16170156" />
        <path
           d="m 182.70924,74.863159 c 0,19.981265 16.26382,36.128911 36.12892,36.128911 19.86509,0 36.12891,-16.147646 36.12891,-36.128911 0,-19.981264 -16.14765,-36.128915 -36.12891,-36.128915 -19.8651,0.116171 -36.01275,16.263819 -36.12892,36.128915 z m 36.12892,-30.320407 c 16.7285,0 30.3204,13.591905 30.3204,30.320407 0,16.728501 -13.5919,30.320411 -30.3204,30.320411 -16.7285,0 -30.32041,-13.59191 -30.32041,-30.320411 0.11617,-16.728502 13.59191,-30.320407 30.32041,-30.320407 z"
           data-original="#000000"
           class=""
           id="path58"
           inkscape:connector-curvature="0"
           style="stroke-width:1.16170156" />
        <path
           d="m 147.18107,45.66708 h -38.10379 c -1.62638,0 -2.90425,1.277873 -2.90425,2.904254 0,1.626383 1.27787,2.904252 2.90425,2.904252 h 38.10379 c 1.62639,0 2.90426,-1.277869 2.90426,-2.904252 0,-1.626381 -1.27787,-2.904254 -2.90426,-2.904254 z"
           data-original="#000000"
           class=""
           id="path64"
           inkscape:connector-curvature="0"
           style="stroke-width:1.16170156" />
        <path
           d="m 51.592939,93.218042 c 1.04555,1.1617 2.90427,1.394042 4.06598,0.34851 1.1617,-1.045531 1.39403,-2.788082 0.3485,-4.065955 -8.71276,-10.222973 -24.04723,-11.500843 -34.27018,-2.904254 -1.04554,0.929361 -1.97489,1.858723 -2.90426,2.904254 -1.04553,1.161701 -0.92937,3.020424 0.23234,4.065955 1.16169,1.045532 3.02042,0.929362 4.06595,-0.232339 0,0 0,0 0.11618,-0.116171 6.6217,-7.7834 18.35487,-8.828932 26.13828,-2.207234 0.81319,0.580852 1.51022,1.394043 2.20721,2.207234 z"
           data-original="#000000"
           class=""
           id="path70"
           inkscape:connector-curvature="0"
           style="stroke-width:1.16170156" />
        <path
           d="m 204.35101,84.410048 c -1.04555,-1.1617 -2.90427,-1.394043 -4.06598,-0.34851 -1.16171,1.045531 -1.39403,2.788082 -0.34851,4.065955 8.71276,10.222973 24.04723,11.500843 34.27018,2.904254 1.04554,-0.929361 1.97489,-1.858723 2.90426,-2.904254 1.04553,-1.161701 0.92937,-3.020424 -0.23234,-4.065955 -1.16169,-1.045532 -3.02042,-0.929362 -4.06595,0.232339 0,0 0,0 -0.11618,0.116171 -6.6217,7.7834 -18.35486,8.828932 -26.13827,2.207234 -0.81319,-0.580852 -1.51022,-1.394043 -2.20721,-2.207234 z"
           data-original="#000000"
           class=""
           id="path70-6"
           inkscape:connector-curvature="0"
           style="stroke-width:1.16170156" />
      </g>
    </g>
  </g>
</svg>
