<?xml version="1.0" encoding="UTF-8" standalone="no"?>
<!-- Generator: Adobe Illustrator 18.0.0, SVG Export Plug-In . SVG Version: 6.00 Build 0)  -->

<svg
   xmlns:dc="http://purl.org/dc/elements/1.1/"
   xmlns:cc="http://creativecommons.org/ns#"
   xmlns:rdf="http://www.w3.org/1999/02/22-rdf-syntax-ns#"
   xmlns:svg="http://www.w3.org/2000/svg"
   xmlns="http://www.w3.org/2000/svg"
   xmlns:sodipodi="http://sodipodi.sourceforge.net/DTD/sodipodi-0.dtd"
   xmlns:inkscape="http://www.inkscape.org/namespaces/inkscape"
   version="1.1"
   id="Capa_1"
   x="0px"
   y="0px"
   viewBox="0 0 60 59.900509"
   xml:space="preserve"
   sodipodi:docname="erc.svg"
   width="60"
   height="59.900509"
   inkscape:version="0.92.4 (5da689c313, 2019-01-14)"><metadata
   id="metadata43"><rdf:RDF><cc:Work
       rdf:about=""><dc:format>image/svg+xml</dc:format><dc:type
         rdf:resource="http://purl.org/dc/dcmitype/StillImage" /><dc:title></dc:title></cc:Work></rdf:RDF></metadata><defs
   id="defs41" /><sodipodi:namedview
   pagecolor="#ffffff"
   bordercolor="#666666"
   borderopacity="1"
   objecttolerance="10"
   gridtolerance="10"
   guidetolerance="10"
   inkscape:pageopacity="0"
   inkscape:pageshadow="2"
   inkscape:window-width="1920"
   inkscape:window-height="1147"
   id="namedview39"
   showgrid="false"
   fit-margin-top="0"
   fit-margin-left="0"
   fit-margin-right="0"
   fit-margin-bottom="0"
   inkscape:zoom="3.9333333"
   inkscape:cx="-62.79661"
   inkscape:cy="27.535001"
   inkscape:window-x="-8"
   inkscape:window-y="-8"
   inkscape:window-maximized="1"
   inkscape:current-layer="Capa_1" />
<g
   id="g6"
   transform="matrix(1,0,0,1.0877158,0,-2.6812194)"
   style="fill:#333333;fill-opacity:1">
	<path
   d="M 40.068,13.465 5.93,13.535 c -3.27,0 -5.93,2.66 -5.93,5.93 v 21.141 c 0,3.27 2.66,5.929 5.93,5.929 H 12 v 10 c 0,0.413 0.254,0.784 0.64,0.933 0.117,0.045 0.239,0.067 0.36,0.067 0.276,0 0.547,-0.115 0.74,-0.327 L 23.444,46.533 40.07,46.465 c 3.27,0 5.93,-2.66 5.93,-5.929 V 19.395 c 0,-3.27 -2.66,-5.93 -5.932,-5.93 z M 10,23.465 h 13 c 0.553,0 1,0.448 1,1 0,0.552 -0.447,1 -1,1 H 10 c -0.553,0 -1,-0.448 -1,-1 0,-0.552 0.447,-1 1,-1 z m 26,14 H 10 c -0.553,0 -1,-0.448 -1,-1 0,-0.552 0.447,-1 1,-1 h 26 c 0.553,0 1,0.448 1,1 0,0.552 -0.447,1 -1,1 z m 0,-6 H 10 c -0.553,0 -1,-0.448 -1,-1 0,-0.552 0.447,-1 1,-1 h 26 c 0.553,0 1,0.448 1,1 0,0.552 -0.447,1 -1,1 z"
   id="path2"
   inkscape:connector-curvature="0"
   style="fill:#333333;fill-opacity:1" />
	<path
   d="M 54.072,2.535 19.93,2.465 c -3.27,0 -5.93,2.66 -5.93,5.93 v 3.124 l 26.064,-0.054 c 4.377,0 7.936,3.557 7.936,7.93 v 21.07 0.071 2.087 l 3.26,3.586 c 0.193,0.212 0.464,0.327 0.74,0.327 0.121,0 0.243,-0.022 0.36,-0.067 C 52.746,46.32 53,45.949 53,45.536 v -10 h 1.07 c 3.27,0 5.93,-2.66 5.93,-5.929 V 8.465 c 0,-3.27 -2.66,-5.93 -5.928,-5.93 z"
   id="path4"
   inkscape:connector-curvature="0"
   style="fill:#333333;fill-opacity:1" />
</g>
<g
   id="g8"
   transform="translate(0,2.3655085)">
</g>
<g
   id="g10"
   transform="translate(0,2.3655085)">
</g>
<g
   id="g12"
   transform="translate(0,2.3655085)">
</g>
<g
   id="g14"
   transform="translate(0,2.3655085)">
</g>
<g
   id="g16"
   transform="translate(0,2.3655085)">
</g>
<g
   id="g18"
   transform="translate(0,2.3655085)">
</g>
<g
   id="g20"
   transform="translate(0,2.3655085)">
</g>
<g
   id="g22"
   transform="translate(0,2.3655085)">
</g>
<g
   id="g24"
   transform="translate(0,2.3655085)">
</g>
<g
   id="g26"
   transform="translate(0,2.3655085)">
</g>
<g
   id="g28"
   transform="translate(0,2.3655085)">
</g>
<g
   id="g30"
   transform="translate(0,2.3655085)">
</g>
<g
   id="g32"
   transform="translate(0,2.3655085)">
</g>
<g
   id="g34"
   transform="translate(0,2.3655085)">
</g>
<g
   id="g36"
   transform="translate(0,2.3655085)">
</g>
</svg>