<?xml version="1.0" encoding="UTF-8" standalone="no"?>
<svg
   xmlns:dc="http://purl.org/dc/elements/1.1/"
   xmlns:cc="http://creativecommons.org/ns#"
   xmlns:rdf="http://www.w3.org/1999/02/22-rdf-syntax-ns#"
   xmlns:svg="http://www.w3.org/2000/svg"
   xmlns="http://www.w3.org/2000/svg"
   xmlns:sodipodi="http://sodipodi.sourceforge.net/DTD/sodipodi-0.dtd"
   xmlns:inkscape="http://www.inkscape.org/namespaces/inkscape"
   version="1.1"
   id="Capa_1"
   x="0px"
   y="0px"
   viewBox="0 0 464 464"
   style="enable-background:new 0 0 464 464;"
   xml:space="preserve"
   width="512px"
   height="512px"
   class=""
   sodipodi:docname="fb-erc.svg"
   inkscape:version="0.92.4 (5da689c313, 2019-01-14)"><metadata
   id="metadata75"><rdf:RDF><cc:Work
       rdf:about=""><dc:format>image/svg+xml</dc:format><dc:type
         rdf:resource="http://purl.org/dc/dcmitype/StillImage" /></cc:Work></rdf:RDF></metadata><defs
   id="defs73" /><sodipodi:namedview
   pagecolor="#ffffff"
   bordercolor="#666666"
   borderopacity="1"
   objecttolerance="10"
   gridtolerance="10"
   guidetolerance="10"
   inkscape:pageopacity="0"
   inkscape:pageshadow="2"
   inkscape:window-width="1920"
   inkscape:window-height="1147"
   id="namedview71"
   showgrid="false"
   inkscape:zoom="0.921875"
   inkscape:cx="171.30378"
   inkscape:cy="308.71081"
   inkscape:window-x="-8"
   inkscape:window-y="-8"
   inkscape:window-maximized="1"
   inkscape:current-layer="g66" /><g
   id="g68"><path
     style="fill:#D8D8D8"
     d="M64,464h368c17.672,0,32-14.328,32-32V64H64V464z"
     data-original="#E68F39"
     class=""
     data-old_color="#E68F39"
     id="path2" /><path
     style="fill:#D6457C"
     d="M272,200v-48c0-17.672-14.328-32-32-32H64H0l32,40v40c0,17.672,14.328,32,32,32h176  C257.672,232,272,217.672,272,200z M240,160h-40H240z M184,160h-40H184z M128,160H64H128z M64,192h40H64z M240,192H120H240z"
     data-original="#FFC931"
     class=""
     data-old_color="#FFC931"
     id="path4" /><path
     style="fill:#5689F2"
     d="M272,376v-48c0-17.672-14.328-32-32-32H64H0l32,40v40c0,17.672,14.328,32,32,32h176  C257.672,408,272,393.672,272,376z M240,336h-40H240z M184,336H64H184z M64,368h40H64z M120,368h40H120z M240,368h-64H240z"
     data-original="#4BDDDD"
     class="active-path"
     data-old_color="#4BDDDD"
     id="path6" /><rect
     x="64"
     style="fill:#14438B"
     width="400"
     height="64"
     data-original="#5086F2"
     class=""
     data-old_color="#5086F2"
     id="rect8" /><rect
     x="264"
     style="fill:#14438B"
     width="200"
     height="64"
     data-original="#3A66D6"
     class=""
     data-old_color="#3A66D6"
     id="rect10" /><path
     style="fill:#D8D8D8"
     d="M264,464h168c17.672,0,32-14.328,32-32V64H264V464z"
     data-original="#D45F2C"
     class=""
     data-old_color="#D45F2C"
     id="path12" /><path
     style="fill:#D6457C"
     d="M240,120h-96v112h96c17.672,0,32-14.328,32-32v-48C272,134.328,257.672,120,240,120z"
     data-original="#E6B52C"
     class=""
     data-old_color="#E6B52C"
     id="path14" /><path
     style="fill:#5689F2"
     d="M240,296h-96v112h96c17.672,0,32-14.328,32-32v-48C272,310.328,257.672,296,240,296z"
     data-original="#42C2C2"
     class=""
     data-old_color="#42C2C2"
     id="path16" /><g
     id="g66">
	
	
	
	
	<rect
   x="312"
   y="112"
   style="fill:#2C2F47"
   width="128"
   height="16"
   data-original="#2C2F47"
   class=""
   data-old_color="#2C2F47"
   id="rect26" />
	<rect
   x="376"
   y="144"
   style="fill:#2C2F47"
   width="64"
   height="16"
   data-original="#2C2F47"
   class=""
   data-old_color="#2C2F47"
   id="rect28" />
	<rect
   x="376"
   y="176"
   style="fill:#2C2F47"
   width="64"
   height="16"
   data-original="#2C2F47"
   class=""
   data-old_color="#2C2F47"
   id="rect30" />
	<rect
   x="376"
   y="208"
   style="fill:#2C2F47"
   width="64"
   height="16"
   data-original="#2C2F47"
   class=""
   data-old_color="#2C2F47"
   id="rect32" />
	<rect
   x="312"
   y="240"
   style="fill:#2C2F47"
   width="128"
   height="16"
   data-original="#2C2F47"
   class=""
   data-old_color="#2C2F47"
   id="rect34" />
	<rect
   x="312"
   y="368"
   style="fill:#2C2F47"
   width="128"
   height="16"
   data-original="#2C2F47"
   class=""
   data-old_color="#2C2F47"
   id="rect36" />
	<rect
   x="376"
   y="272"
   style="fill:#2C2F47"
   width="64"
   height="16"
   data-original="#2C2F47"
   class=""
   data-old_color="#2C2F47"
   id="rect38" />
	<rect
   x="376"
   y="304"
   style="fill:#2C2F47"
   width="64"
   height="16"
   data-original="#2C2F47"
   class=""
   data-old_color="#2C2F47"
   id="rect40" />
	<rect
   x="376"
   y="336"
   style="fill:#2C2F47"
   width="64"
   height="16"
   data-original="#2C2F47"
   class=""
   data-old_color="#2C2F47"
   id="rect42" />
	<rect
   x="376"
   y="400"
   style="fill:#2C2F47"
   width="64"
   height="16"
   data-original="#2C2F47"
   class=""
   data-old_color="#2C2F47"
   id="rect44" />
	<rect
   x="64"
   y="152"
   style="fill:#2C2F47"
   width="64"
   height="16"
   data-original="#2C2F47"
   class=""
   data-old_color="#2C2F47"
   id="rect46" />
	<rect
   x="144"
   y="152"
   style="fill:#2C2F47"
   width="40"
   height="16"
   data-original="#2C2F47"
   class=""
   data-old_color="#2C2F47"
   id="rect48" />
	<rect
   x="200"
   y="152"
   style="fill:#2C2F47"
   width="40"
   height="16"
   data-original="#2C2F47"
   class=""
   data-old_color="#2C2F47"
   id="rect50" />
	<rect
   x="64"
   y="184"
   style="fill:#2C2F47"
   width="40"
   height="16"
   data-original="#2C2F47"
   class=""
   data-old_color="#2C2F47"
   id="rect52" />
	<rect
   x="120"
   y="184"
   style="fill:#2C2F47"
   width="120"
   height="16"
   data-original="#2C2F47"
   class=""
   data-old_color="#2C2F47"
   id="rect54" />
	<rect
   x="176"
   y="360"
   style="fill:#2C2F47"
   width="64"
   height="16"
   data-original="#2C2F47"
   class=""
   data-old_color="#2C2F47"
   id="rect56" />
	<rect
   x="120"
   y="360"
   style="fill:#2C2F47"
   width="40"
   height="16"
   data-original="#2C2F47"
   class=""
   data-old_color="#2C2F47"
   id="rect58" />
	<rect
   x="64"
   y="360"
   style="fill:#2C2F47"
   width="40"
   height="16"
   data-original="#2C2F47"
   class=""
   data-old_color="#2C2F47"
   id="rect60" />
	<rect
   x="200"
   y="328"
   style="fill:#2C2F47"
   width="40"
   height="16"
   data-original="#2C2F47"
   class=""
   data-old_color="#2C2F47"
   id="rect62" />
	<rect
   x="64"
   y="328"
   style="fill:#2C2F47"
   width="120"
   height="16"
   data-original="#2C2F47"
   class=""
   data-old_color="#2C2F47"
   id="rect64" />
</g></g> </svg>