<?xml version="1.0"?>
<svg xmlns="http://www.w3.org/2000/svg" xmlns:xlink="http://www.w3.org/1999/xlink" version="1.1" id="Capa_1" x="0px" y="0px" viewBox="0 0 464 464" style="enable-background:new 0 0 464 464;" xml:space="preserve" width="512px" height="512px" class=""><g><path style="fill:#D8D8D8" d="M64,464h368c17.672,0,32-14.328,32-32V64H64V464z" data-original="#E68F39" class="" data-old_color="#E68F39"/><path style="fill:#D6457C" d="M272,200v-48c0-17.672-14.328-32-32-32H64H0l32,40v40c0,17.672,14.328,32,32,32h176  C257.672,232,272,217.672,272,200z M240,160h-40H240z M184,160h-40H184z M128,160H64H128z M64,192h40H64z M240,192H120H240z" data-original="#FFC931" class="" data-old_color="#FFC931"/><path style="fill:#5689F2" d="M272,376v-48c0-17.672-14.328-32-32-32H64H0l32,40v40c0,17.672,14.328,32,32,32h176  C257.672,408,272,393.672,272,376z M240,336h-40H240z M184,336H64H184z M64,368h40H64z M120,368h40H120z M240,368h-64H240z" data-original="#4BDDDD" class="active-path" data-old_color="#4BDDDD"/><rect x="64" style="fill:#14438B" width="400" height="64" data-original="#5086F2" class="" data-old_color="#5086F2"/><rect x="264" style="fill:#14438B" width="200" height="64" data-original="#3A66D6" class="" data-old_color="#3A66D6"/><path style="fill:#D8D8D8" d="M264,464h168c17.672,0,32-14.328,32-32V64H264V464z" data-original="#D45F2C" class="" data-old_color="#D45F2C"/><path style="fill:#D6457C" d="M240,120h-96v112h96c17.672,0,32-14.328,32-32v-48C272,134.328,257.672,120,240,120z" data-original="#E6B52C" class="" data-old_color="#E6B52C"/><path style="fill:#5689F2" d="M240,296h-96v112h96c17.672,0,32-14.328,32-32v-48C272,310.328,257.672,296,240,296z" data-original="#42C2C2" class="" data-old_color="#42C2C2"/><g>
	<rect x="88" y="24" style="fill:#2C2F47" width="16" height="16" data-original="#2C2F47" class="" data-old_color="#2C2F47"/>
	<rect x="120" y="24" style="fill:#2C2F47" width="16" height="16" data-original="#2C2F47" class="" data-old_color="#2C2F47"/>
	<rect x="152" y="24" style="fill:#2C2F47" width="16" height="16" data-original="#2C2F47" class="" data-old_color="#2C2F47"/>
	<rect x="288" y="24" style="fill:#2C2F47" width="152" height="16" data-original="#2C2F47" class="" data-old_color="#2C2F47"/>
	<rect x="312" y="112" style="fill:#2C2F47" width="128" height="16" data-original="#2C2F47" class="" data-old_color="#2C2F47"/>
	<rect x="376" y="144" style="fill:#2C2F47" width="64" height="16" data-original="#2C2F47" class="" data-old_color="#2C2F47"/>
	<rect x="376" y="176" style="fill:#2C2F47" width="64" height="16" data-original="#2C2F47" class="" data-old_color="#2C2F47"/>
	<rect x="376" y="208" style="fill:#2C2F47" width="64" height="16" data-original="#2C2F47" class="" data-old_color="#2C2F47"/>
	<rect x="312" y="240" style="fill:#2C2F47" width="128" height="16" data-original="#2C2F47" class="" data-old_color="#2C2F47"/>
	<rect x="312" y="368" style="fill:#2C2F47" width="128" height="16" data-original="#2C2F47" class="" data-old_color="#2C2F47"/>
	<rect x="376" y="272" style="fill:#2C2F47" width="64" height="16" data-original="#2C2F47" class="" data-old_color="#2C2F47"/>
	<rect x="376" y="304" style="fill:#2C2F47" width="64" height="16" data-original="#2C2F47" class="" data-old_color="#2C2F47"/>
	<rect x="376" y="336" style="fill:#2C2F47" width="64" height="16" data-original="#2C2F47" class="" data-old_color="#2C2F47"/>
	<rect x="376" y="400" style="fill:#2C2F47" width="64" height="16" data-original="#2C2F47" class="" data-old_color="#2C2F47"/>
	<rect x="64" y="152" style="fill:#2C2F47" width="64" height="16" data-original="#2C2F47" class="" data-old_color="#2C2F47"/>
	<rect x="144" y="152" style="fill:#2C2F47" width="40" height="16" data-original="#2C2F47" class="" data-old_color="#2C2F47"/>
	<rect x="200" y="152" style="fill:#2C2F47" width="40" height="16" data-original="#2C2F47" class="" data-old_color="#2C2F47"/>
	<rect x="64" y="184" style="fill:#2C2F47" width="40" height="16" data-original="#2C2F47" class="" data-old_color="#2C2F47"/>
	<rect x="120" y="184" style="fill:#2C2F47" width="120" height="16" data-original="#2C2F47" class="" data-old_color="#2C2F47"/>
	<rect x="176" y="360" style="fill:#2C2F47" width="64" height="16" data-original="#2C2F47" class="" data-old_color="#2C2F47"/>
	<rect x="120" y="360" style="fill:#2C2F47" width="40" height="16" data-original="#2C2F47" class="" data-old_color="#2C2F47"/>
	<rect x="64" y="360" style="fill:#2C2F47" width="40" height="16" data-original="#2C2F47" class="" data-old_color="#2C2F47"/>
	<rect x="200" y="328" style="fill:#2C2F47" width="40" height="16" data-original="#2C2F47" class="" data-old_color="#2C2F47"/>
	<rect x="64" y="328" style="fill:#2C2F47" width="120" height="16" data-original="#2C2F47" class="" data-old_color="#2C2F47"/>
</g></g> </svg>
