<?xml version="1.0" encoding="UTF-8" standalone="no"?>
<!-- Generator: Adobe Illustrator 19.0.0, SVG Export Plug-In . SVG Version: 6.00 Build 0)  -->

<svg
   xmlns:dc="http://purl.org/dc/elements/1.1/"
   xmlns:cc="http://creativecommons.org/ns#"
   xmlns:rdf="http://www.w3.org/1999/02/22-rdf-syntax-ns#"
   xmlns:svg="http://www.w3.org/2000/svg"
   xmlns="http://www.w3.org/2000/svg"
   xmlns:sodipodi="http://sodipodi.sourceforge.net/DTD/sodipodi-0.dtd"
   xmlns:inkscape="http://www.inkscape.org/namespaces/inkscape"
   version="1.1"
   id="Capa_1"
   x="0px"
   y="0px"
   viewBox="0 0 512 512"
   style="enable-background:new 0 0 512 512;"
   xml:space="preserve"
   sodipodi:docname="gift-for-care.svg"
   inkscape:version="0.92.4 (5da689c313, 2019-01-14)"><metadata
   id="metadata55"><rdf:RDF><cc:Work
       rdf:about=""><dc:format>image/svg+xml</dc:format><dc:type
         rdf:resource="http://purl.org/dc/dcmitype/StillImage" /></cc:Work></rdf:RDF></metadata><defs
   id="defs53" /><sodipodi:namedview
   pagecolor="#ffffff"
   bordercolor="#666666"
   borderopacity="1"
   objecttolerance="10"
   gridtolerance="10"
   guidetolerance="10"
   inkscape:pageopacity="0"
   inkscape:pageshadow="2"
   inkscape:window-width="1920"
   inkscape:window-height="1147"
   id="namedview51"
   showgrid="false"
   inkscape:zoom="0.32593203"
   inkscape:cx="883.29329"
   inkscape:cy="327.67822"
   inkscape:window-x="-8"
   inkscape:window-y="-8"
   inkscape:window-maximized="1"
   inkscape:current-layer="Capa_1" />
<g
   id="g6"
   style="fill:#333333;fill-opacity:1">
	<g
   id="g4"
   style="fill:#333333;fill-opacity:1">
		<path
   d="m 47.054,302 h -32 c -8.291,0 -15,6.709 -15,15 v 180 c 0,8.291 6.709,15 15,15 h 32 c 24.814,0 67.23729,-20.186 67.23729,-45 V 347 c 0,-24.814 -42.42229,-45 -67.23729,-45 z"
   id="path2"
   inkscape:connector-curvature="0"
   sodipodi:nodetypes="sssssssss"
   style="fill:#333333;fill-opacity:1" />
	</g>
</g>
<g
   id="g12"
   style="fill:#333333;fill-opacity:1">
	<g
   id="g10"
   style="fill:#333333;fill-opacity:1">
		<path
   d="m 507.554,331.099 c -1.8,-2.999 -4.199,-5.4 -6.899,-7.5 -11.045,-9.662 -29.654,-8.749 -40.499,3.001 l -68.101,78.6 -2.1,2.399 c -8.399,9.3 -20.4,14.401 -32.999,14.401 h -116.4 c -8.401,0 -15,-6.601 -15,-15 0,-8.401 6.599,-15 15,-15 h 91.5 c 16.5,0 30,-13.5 30,-30 v -0.3 c -0.3,-16.5 -13.5,-29.7 -30,-29.7 h -54.3 c -8.996,0 -18.636,-3.303 -26.4,-9.901 -36.599,-32.1 -123.62712,-34.2 -162.927119,-6.899 V 499.699 C 118.12888,507.8 182.356,512 213.255,512 h 133.801 c 32.999,0 64.2,-15.601 84,-42.001 l 72.001,-96 c 10.503,-13.789 11.295,-32.699 4.497,-42.9 z"
   id="path8"
   inkscape:connector-curvature="0"
   sodipodi:nodetypes="cccccsssssscsscccssccc"
   style="fill:#333333;fill-opacity:1" />
	</g>
</g>
<g
   id="g18"
   style="fill:#333333;fill-opacity:1">
	<g
   id="g16"
   style="fill:#333333;fill-opacity:1">
		<path
   d="M402.264,28.995C385.627,10.297,362.564,0,337.324,0c-28.172,0-52.593,13.321-70.622,38.522    c-1.352,1.889-2.617,3.779-3.802,5.649c-1.184-1.871-2.449-3.76-3.801-5.649C241.07,13.321,216.649,0,188.477,0    c-25.24,0-48.303,10.297-64.939,28.994C107.75,46.738,99.054,70.459,99.054,95.788c0,27.525,10.681,52.924,33.611,79.934    c20.009,23.565,48.708,47.788,81.938,75.836c12.28,10.365,24.979,21.083,38.473,32.778c2.819,2.443,6.321,3.665,9.824,3.665    c3.502,0,7.005-1.222,9.824-3.665c13.492-11.693,26.189-22.41,38.469-32.773c21.342-18.014,39.773-33.57,55.767-48.66    c31.053-29.298,59.787-62.553,59.787-107.114C426.747,70.46,418.052,46.739,402.264,28.995z"
   id="path14"
   style="fill:#333333;fill-opacity:1" />
	</g>
</g>
<g
   id="g20">
</g>
<g
   id="g22">
</g>
<g
   id="g24">
</g>
<g
   id="g26">
</g>
<g
   id="g28">
</g>
<g
   id="g30">
</g>
<g
   id="g32">
</g>
<g
   id="g34">
</g>
<g
   id="g36">
</g>
<g
   id="g38">
</g>
<g
   id="g40">
</g>
<g
   id="g42">
</g>
<g
   id="g44">
</g>
<g
   id="g46">
</g>
<g
   id="g48">
</g>
</svg>