<?xml version="1.0" encoding="UTF-8" standalone="no"?>
<!-- Generator: Adobe Illustrator 18.1.1, SVG Export Plug-In . SVG Version: 6.00 Build 0)  -->

<svg
   xmlns:dc="http://purl.org/dc/elements/1.1/"
   xmlns:cc="http://creativecommons.org/ns#"
   xmlns:rdf="http://www.w3.org/1999/02/22-rdf-syntax-ns#"
   xmlns:svg="http://www.w3.org/2000/svg"
   xmlns="http://www.w3.org/2000/svg"
   xmlns:sodipodi="http://sodipodi.sourceforge.net/DTD/sodipodi-0.dtd"
   xmlns:inkscape="http://www.inkscape.org/namespaces/inkscape"
   version="1.1"
   id="Capa_1"
   x="0px"
   y="0px"
   viewBox="0 0 24.604001 28.092"
   xml:space="preserve"
   sodipodi:docname="kdo.svg"
   width="24.604"
   height="28.091999"
   inkscape:version="0.92.4 (5da689c313, 2019-01-14)"><metadata
   id="metadata49"><rdf:RDF><cc:Work
       rdf:about=""><dc:format>image/svg+xml</dc:format><dc:type
         rdf:resource="http://purl.org/dc/dcmitype/StillImage" /><dc:title></dc:title></cc:Work></rdf:RDF></metadata><defs
   id="defs47" /><sodipodi:namedview
   pagecolor="#ffffff"
   bordercolor="#666666"
   borderopacity="1"
   objecttolerance="10"
   gridtolerance="10"
   guidetolerance="10"
   inkscape:pageopacity="0"
   inkscape:pageshadow="2"
   inkscape:window-width="1920"
   inkscape:window-height="1147"
   id="namedview45"
   showgrid="false"
   fit-margin-top="0"
   fit-margin-left="0"
   fit-margin-right="0"
   fit-margin-bottom="0"
   inkscape:zoom="23.761527"
   inkscape:cx="15.877723"
   inkscape:cy="16.976736"
   inkscape:window-x="-8"
   inkscape:window-y="-8"
   inkscape:window-maximized="1"
   inkscape:current-layer="Capa_1" />
<g
   id="g12"
   transform="translate(-1.744)">
	<g
   id="c34_present">
		<polygon
   points="6.313,19.31 9.351,13.922 3.427,13.922 3.427,28.092 13.521,28.092 13.521,13.922 9.717,20.67 8.623,18.895 "
   id="polygon2" />
		<path
   d="M 26.331,7.16 H 19.628 C 20.02,6.958 20.37,6.747 20.68,6.523 21.872,5.669 22.505,4.587 22.503,3.513 22.503,2.632 22.086,1.37 21.48,0.844 20.873,0.312 20.068,0 19.209,0 18.291,0 17.438,0.315 16.707,0.805 15.608,1.541 14.748,3.135 14.135,4.351 14.104,4.412 14.073,4.471 14.043,4.53 13.819,4.061 13.557,3.122 13.26,2.694 12.74,1.952 12.115,1.296 11.381,0.805 10.652,0.315 9.8,0 8.883,0 7.969,0.003 7.132,0.386 6.506,0.977 5.883,1.562 5.447,2.879 5.443,3.82 5.439,4.369 5.599,4.944 5.93,5.467 6.346,6.122 7.005,6.693 7.915,7.16 H 1.744 l 0.014,5.635 H 13.346 V 7.16 h 1.412 v 5.635 h 11.59 z M 8.315,5.398 C 7.85,5.104 7.564,4.809 7.396,4.544 7.233,4.281 7.176,3.819 7.176,3.592 7.172,3.213 7.361,2.548 7.697,2.236 8.025,1.923 8.471,1.73 8.871,1.73 h 0.012 c 0.515,0.004 1.025,0.176 1.539,0.515 0.765,0.505 1.486,1.878 1.987,2.884 0.262,0.512 0.462,1.047 0.597,1.57 C 10.685,6.459 9.185,5.947 8.315,5.398 Z M 16.248,4.173 C 16.666,3.574 17.159,2.586 17.67,2.245 18.178,1.906 18.694,1.734 19.209,1.73 h 0.005 c 0.429,0 0.842,0.168 1.123,0.417 C 20.619,2.4 20.77,2.863 20.77,3.189 20.764,3.574 20.565,4.46 19.666,5.117 18.813,5.739 17.332,6.376 15.055,6.822 15.27,5.919 15.691,4.963 16.248,4.173 Z"
   id="path4"
   inkscape:connector-curvature="0" />
		<polygon
   points="18.392,20.691 14.637,14.013 14.637,28.092 24.68,28.092 24.68,13.922 18.756,13.922 21.791,19.287 19.482,18.895 "
   id="polygon6" />
		<path
   d="M 14.637,13.922"
   id="path8"
   inkscape:connector-curvature="0" />
	</g>
	<g
   id="Capa_1_195_">
	</g>
</g>
<g
   id="g14"
   transform="translate(-1.744)">
</g>
<g
   id="g16"
   transform="translate(-1.744)">
</g>
<g
   id="g18"
   transform="translate(-1.744)">
</g>
<g
   id="g20"
   transform="translate(-1.744)">
</g>
<g
   id="g22"
   transform="translate(-1.744)">
</g>
<g
   id="g24"
   transform="translate(-1.744)">
</g>
<g
   id="g26"
   transform="translate(-1.744)">
</g>
<g
   id="g28"
   transform="translate(-1.744)">
</g>
<g
   id="g30"
   transform="translate(-1.744)">
</g>
<g
   id="g32"
   transform="translate(-1.744)">
</g>
<g
   id="g34"
   transform="translate(-1.744)">
</g>
<g
   id="g36"
   transform="translate(-1.744)">
</g>
<g
   id="g38"
   transform="translate(-1.744)">
</g>
<g
   id="g40"
   transform="translate(-1.744)">
</g>
<g
   id="g42"
   transform="translate(-1.744)">
</g>
</svg>