<?xml version="1.0" encoding="UTF-8" standalone="no"?>
<svg
   xmlns:dc="http://purl.org/dc/elements/1.1/"
   xmlns:cc="http://creativecommons.org/ns#"
   xmlns:rdf="http://www.w3.org/1999/02/22-rdf-syntax-ns#"
   xmlns:svg="http://www.w3.org/2000/svg"
   xmlns="http://www.w3.org/2000/svg"
   xmlns:xlink="http://www.w3.org/1999/xlink"
   xmlns:sodipodi="http://sodipodi.sourceforge.net/DTD/sodipodi-0.dtd"
   xmlns:inkscape="http://www.inkscape.org/namespaces/inkscape"
   version="1.1"
   width="90.917191"
   height="48.747383"
   viewBox="0 0 90.917192 48.747384"
   id="svg4"
   sodipodi:docname="shuttle-arrival.svg"
   inkscape:version="0.92.4 (5da689c313, 2019-01-14)">
  <metadata
     id="metadata10">
    <rdf:RDF>
      <cc:Work
         rdf:about="">
        <dc:format>image/svg+xml</dc:format>
        <dc:type
           rdf:resource="http://purl.org/dc/dcmitype/StillImage" />
        <dc:title />
      </cc:Work>
    </rdf:RDF>
  </metadata>
  <defs
     id="defs8" />
  <sodipodi:namedview
     pagecolor="#ffffff"
     bordercolor="#666666"
     borderopacity="1"
     objecttolerance="10"
     gridtolerance="10"
     guidetolerance="10"
     inkscape:pageopacity="0"
     inkscape:pageshadow="2"
     inkscape:window-width="1920"
     inkscape:window-height="1147"
     id="namedview6"
     showgrid="false"
     fit-margin-top="0"
     fit-margin-left="0"
     fit-margin-right="0"
     fit-margin-bottom="0"
     inkscape:zoom="3.6875"
     inkscape:cx="-4.3351034"
     inkscape:cy="46.984113"
     inkscape:window-x="-8"
     inkscape:window-y="-8"
     inkscape:window-maximized="1"
     inkscape:current-layer="layer2" />
  <g
     inkscape:groupmode="layer"
     id="layer1"
     inkscape:label="Back"
     style="display:inline"
     transform="translate(24.165118,-11.568199)" />
  <g
     inkscape:groupmode="layer"
     id="layer2"
     inkscape:label="Avion"
     transform="translate(24.165118,-11.568199)">
    <ellipse
       style="fill:#000000;fill-opacity:1;stroke:none;stroke-width:7.04859018;stroke-miterlimit:4;stroke-dasharray:none;stroke-opacity:1"
       id="path867"
       cx="21.299629"
       cy="35.332966"
       rx="9.1974878"
       ry="10.739923" />
    <path
       style="fill:#000000;fill-opacity:1;stroke:none;stroke-width:1.00908279px;stroke-linecap:butt;stroke-linejoin:miter;stroke-opacity:1"
       d="m 20.330242,24.943308 0.71909,-13.326289 0.57527,-0.04882 0.67116,13.277476 z"
       id="path884"
       inkscape:connector-curvature="0" />
    <path
       style="fill:#000000;fill-opacity:1;stroke:none;stroke-width:1px;stroke-linecap:butt;stroke-linejoin:miter;stroke-opacity:1"
       d="m 28.784032,29.209919 9.06055,-1.150547 -8.48528,2.492851 z"
       id="path886"
       inkscape:connector-curvature="0" />
    <path
       style="fill:#000000;fill-opacity:1;stroke:none;stroke-width:1px;stroke-linecap:butt;stroke-linejoin:miter;stroke-opacity:1"
       d="m 30.318092,33.42859 34.08494,-3.164004 2.34904,-2.732548 -2.0614,4.218671 -34.46846,5.992431 z"
       id="path888"
       inkscape:connector-curvature="0" />
    <circle
       style="fill:#000000;fill-opacity:1;stroke:none;stroke-width:5.5720644;stroke-miterlimit:4;stroke-dasharray:none;stroke-opacity:1"
       id="path890"
       cx="37.892525"
       cy="39.085445"
       r="3.1160638" />
    <use
       x="0"
       y="0"
       xlink:href="#path886"
       id="use892"
       transform="matrix(-1,0,0,1,42.586954,6.7932003e-8)"
       width="100%"
       height="100%" />
    <use
       x="0"
       y="0"
       xlink:href="#path888"
       id="use894"
       transform="matrix(-1,0,0,1,42.586954,6.7932003e-8)"
       width="100%"
       height="100%" />
    <use
       x="0"
       y="0"
       xlink:href="#path890"
       id="use896"
       transform="matrix(-1,0,0,1,42.586954,6.7932003e-8)"
       width="100%"
       height="100%" />
  </g>
  <g
     inkscape:groupmode="layer"
     id="layer3"
     inkscape:label="Bus"
     transform="translate(24.165118,-11.568199)">
    <path
       d="m 44.272532,44.933732 c -1.23353,0.157294 -2.83132,0.620902 -3.51017,1.01828 -0.33115,0.19041 -0.68713,0.620903 -0.82787,1.001723 -0.0331,0.09107 -0.19041,1.20869 -0.34771,2.48361 -0.28147,2.293201 -0.28147,2.351152 -0.28147,5.687468 v 3.377712 h 0.99344 v 0.57123 c 0,0.496722 0.0331,0.612624 0.21525,0.827871 0.45533,0.546394 1.57295,0.546394 2.11934,0.0083 0.20697,-0.215247 0.23181,-0.289755 0.23181,-0.819592 v -0.587788 h 5.79509 v 0.562951 c 0,0.662297 0.11591,0.877543 0.61262,1.101068 0.4305,0.19869 0.91066,0.19869 1.34115,0 0.49673,-0.223525 0.61263,-0.438771 0.61263,-1.101068 v -0.562951 h 0.91065 V 54.85992 c 0,-3.559843 -0.008,-3.692302 -0.25663,-5.67919 -0.13246,-1.125904 -0.30632,-2.185578 -0.38083,-2.359431 -0.26491,-0.678853 -1.15073,-1.192133 -2.74853,-1.606068 -1.28319,-0.331148 -3.17074,-0.44705 -4.47877,-0.281475 z m 4.83476,1.920658 c 0.0911,0.06623 0.14074,0.190411 0.11591,0.314591 l -0.0248,0.198689 -3.41083,0.02483 c -3.25353,0.01656 -3.41911,0.0083 -3.49362,-0.132459 -0.0579,-0.115902 -0.0497,-0.206968 0.0414,-0.331148 0.12419,-0.182132 0.14074,-0.182132 3.37771,-0.182132 2.54157,0 3.27837,0.02483 3.39428,0.107623 z m 1.00173,1.796479 c 0.12418,0.132459 0.19868,0.513279 0.33942,1.680577 0.10763,0.82787 0.20697,1.614347 0.2318,1.738527 0.0331,0.173853 0,0.281476 -0.15729,0.438771 l -0.19869,0.198689 h -9.10657 l -0.21525,-0.190411 -0.20697,-0.18213 0.23181,-1.813036 c 0.19041,-1.515002 0.25664,-1.829594 0.3891,-1.92066 0.12418,-0.09934 0.91065,-0.115901 4.34632,-0.115901 4.11451,0 4.1973,0 4.34632,0.165574 z m -7.59986,5.290091 c 1.09279,0.496722 0.64574,2.16902 -0.53811,2.053118 -0.63746,-0.06623 -1.1259,-0.736805 -0.97689,-1.332871 0.0745,-0.306313 0.44705,-0.70369 0.73681,-0.786476 0.37254,-0.107625 0.38909,-0.107625 0.77819,0.06623 z m 7.53362,0.05795 c 0.67058,0.422214 0.63746,1.374266 -0.0497,1.829593 -0.35598,0.240083 -0.7368,0.240083 -1.09279,0 -0.63746,-0.422213 -0.72025,-1.183853 -0.19041,-1.680575 0.39738,-0.380821 0.88582,-0.430494 1.33288,-0.149018 z"
       id="path2"
       inkscape:connector-curvature="0"
       style="fill:#000000;stroke-width:0.51741898" />
    <text
       xml:space="preserve"
       style="font-style:normal;font-variant:normal;font-weight:bold;font-stretch:normal;font-size:13.05109692px;line-height:1.25;font-family:sans-serif;-inkscape-font-specification:'sans-serif Bold';letter-spacing:0px;word-spacing:0px;fill:#000000;fill-opacity:1;stroke:none;stroke-width:0.32627743"
       x="53.092079"
       y="58.569324"
       id="text917"><tspan
         sodipodi:role="line"
         id="tspan915"
         x="53.092079"
         y="58.569324"
         style="font-style:normal;font-variant:normal;font-weight:bold;font-stretch:normal;font-family:sans-serif;-inkscape-font-specification:'sans-serif Bold';stroke-width:0.32627743">A</tspan></text>
  </g>
  <path
     style="fill:#ffffff;fill-opacity:1;stroke:#000000;stroke-width:0.80000001;stroke-linecap:butt;stroke-linejoin:miter;stroke-miterlimit:4;stroke-dasharray:none;stroke-opacity:1"
     d="m 40.70814,21.524815 c -0.42414,-0.05948 -1.47707,1.504111 -0.81497,1.773759 3.45449,0.882471 7.53159,0.762783 11.09799,0.04794 0.66168,-0.315017 -0.54751,-2.029389 -1.09166,-1.890796 -2.80012,0.591878 -6.19948,0.532585 -9.19136,0.0691 z"
     id="path898"
     inkscape:connector-curvature="0"
     sodipodi:nodetypes="ccccc" />
</svg>
