<?xml version="1.0" encoding="UTF-8" standalone="no"?>
<svg
   xmlns:dc="http://purl.org/dc/elements/1.1/"
   xmlns:cc="http://creativecommons.org/ns#"
   xmlns:rdf="http://www.w3.org/1999/02/22-rdf-syntax-ns#"
   xmlns:svg="http://www.w3.org/2000/svg"
   xmlns="http://www.w3.org/2000/svg"
   xmlns:sodipodi="http://sodipodi.sourceforge.net/DTD/sodipodi-0.dtd"
   xmlns:inkscape="http://www.inkscape.org/namespaces/inkscape"
   version="1.1"
   id="Capa_1"
   x="0px"
   y="0px"
   viewBox="0 0 480 480"
   style="enable-background:new 0 0 480 480;"
   xml:space="preserve"
   width="512px"
   height="512px"
   class=""
   sodipodi:docname="shuttle-departure-d0.svg"
   inkscape:version="0.92.4 (5da689c313, 2019-01-14)"><metadata
   id="metadata49"><rdf:RDF><cc:Work
       rdf:about=""><dc:format>image/svg+xml</dc:format><dc:type
         rdf:resource="http://purl.org/dc/dcmitype/StillImage" /></cc:Work></rdf:RDF></metadata><defs
   id="defs47" /><sodipodi:namedview
   pagecolor="#ffffff"
   bordercolor="#666666"
   borderopacity="1"
   objecttolerance="10"
   gridtolerance="10"
   guidetolerance="10"
   inkscape:pageopacity="0"
   inkscape:pageshadow="2"
   inkscape:window-width="1920"
   inkscape:window-height="1147"
   id="namedview45"
   showgrid="false"
   inkscape:zoom="1.3037281"
   inkscape:cx="381.2186"
   inkscape:cy="380.26545"
   inkscape:window-x="-8"
   inkscape:window-y="-8"
   inkscape:window-maximized="1"
   inkscape:current-layer="g42" /><g
   id="g42"><g
     id="g14">
	<circle
   style="fill:#2D2D2D"
   cx="104"
   cy="427.992"
   r="40"
   data-original="#EAEAEA"
   class=""
   data-old_color="#EAEAEA"
   id="circle10" />
	<circle
   style="fill:#2D2D2D"
   cx="390"
   cy="427.992"
   r="40"
   data-original="#EAEAEA"
   class=""
   data-old_color="#EAEAEA"
   id="circle12" />
</g><path
     style="fill:#2D2D2D"
     d="M456,331.992h-14.2H320H216H112H12.664H8v72c0,17.672,14.328,32,32,32h24.808  c-0.528-2.584-0.808-5.256-0.808-8c0-22.088,17.912-40,40-40s40,17.912,40,40c0,2.744-0.28,5.416-0.808,8H216h104h30.808  c-0.528-2.584-0.808-5.256-0.808-8c0-22.088,17.912-40,40-40s40,17.912,40,40c0,2.744-0.28,5.416-0.808,8H440  c17.672,0,32-14.328,32-32v-56C472,339.152,464.84,331.992,456,331.992z"
     data-original="#A9CB73"
     class="active-path"
     data-old_color="#A9CB73"
     id="path16" /><g
     id="g40">
	<path
   style="fill:#2D2D2D"
   d="M255.168,61.184c-5.744-2.864-12.6-2.048-17.496,2.096s-6.84,10.784-4.96,16.904l9.968,32.496   c2.088,6.768,8.232,11.312,15.304,11.312h24.904c0.96,0,1.912-0.168,2.808-0.504l51.8-19.432l-6.56,59.056   c-0.328,2.912,0.968,5.768,3.376,7.448c1.368,0.944,2.968,1.432,4.576,1.432c1.224,0,2.448-0.28,3.576-0.84l32-16   c1.896-0.952,3.336-2.616,4.008-4.624l22.952-68.856l64-32c5.224-2.608,8.608-7.848,8.832-13.688s-2.744-11.336-7.752-14.344   L439,5.144c-2.296-1.376-5.128-1.504-7.544-0.368l-56.672,26.84l-64.88-26.488c-1.536-0.616-3.24-0.768-4.84-0.384l-32,7.472   c-3.12,0.728-5.504,3.24-6.064,6.4c-0.552,3.152,0.824,6.328,3.496,8.088l48.144,31.512l-35.664,16.896L255.168,61.184z    M294.912,23.528l11.32-2.64l48.968,20l-19.592,9.28L294.912,23.528z M434.448,21.056l23.832,14.296L391.312,68.84   c-1.896,0.952-3.336,2.616-4.008,4.624l-22.952,68.856l-15.88,7.936l6.376-57.384c0.312-2.768-0.84-5.488-3.032-7.192   c-1.44-1.112-3.168-1.688-4.928-1.688c-0.944,0-1.896,0.168-2.808,0.504l-62.64,23.496h-23.456l-9.968-32.496l31.296,15.648   c2.2,1.096,4.776,1.128,7,0.072L434.448,21.056z"
   data-original="#2D2D2D"
   class=""
   data-old_color="#2D2D2D"
   id="path18" />
	<path
   style="fill:#2D2D2D"
   d="M456,323.992h-9.632l-50.68-85.672c-0.152-0.256-0.32-0.496-0.496-0.736   c-4.512-6.008-11.688-9.592-19.192-9.592H44.496c-11.032,0-20.608,7.48-23.376,18.592L5.992,324.392   C2.576,325.304,0,328.28,0,331.992v72c0,22.056,17.944,40,40,40h18.8c6.608,18.616,24.344,32,45.2,32s38.592-13.384,45.2-32H216   h104h24.8c6.608,18.616,24.344,32,45.2,32s38.592-13.384,45.2-32h4.8c22.056,0,40-17.944,40-40v-56   C480,334.76,469.232,323.992,456,323.992z M382.176,246.904l45.6,77.088H328v-80h48   C378.384,243.992,380.664,245.08,382.176,246.904z M120,323.992v-80h88v80H120z M224,243.992h88v80h-88V243.992z M36.728,250.056   c0.896-3.568,4.088-6.064,7.768-6.064H104v80H22.368L36.728,250.056z M104,459.992c-17.648,0-32-14.352-32-32s14.352-32,32-32   s32,14.352,32,32S121.648,459.992,104,459.992z M390,459.992c-17.648,0-32-14.352-32-32s14.352-32,32-32s32,14.352,32,32   S407.648,459.992,390,459.992z M464,403.992c0,13.232-10.768,24-24,24h-2c0-26.472-21.528-48-48-48s-48,21.528-48,48h-14v-72h-16   v72h-88v-72h-16v72h-56c0-26.472-21.528-48-48-48s-48,21.528-48,48H40c-13.232,0-24-10.768-24-24v-64h425.808H456   c4.408,0,8,3.584,8,8V403.992z"
   data-original="#2D2D2D"
   class=""
   data-old_color="#2D2D2D"
   id="path20" />
	<rect
   x="176"
   y="99.992"
   style="fill:#2D2D2D"
   width="16"
   height="16"
   data-original="#2D2D2D"
   class=""
   data-old_color="#2D2D2D"
   id="rect22" />
	<rect
   x="219.432"
   y="163.992"
   style="fill:#2D2D2D"
   width="16"
   height="16"
   data-original="#2D2D2D"
   class=""
   data-old_color="#2D2D2D"
   id="rect24" />
	<path
   style="fill:#2D2D2D"
   d="M142.344,118.368l13.456,8.656c2.168-3.376,5.176-6.176,8.704-8.112l-7.688-14.032   C150.96,108.096,145.96,112.76,142.344,118.368z"
   data-original="#2D2D2D"
   class=""
   data-old_color="#2D2D2D"
   id="path26" />
	<rect
   x="208"
   y="99.992"
   style="fill:#2D2D2D"
   width="16"
   height="16"
   data-original="#2D2D2D"
   class=""
   data-old_color="#2D2D2D"
   id="rect28" />
	<path
   style="fill:#2D2D2D"
   d="M280,213.144v-9.152c0-2.856-0.304-5.712-0.904-8.488l-15.64,3.376   c0.36,1.664,0.544,3.384,0.544,5.112v9.152L280,213.144L280,213.144z"
   data-original="#2D2D2D"
   class=""
   data-old_color="#2D2D2D"
   id="path30" />
	<path
   style="fill:#2D2D2D"
   d="M170.336,179.584l2.232-15.84c-3.944-0.552-7.728-2.128-10.936-4.528l-9.6,12.8   C157.392,176.032,163.72,178.656,170.336,179.584z"
   data-original="#2D2D2D"
   class=""
   data-old_color="#2D2D2D"
   id="path32" />
	<path
   style="fill:#2D2D2D"
   d="M136,139.992c0,5.8,1.216,11.392,3.616,16.624l14.544-6.656c-1.432-3.136-2.16-6.488-2.16-9.968   c0-0.576,0.016-1.152,0.064-1.712l-15.96-1.16C136.032,138.08,136,139.024,136,139.992z"
   data-original="#2D2D2D"
   class=""
   data-old_color="#2D2D2D"
   id="path34" />
	<rect
   x="187.432"
   y="163.992"
   style="fill:#2D2D2D"
   width="16"
   height="16"
   data-original="#2D2D2D"
   class=""
   data-old_color="#2D2D2D"
   id="rect36" />
	<path
   style="fill:#2D2D2D"
   d="M253.992,166.504l-5.6,14.984c3.744,1.4,7.112,3.744,9.752,6.792l12.088-10.488   C265.84,172.744,260.224,168.832,253.992,166.504z"
   data-original="#2D2D2D"
   class=""
   data-old_color="#2D2D2D"
   id="path38" />
</g></g> </svg>