<?xml version="1.0" encoding="UTF-8" standalone="no"?>
<svg
   xmlns:dc="http://purl.org/dc/elements/1.1/"
   xmlns:cc="http://creativecommons.org/ns#"
   xmlns:rdf="http://www.w3.org/1999/02/22-rdf-syntax-ns#"
   xmlns:svg="http://www.w3.org/2000/svg"
   xmlns="http://www.w3.org/2000/svg"
   xmlns:sodipodi="http://sodipodi.sourceforge.net/DTD/sodipodi-0.dtd"
   xmlns:inkscape="http://www.inkscape.org/namespaces/inkscape"
   version="1.1"
   width="47.978928"
   height="48.511532"
   viewBox="0 0 47.978929 48.511533"
   id="svg4"
   sodipodi:docname="shuttle-arrival.svg"
   inkscape:version="0.92.4 (5da689c313, 2019-01-14)">
  <metadata
     id="metadata10">
    <rdf:RDF>
      <cc:Work
         rdf:about="">
        <dc:format>image/svg+xml</dc:format>
        <dc:type
           rdf:resource="http://purl.org/dc/dcmitype/StillImage" />
        <dc:title></dc:title>
      </cc:Work>
    </rdf:RDF>
  </metadata>
  <defs
     id="defs8" />
  <sodipodi:namedview
     pagecolor="#ffffff"
     bordercolor="#666666"
     borderopacity="1"
     objecttolerance="10"
     gridtolerance="10"
     guidetolerance="10"
     inkscape:pageopacity="0"
     inkscape:pageshadow="2"
     inkscape:window-width="1920"
     inkscape:window-height="1147"
     id="namedview6"
     showgrid="false"
     fit-margin-top="0"
     fit-margin-left="0"
     fit-margin-right="0"
     fit-margin-bottom="0"
     inkscape:zoom="10.429825"
     inkscape:cx="12.570492"
     inkscape:cy="28.105551"
     inkscape:window-x="-8"
     inkscape:window-y="-8"
     inkscape:window-maximized="1"
     inkscape:current-layer="layer3" />
  <g
     inkscape:groupmode="layer"
     id="layer1"
     inkscape:label="Back"
     style="display:inline"
     transform="translate(-18.509427,-11.816652)" />
  <g
     inkscape:groupmode="layer"
     id="layer2"
     inkscape:label="Avion"
     transform="translate(-18.509427,-11.816652)"
     style="display:inline">
    <path
       style="display:inline;fill:#333333;fill-opacity:1;stroke:#333333;stroke-width:0.8629443;stroke-linecap:round;stroke-linejoin:round;stroke-miterlimit:4;stroke-dasharray:none;stroke-opacity:1"
       d="m 36.512015,12.272117 c 2.642258,-0.04996 10.956964,2.448479 14.566665,5.462491 l 3.554955,4.508721 C 82.633099,33.591668 52.190464,42.664013 37.552491,42.532598 l -18.599262,0.336358 -0.01233,-30.620832 z"
       id="path1387"
       inkscape:connector-curvature="0"
       sodipodi:nodetypes="ccccccc" />
    <path
       style="display:inline;fill:#ffffff;fill-opacity:1;stroke:#333333;stroke-width:0.8629443;stroke-linecap:butt;stroke-linejoin:miter;stroke-miterlimit:4;stroke-dasharray:none;stroke-opacity:1"
       d="m 51.374938,18.310952 -2.914299,0.31284 -7.617838,-0.03063 v 4.383703 l 9.564445,-0.275894 3.924488,-0.486765 z"
       id="path1466"
       inkscape:connector-curvature="0"
       sodipodi:nodetypes="ccccccc" />
  </g>
  <g
     inkscape:groupmode="layer"
     id="layer3"
     inkscape:label="Bus"
     transform="translate(-18.509427,-11.816652)">
    <text
       xml:space="preserve"
       style="font-style:normal;font-variant:normal;font-weight:bold;font-stretch:normal;font-size:13.05109692px;line-height:1.25;font-family:sans-serif;-inkscape-font-specification:'sans-serif Bold';letter-spacing:0px;word-spacing:0px;fill:#333333;fill-opacity:1;stroke:none;stroke-width:0.32627743"
       x="53.092079"
       y="58.569324"
       id="text917"><tspan
         sodipodi:role="line"
         id="tspan915"
         x="53.092079"
         y="58.569324"
         style="font-style:normal;font-variant:normal;font-weight:bold;font-stretch:normal;font-family:sans-serif;-inkscape-font-specification:'sans-serif Bold';fill:#333333;fill-opacity:1;stroke-width:0.32627743">A</tspan></text>
    <g
       id="g854"
       transform="matrix(0.47453427,0,0,0.47453427,33.281651,16.911617)">
      <path
         id="path16"
         data-old_color="#A9CB73"
         class="active-path"
         data-original="#A9CB73"
         d="M 28.17414,73.063672 H 26.356803 10.768662 -2.5414123 -15.851485 -28.564651 -29.161554 v 9.21467 c 0,2.26168 1.833718,4.0954 4.095405,4.0954 h 3.174963 c -0.06757,-0.3307 -0.103408,-0.67267 -0.103408,-1.02385 0,-2.82686 2.292403,-5.11926 5.119259,-5.11926 2.826852,0 5.119255,2.2924 5.119255,5.11926 0,0.35118 -0.03584,0.69315 -0.103408,1.02385 h 9.3180757 13.3100743 3.942849 c -0.06757,-0.3307 -0.103408,-0.67267 -0.103408,-1.02385 0,-2.82686 2.292404,-5.11926 5.119259,-5.11926 2.826856,0 5.119259,2.2924 5.119259,5.11926 0,0.35118 -0.03584,0.69315 -0.103409,1.02385 h 1.383224 c 2.261688,0 4.095406,-1.83372 4.095406,-4.0954 v -7.16697 c 0,-1.13135 -0.916346,-2.0477 -2.047702,-2.0477 z"
         style="fill:#333333;fill-opacity:1;stroke:none;stroke-width:0.12798147;stroke-opacity:1"
         inkscape:connector-curvature="0" />
      <path
         id="path20"
         data-old_color="#2D2D2D"
         class=""
         data-original="#2D2D2D"
         d="M 28.17414,72.039822 H 26.941422 L 20.455319,61.075391 c -0.01947,-0.03277 -0.04093,-0.06348 -0.06348,-0.09419 -0.577452,-0.76891 -1.495843,-1.227597 -2.45622,-1.227597 h -42.426364 c -1.411891,0 -2.637445,0.957303 -2.991696,2.379431 l -1.936106,9.957977 c -0.437184,0.11672 -0.766863,0.4976 -0.766863,0.97266 v 9.21467 c 0,2.82275 2.296501,5.11926 5.119259,5.11926 h 2.406049 c 0.845703,2.3825 3.115582,4.0954 5.784765,4.0954 2.66918,0 4.939058,-1.7129 5.784761,-4.0954 h 8.5491617 13.3100743 3.173939 c 0.8457,2.3825 3.115582,4.0954 5.784761,4.0954 2.669182,0 4.939061,-1.7129 5.784763,-4.0954 h 0.614311 c 2.822759,0 5.119259,-2.29651 5.119259,-5.11926 v -7.16697 c 0,-1.69345 -1.378105,-3.07155 -3.071555,-3.07155 z m -9.448103,-9.865838 5.835953,9.865838 H 11.792512 v -10.23852 h 6.143109 c 0.305108,0 0.596908,0.139244 0.790416,0.372682 z m -33.553671,9.865838 v -10.23852 h 11.2623677 v 10.23852 z m 13.3100727,-10.23852 h 11.262369 v 10.23852 h -11.262369 z m -23.9673437,0.776081 c 0.114672,-0.45664 0.523187,-0.776081 0.994162,-0.776081 h 7.615408 v 10.23852 H -27.32272 Z m 8.60957,26.867919 c -2.258618,0 -4.095409,-1.83679 -4.095409,-4.09541 0,-2.25862 1.836791,-4.0954 4.095409,-4.0954 2.258618,0 4.095405,1.83678 4.095405,4.0954 0,2.25862 -1.836787,4.09541 -4.095405,4.09541 z m 36.602697,0 c -2.258617,0 -4.095404,-1.83679 -4.095404,-4.09541 0,-2.25862 1.836787,-4.0954 4.095404,-4.0954 2.258618,0 4.095408,1.83678 4.095408,4.0954 0,2.25862 -1.83679,4.09541 -4.095408,4.09541 z m 9.470629,-7.16696 c 0,1.69345 -1.378104,3.07155 -3.071555,3.07155 h -0.255963 c 0,-3.38793 -2.755185,-6.14311 -6.143111,-6.14311 -3.387926,0 -6.143109,2.75518 -6.143109,6.14311 h -1.791741 v -9.21466 H 9.7448077 v 9.21466 h -11.262369 v -9.21466 h -2.047705 v 9.21466 h -7.1669587 c 0,-3.38793 -2.755187,-6.14311 -6.14311,-6.14311 -3.387926,0 -6.143109,2.75518 -6.143109,6.14311 h -2.047705 c -1.693449,0 -3.071554,-1.3781 -3.071554,-3.07155 v -8.19082 h 54.495529 1.816314 c 0.564141,0 1.023851,0.45869 1.023851,1.02385 z"
         style="fill:#333333;fill-opacity:1;stroke:none;stroke-width:0.12798147;stroke-opacity:1"
         inkscape:connector-curvature="0" />
    </g>
  </g>
</svg>
