<?xml version="1.0" encoding="UTF-8" standalone="no"?>
<svg
   xmlns:dc="http://purl.org/dc/elements/1.1/"
   xmlns:cc="http://creativecommons.org/ns#"
   xmlns:rdf="http://www.w3.org/1999/02/22-rdf-syntax-ns#"
   xmlns:svg="http://www.w3.org/2000/svg"
   xmlns="http://www.w3.org/2000/svg"
   xmlns:sodipodi="http://sodipodi.sourceforge.net/DTD/sodipodi-0.dtd"
   xmlns:inkscape="http://www.inkscape.org/namespaces/inkscape"
   version="1.1"
   id="Capa_1"
   x="0px"
   y="0px"
   viewBox="0 0 480 480"
   style="enable-background:new 0 0 480 480;"
   xml:space="preserve"
   width="512px"
   height="512px"
   class=""
   sodipodi:docname="shuttle-departure.svg"
   inkscape:version="0.92.4 (5da689c313, 2019-01-14)"><metadata
   id="metadata49"><rdf:RDF><cc:Work
       rdf:about=""><dc:format>image/svg+xml</dc:format><dc:type
         rdf:resource="http://purl.org/dc/dcmitype/StillImage" /></cc:Work></rdf:RDF></metadata><defs
   id="defs47" /><sodipodi:namedview
   pagecolor="#ffffff"
   bordercolor="#666666"
   borderopacity="1"
   objecttolerance="10"
   gridtolerance="10"
   guidetolerance="10"
   inkscape:pageopacity="0"
   inkscape:pageshadow="2"
   inkscape:window-width="1920"
   inkscape:window-height="1147"
   id="namedview45"
   showgrid="false"
   inkscape:zoom="1.3037281"
   inkscape:cx="324.6786"
   inkscape:cy="199.14789"
   inkscape:window-x="-8"
   inkscape:window-y="-8"
   inkscape:window-maximized="1"
   inkscape:current-layer="g14" /><g
   id="g42"><g
     id="g8">
	
	
	
</g><g
     id="g14">
	
	
</g><path
     style="fill:#14438b;fill-opacity:1"
     d="M456,331.992h-14.2H320H216H112H12.664H8v72c0,17.672,14.328,32,32,32h24.808  c-0.528-2.584-0.808-5.256-0.808-8c0-22.088,17.912-40,40-40s40,17.912,40,40c0,2.744-0.28,5.416-0.808,8H216h104h30.808  c-0.528-2.584-0.808-5.256-0.808-8c0-22.088,17.912-40,40-40s40,17.912,40,40c0,2.744-0.28,5.416-0.808,8H440  c17.672,0,32-14.328,32-32v-56C472,339.152,464.84,331.992,456,331.992z"
     data-original="#A9CB73"
     class="active-path"
     data-old_color="#A9CB73"
     id="path16" /><g
     id="g40">
	<path
   style="fill:#2D2D2D"
   d="M255.168,61.184c-5.744-2.864-12.6-2.048-17.496,2.096s-6.84,10.784-4.96,16.904l9.968,32.496   c2.088,6.768,8.232,11.312,15.304,11.312h24.904c0.96,0,1.912-0.168,2.808-0.504l51.8-19.432l-6.56,59.056   c-0.328,2.912,0.968,5.768,3.376,7.448c1.368,0.944,2.968,1.432,4.576,1.432c1.224,0,2.448-0.28,3.576-0.84l32-16   c1.896-0.952,3.336-2.616,4.008-4.624l22.952-68.856l64-32c5.224-2.608,8.608-7.848,8.832-13.688s-2.744-11.336-7.752-14.344   L439,5.144c-2.296-1.376-5.128-1.504-7.544-0.368l-56.672,26.84l-64.88-26.488c-1.536-0.616-3.24-0.768-4.84-0.384l-32,7.472   c-3.12,0.728-5.504,3.24-6.064,6.4c-0.552,3.152,0.824,6.328,3.496,8.088l48.144,31.512l-35.664,16.896L255.168,61.184z    M294.912,23.528l11.32-2.64l48.968,20l-19.592,9.28L294.912,23.528z M434.448,21.056l23.832,14.296L391.312,68.84   c-1.896,0.952-3.336,2.616-4.008,4.624l-22.952,68.856l-15.88,7.936l6.376-57.384c0.312-2.768-0.84-5.488-3.032-7.192   c-1.44-1.112-3.168-1.688-4.928-1.688c-0.944,0-1.896,0.168-2.808,0.504l-62.64,23.496h-23.456l-9.968-32.496l31.296,15.648   c2.2,1.096,4.776,1.128,7,0.072L434.448,21.056z"
   data-original="#2D2D2D"
   class=""
   id="path18" />
	<path
   style="fill:#2d2d2d"
   d="m 456,323.992 h -9.632 l -50.68,-85.672 c -0.152,-0.256 -0.32,-0.496 -0.496,-0.736 -4.512,-6.008 -11.688,-9.592 -19.192,-9.592 H 44.496 c -11.032,0 -20.608,7.48 -23.376,18.592 L 5.992,324.392 C 2.576,325.304 0,328.28 0,331.992 v 72 c 0,22.056 17.944,40 40,40 h 18.8 c 6.608,18.616 24.344,32 45.2,32 20.856,0 38.592,-13.384 45.2,-32 h 66.8 104 24.8 c 6.608,18.616 24.344,32 45.2,32 20.856,0 38.592,-13.384 45.2,-32 h 4.8 c 22.056,0 40,-17.944 40,-40 v -56 c 0,-13.232 -10.768,-24 -24,-24 z m -73.824,-77.088 45.6,77.088 H 328 v -80 h 48 c 2.384,0 4.664,1.088 6.176,2.912 z M 120,323.992 v -80 h 88 v 80 z m 104,-80 h 88 v 80 h -88 z m -187.272,6.064 c 0.896,-3.568 4.088,-6.064 7.768,-6.064 H 104 v 80 H 22.368 Z M 104,459.992 c -17.648,0 -32,-14.352 -32,-32 0,-17.648 14.352,-32 32,-32 17.648,0 32,14.352 32,32 0,17.648 -14.352,32 -32,32 z m 286,0 c -17.648,0 -32,-14.352 -32,-32 0,-17.648 14.352,-32 32,-32 17.648,0 32,14.352 32,32 0,17.648 -14.352,32 -32,32 z m 74,-56 c 0,13.232 -10.768,24 -24,24 h -2 c 0,-26.472 -21.528,-48 -48,-48 -26.472,0 -48,21.528 -48,48 h -14 l 0,-90.69638 h -16 l 0,90.69638 h -88 l 0,-90.69638 h -16 l 0,90.69638 h -56 c 0,-26.472 -21.528,-48 -48,-48 -26.472,0 -48,21.528 -48,48 H 40 c -13.232,0 -24,-10.768 -24,-24 v -64 H 441.808 456 c 4.408,0 8,3.584 8,8 z"
   data-original="#2D2D2D"
   class=""
   id="path20"
   inkscape:connector-curvature="0"
   sodipodi:nodetypes="scccssccssscsccccscssssccccsccccccccccccsccccsssssssssssscsccccccccccscssccsss" />
	<rect
   x="176"
   y="99.992"
   style="fill:#2D2D2D"
   width="16"
   height="16"
   data-original="#2D2D2D"
   class=""
   id="rect22" />
	<rect
   x="219.432"
   y="163.992"
   style="fill:#2D2D2D"
   width="16"
   height="16"
   data-original="#2D2D2D"
   class=""
   id="rect24" />
	<path
   style="fill:#2D2D2D"
   d="M142.344,118.368l13.456,8.656c2.168-3.376,5.176-6.176,8.704-8.112l-7.688-14.032   C150.96,108.096,145.96,112.76,142.344,118.368z"
   data-original="#2D2D2D"
   class=""
   id="path26" />
	<rect
   x="208"
   y="99.992"
   style="fill:#2D2D2D"
   width="16"
   height="16"
   data-original="#2D2D2D"
   class=""
   id="rect28" />
	<path
   style="fill:#2D2D2D"
   d="M280,213.144v-9.152c0-2.856-0.304-5.712-0.904-8.488l-15.64,3.376   c0.36,1.664,0.544,3.384,0.544,5.112v9.152L280,213.144L280,213.144z"
   data-original="#2D2D2D"
   class=""
   id="path30" />
	<path
   style="fill:#2D2D2D"
   d="M170.336,179.584l2.232-15.84c-3.944-0.552-7.728-2.128-10.936-4.528l-9.6,12.8   C157.392,176.032,163.72,178.656,170.336,179.584z"
   data-original="#2D2D2D"
   class=""
   id="path32" />
	<path
   style="fill:#2D2D2D"
   d="M136,139.992c0,5.8,1.216,11.392,3.616,16.624l14.544-6.656c-1.432-3.136-2.16-6.488-2.16-9.968   c0-0.576,0.016-1.152,0.064-1.712l-15.96-1.16C136.032,138.08,136,139.024,136,139.992z"
   data-original="#2D2D2D"
   class=""
   id="path34" />
	<rect
   x="187.432"
   y="163.992"
   style="fill:#2D2D2D"
   width="16"
   height="16"
   data-original="#2D2D2D"
   class=""
   id="rect36" />
	<path
   style="fill:#2D2D2D"
   d="M253.992,166.504l-5.6,14.984c3.744,1.4,7.112,3.744,9.752,6.792l12.088-10.488   C265.84,172.744,260.224,168.832,253.992,166.504z"
   data-original="#2D2D2D"
   class=""
   id="path38" />
</g></g> </svg>