<?xml version="1.0" encoding="UTF-8" standalone="no"?>
<svg
   xmlns:dc="http://purl.org/dc/elements/1.1/"
   xmlns:cc="http://creativecommons.org/ns#"
   xmlns:rdf="http://www.w3.org/1999/02/22-rdf-syntax-ns#"
   xmlns:svg="http://www.w3.org/2000/svg"
   xmlns="http://www.w3.org/2000/svg"
   xmlns:sodipodi="http://sodipodi.sourceforge.net/DTD/sodipodi-0.dtd"
   xmlns:inkscape="http://www.inkscape.org/namespaces/inkscape"
   height="512px"
   viewBox="-26 0 512 512"
   width="512px"
   class=""
   version="1.1"
   id="svg36"
   sodipodi:docname="upgrade.svg"
   inkscape:version="0.92.4 (5da689c313, 2019-01-14)">
  <metadata
     id="metadata42">
    <rdf:RDF>
      <cc:Work
         rdf:about="">
        <dc:format>image/svg+xml</dc:format>
        <dc:type
           rdf:resource="http://purl.org/dc/dcmitype/StillImage" />
      </cc:Work>
    </rdf:RDF>
  </metadata>
  <defs
     id="defs40" />
  <sodipodi:namedview
     pagecolor="#ffffff"
     bordercolor="#666666"
     borderopacity="1"
     objecttolerance="10"
     gridtolerance="10"
     guidetolerance="10"
     inkscape:pageopacity="0"
     inkscape:pageshadow="2"
     inkscape:window-width="1920"
     inkscape:window-height="1147"
     id="namedview38"
     showgrid="false"
     inkscape:zoom="1.3037281"
     inkscape:cx="186.64731"
     inkscape:cy="261.13761"
     inkscape:window-x="-8"
     inkscape:window-y="-8"
     inkscape:window-maximized="1"
     inkscape:current-layer="g18" />
  <g
     id="g34">
    <g
       fill-rule="evenodd"
       id="g18">
      <path
         d="m 475.64826,119.13453 c 0,60.80806 -49.29232,110.10396 -110.10397,110.10396 -60.80807,0 -110.10038,-49.2959 -110.10038,-110.10396 0,-60.808078 49.29231,-110.1039784 110.10038,-110.1039784 60.81165,0 110.10397,49.2959004 110.10397,110.1039784 z m 0,0"
         data-original="#A6F074"
         class=""
         style="fill:#5689f2;stroke-width:0.9175331"
         data-old_color="#a6f074"
         id="path14"
         inkscape:connector-curvature="0" />
      <path
         d="m 342.60955,183.36185 v -67.43869 h -32.11724 l 55.05198,-61.015948 55.05198,61.015948 h -32.11365 v 67.43869 z m 22.93474,0"
         data-original="#FFF"
         class=""
         data-old_color="#fff"
         style="fill:#ffffff;stroke-width:0.9175331"
         id="path16"
         inkscape:connector-curvature="0" />
      <path
         inkscape:connector-curvature="0"
         style="fill:#edf4fc;stroke-width:2.39111948"
         d="m 259.16326,382.129 c -0.71734,-11.71648 -8.84714,-21.52007 -20.08541,-24.38942 l -52.60463,-13.15116 -31.56278,-15.54227 -10.76003,30.60633 c -0.71734,1.67378 -2.39112,2.86934 -4.30402,2.86934 h -32.75833 c -1.91289,0 -3.58668,-1.19556 -4.30401,-2.86934 L 92.024013,329.04615 60.461233,344.58842 7.8565926,357.73958 c -11.23826,2.86935 -19.6071796,12.67294 -20.0853996,24.38942 l -6.45602,115.9693 c -0.23912,5.73869 4.0649,10.76004 10.0426996,11.23826 h 0.47822 263.2622574 c 5.73869,0 10.52093,-4.78223 10.52093,-10.52092 0,-0.23911 0,-0.47823 0,-0.47823 z"
         data-original="#EDF4FC"
         id="path32-3" />
      <g
         transform="matrix(2.3911196,0,0,2.3911196,-182.47653,-97.051368)"
         style="fill:#f9d0b4"
         id="g42">
        <path
           inkscape:connector-curvature="0"
           d="m 157.7,120.8 c -0.6,0 -1.2,0 -1.8,0.1 v 21.4 c 0,0.6 0,1.3 -0.1,1.9 6.4,1 12.5,-3.3 13.6,-9.8 1,-6.4 -3.3,-12.5 -9.8,-13.6 -0.6,0 -1.3,0 -1.9,0 z"
           data-original="#F9D0B4"
           id="path34" />
        <path
           inkscape:connector-curvature="0"
           d="m 99.3,142.3 v -21.4 c -6.4,-1 -12.5,3.3 -13.6,9.8 -1,6.4 3.3,12.5 9.8,13.6 1.3,0.2 2.6,0.2 3.9,0 -0.1,-0.7 -0.1,-1.3 -0.1,-2 z"
           data-original="#F9D0B4"
           id="path36" />
        <path
           inkscape:connector-curvature="0"
           d="m 131.8,108 c -10.3,13 -25.6,11.2 -30.7,10.1 -0.8,-0.2 -1.6,0.3 -1.8,1.2 v 0.3 22.8 c 0,15.6 12.7,28.3 28.3,28.3 15.6,0 28.3,-12.7 28.3,-28.3 v -25.2 c 0,-0.1 0,-0.3 0,-0.4 0,-0.8 -0.7,-1.5 -1.5,-1.5 -11.8,-0.3 -18,-5 -20.3,-7.3 -0.6,-0.6 -1.6,-0.6 -2.2,0 0,-0.1 0,0 -0.1,0 z"
           data-original="#F9D0B4"
           id="path38" />
        <path
           inkscape:connector-curvature="0"
           d="m 127.6,170.7 c -4.4,0 -8.7,-1 -12.6,-3 v 10.5 l 4.5,12.8 c 0.3,0.7 1,1.2 1.8,1.2 H 135 c 0.8,0 1.5,-0.5 1.8,-1.2 l 4.5,-12.8 v -10.9 c -4.4,2.2 -9,3.4 -13.7,3.4 z"
           data-original="#F9D0B4"
           id="path40" />
      </g>
      <path
         inkscape:connector-curvature="0"
         style="fill:#000000;fill-opacity:1;stroke-width:2.39111948"
         d="m 50.657643,191.79588 c 1.43467,0 2.86934,0 4.30401,0.23911 v -3.34756 c 0,-1.9129 1.67379,-3.58668 3.58668,-3.58668 h 0.71734 c 12.19471,2.63023 48.778837,6.93424 73.407357,-24.15031 1.19556,-1.67378 3.58668,-1.9129 5.02135,-0.71734 0,0 0.23911,0.23912 0.23911,0.23912 5.73869,5.49957 20.56363,16.73783 48.53973,17.45517 1.9129,0 3.34757,1.67378 3.58668,3.58668 v 0.95645 9.08625 c 8.84714,-1.43467 17.69429,1.43467 23.9112,7.65158 v -50.93084 c 0,-21.28097 -17.21606,-38.49703 -38.73614,-38.73614 -6.93425,0 -13.86849,1.91289 -19.84629,5.49957 -6.93425,-11.71648 -19.60718,-18.889838 -33.23656,-18.889838 h -19.84629 c -38.497017,0 -69.820687,31.323668 -69.820687,69.820688 v 31.32367 c 5.49958,-3.34757 11.71649,-5.49958 18.17251,-5.49958 z"
         data-original="#5B5D60"
         class=""
         id="path44" />
      <path
         style="stroke-width:2.39111948"
         inkscape:connector-curvature="0"
         d="m 271.59708,497.62008 -6.45602,-115.9693 c -0.71734,-14.34672 -10.76004,-26.54143 -24.62853,-29.889 l -51.8873,-13.15115 -27.73699,-13.62939 V 306.0914 c 18.65074,-11.47738 31.56278,-30.36722 34.67124,-52.12641 18.88984,-0.47822 33.71478,-16.0205 33.47567,-34.91034 -0.23911,-8.12981 -3.34757,-16.02051 -8.60803,-21.9983 v -48.53973 c 0,-24.62853 -20.0854,-44.71394 -44.71394,-44.71394 -6.21691,0 -12.19471,1.19556 -17.93339,3.82579 -8.36892,-10.760028 -21.28097,-17.216058 -35.14946,-17.216058 h -19.84628 c -41.844597,0 -75.798487,33.953898 -75.798487,75.798488 v 28.69344 c -13.62939,12.91204 -14.10762,34.67123 -1.19556,48.30061 6.21691,6.69514 14.82494,10.52093 23.91119,10.52093 3.34757,22.47652 16.97695,42.0837 36.58413,53.32197 v 17.69428 l -27.73699,13.62938 -51.8873004,13.15116 c -13.86849,3.34757 -23.9111896,15.54228 -24.6285296,29.889 l -6.45602,115.9693 c -0.47822,9.08625 6.45602,16.97695 15.5422796,17.45517 h 0.95644 263.0231474 c 9.08626,0 16.49873,-7.41247 16.49873,-16.49873 0,0 0,-0.47822 0,-0.71733 z M 196.27681,242.24851 v -44.47483 c 12.19471,0.95645 21.52008,11.47738 20.56363,23.9112 -0.71733,10.99915 -9.56448,19.60718 -20.56363,20.56363 z M 38.941153,187.73098 v -21.04185 c 0,-35.14946 28.69344,-63.8429 63.842897,-63.8429 h 19.84628 c 11.47737,0 22.23741,6.21691 27.9761,16.0205 1.67378,2.86935 5.26046,3.8258 8.1298,2.15201 15.30317,-9.32536 35.38858,-4.30401 44.71394,10.99915 3.10846,5.02135 4.78224,10.99915 4.54313,16.97695 v 39.69259 c -3.82579,-1.67379 -7.8907,-2.63023 -11.9556,-2.86935 v -3.82579 c 0,-5.02135 -4.0649,-9.32536 -9.32537,-9.32536 -26.54142,-0.71734 -39.93169,-11.23827 -44.71393,-15.78139 -3.82579,-3.8258 -9.80359,-3.58668 -13.62938,0.23911 -0.23912,0.23911 -0.47823,0.47822 -0.71734,0.71733 -22.2374,27.9761 -54.756627,24.62854 -67.429557,21.9983 -4.78224,-0.95644 -9.56448,1.67379 -10.99915,6.21692 -3.34757,-0.23912 -6.93425,0.47822 -10.28182,1.67378 z m -10.52092,32.28011 c 0,-11.71648 9.08625,-21.28096 20.56363,-22.23741 v 44.47483 c -11.71649,-0.95645 -20.56363,-10.52093 -20.56363,-22.23742 z m 32.51922,23.19386 v -51.64818 c 14.10761,2.39112 49.735287,4.78224 74.842037,-24.86764 7.65158,6.69513 22.71563,16.25961 48.53972,17.45517 v 59.06065 c 0,22.47653 -12.43382,43.27927 -32.041,54.03931 h -0.23911 c -17.69428,9.56447 -38.97524,10.0427 -56.908617,0.95644 h -0.23913 c -20.80274,-10.28181 -33.9539,-31.56277 -33.9539,-54.99575 z m 87.754077,68.86425 v 15.78139 l -10.0427,28.69343 H 108.28362 L 98.240933,327.85059 v -15.06406 c 16.498697,5.73869 34.432097,5.49958 50.452597,-0.71733 z m -161.161447,186.26821 6.4560196,-115.9693 c 0.47822,-9.08625 6.93424997,-16.73783 15.54228,-18.88984 L 62.135013,350.32711 c 0.47823,0 0.71734,-0.23911 1.19556,-0.47822 l 25.58498,-12.67294 8.36893,24.15031 c 1.43467,4.30402 5.499567,6.93425 9.803577,6.93425 h 32.75833 c 4.54313,0 8.36892,-2.86934 9.80359,-6.93425 l 8.36892,-24.15031 25.58498,12.67294 c 0.47822,0.23911 0.71733,0.23911 1.19556,0.47822 l 52.60463,13.15116 c 8.84714,2.15201 15.06405,9.80359 15.54228,18.88984 l 6.45602,115.9693 c 0.23911,2.63024 -1.67378,4.78224 -4.30402,4.78224 h -0.23911 -46.38772 v -58.58243 c 0,-3.34756 -2.63023,-5.9778 -5.9778,-5.9778 -3.34756,0 -5.9778,2.63024 -5.9778,5.9778 v 58.58243 H 48.266523 v -58.58243 c 0,-3.34756 -2.63023,-5.9778 -5.9778,-5.9778 -3.34757,0 -5.9778,2.63024 -5.9778,5.9778 v 58.58243 H -7.9247974 c -2.6302296,0 -4.5431196,-2.152 -4.5431196,-4.54312 z"
         data-original="#000000"
         class=""
         id="path46" />
      <path
         d="m 365.54429,-0.14477841 c -65.76849,0 -119.27571,53.50723041 -119.27571,119.27930841 0,65.76847 53.50722,119.27929 119.27571,119.27929 65.77207,0 119.27931,-53.51082 119.27931,-119.27929 0,-65.772078 -53.50724,-119.27930841 -119.27931,-119.27930841 z m 0,220.20793841 c -55.65053,0 -100.92505,-45.2781 -100.92505,-100.92863 0,-55.650538 45.27452,-100.928648 100.92505,-100.928648 55.65411,0 100.92864,45.27811 100.92864,100.928648 0,55.65053 -45.27453,100.92863 -100.92864,100.92863 z m 0,0"
         data-original="#000000"
         class=""
         style="fill:#000000;stroke-width:0.9175331"
         id="path30"
         inkscape:connector-curvature="0" />
      <path
         d="m 372.3577,48.760442 c -1.73829,-1.92824 -4.21492,-3.02857 -6.81341,-3.02857 -2.5949,0 -5.07152,1.10033 -6.80981,3.02857 l -55.052,61.015948 c -2.43001,2.69168 -3.0429,6.55894 -1.57341,9.87424 1.47308,3.31172 4.7597,5.44785 8.38682,5.44785 h 22.93832 v 58.26337 c 0,5.06792 4.10741,9.17531 9.17534,9.17531 h 45.87307 c 5.06794,0 9.17532,-4.10739 9.17532,-9.17531 v -58.26337 h 22.94192 c 3.62355,0 6.91017,-2.13613 8.38325,-5.45144 1.47307,-3.31171 0.8566,-7.17897 -1.56985,-9.87424 z m 16.12492,57.987378 c -5.06793,0 -9.17533,4.1074 -9.17533,9.17534 v 58.26335 h -27.52241 v -58.26335 c 0,-5.06794 -4.10739,-9.17534 -9.17533,-9.17534 h -11.47992 l 34.41466,-38.145718 34.41466,38.145718 z m 0,0"
         data-original="#000000"
         class=""
         style="fill:#000000;stroke-width:0.9175331"
         id="path32"
         inkscape:connector-curvature="0" />
    </g>
  </g>
</svg>
