<?xml version="1.0" encoding="UTF-8" standalone="no"?>
<svg
   xmlns:dc="http://purl.org/dc/elements/1.1/"
   xmlns:cc="http://creativecommons.org/ns#"
   xmlns:rdf="http://www.w3.org/1999/02/22-rdf-syntax-ns#"
   xmlns:svg="http://www.w3.org/2000/svg"
   xmlns="http://www.w3.org/2000/svg"
   xmlns:sodipodi="http://sodipodi.sourceforge.net/DTD/sodipodi-0.dtd"
   xmlns:inkscape="http://www.inkscape.org/namespaces/inkscape"
   height="512px"
   viewBox="-26 0 512 512"
   width="512px"
   class=""
   version="1.1"
   id="svg36"
   sodipodi:docname="upgrade.svg"
   inkscape:version="0.92.4 (5da689c313, 2019-01-14)">
  <metadata
     id="metadata42">
    <rdf:RDF>
      <cc:Work
         rdf:about="">
        <dc:format>image/svg+xml</dc:format>
        <dc:type
           rdf:resource="http://purl.org/dc/dcmitype/StillImage" />
      </cc:Work>
    </rdf:RDF>
  </metadata>
  <defs
     id="defs40" />
  <sodipodi:namedview
     pagecolor="#ffffff"
     bordercolor="#666666"
     borderopacity="1"
     objecttolerance="10"
     gridtolerance="10"
     guidetolerance="10"
     inkscape:pageopacity="0"
     inkscape:pageshadow="2"
     inkscape:window-width="1920"
     inkscape:window-height="1147"
     id="namedview38"
     showgrid="false"
     inkscape:zoom="1.84375"
     inkscape:cx="191.91773"
     inkscape:cy="423.38169"
     inkscape:window-x="-8"
     inkscape:window-y="-8"
     inkscape:window-maximized="1"
     inkscape:current-layer="g18" />
  <g
     id="g34">
    <g
       fill-rule="evenodd"
       id="g18">
      <path
         d="m 477.98554,93.662395 c 0,47.259395 -38.30948,85.571655 -85.57166,85.571655 -47.2594,0 -85.56887,-38.31226 -85.56887,-85.571655 0,-47.259403 38.30947,-85.5716666 85.56887,-85.5716666 47.26218,0 85.57166,38.3122636 85.57166,85.5716666 z m 0,0"
         data-original="#A6F074"
         class=""
         style="fill:#5689f2;stroke-width:0.71309716"
         data-old_color="#a6f074"
         id="path14"
         inkscape:connector-curvature="0" />
      <path
         d="M 374.58924,143.5792 V 91.166554 h -24.96118 l 42.78582,-47.420965 42.78583,47.420965 h -24.9584 V 143.5792 Z m 17.82464,0"
         data-original="#FFF"
         class=""
         data-old_color="#fff"
         style="fill:#ffffff;stroke-width:0.71309716"
         id="path16"
         inkscape:connector-curvature="0" />
      <path
         inkscape:connector-curvature="0"
         style="fill:#edf4fc;stroke-width:2"
         d="m 338.50695,404.94068 c -0.6,-9.8 -7.4,-18 -16.8,-20.4 l -44,-11 -26.4,-13 -9,25.6 c -0.6,1.4 -2,2.4 -3.6,2.4 h -27.39999 c -1.6,0 -3,-1 -3.6,-2.4 l -9.00001,-25.6 -26.4,13 -44,11 c -9.4,2.4 -16.4,10.6 -16.8,20.4 l -5.4,97 c -0.2,4.8 3.4,9 8.4,9.4 h 0.4 220.2 c 4.8,0 8.8,-4 8.8,-8.8 0,-0.2 0,-0.4 0,-0.4 z"
         data-original="#EDF4FC"
         id="path32-3" />
      <g
         transform="matrix(2,0,0,2,-30.893045,4.1406775)"
         style="fill:#f9d0b4"
         id="g42">
        <path
           inkscape:connector-curvature="0"
           d="m 157.7,120.8 c -0.6,0 -1.2,0 -1.8,0.1 v 21.4 c 0,0.6 0,1.3 -0.1,1.9 6.4,1 12.5,-3.3 13.6,-9.8 1,-6.4 -3.3,-12.5 -9.8,-13.6 -0.6,0 -1.3,0 -1.9,0 z"
           data-original="#F9D0B4"
           id="path34" />
        <path
           inkscape:connector-curvature="0"
           d="m 99.3,142.3 v -21.4 c -6.4,-1 -12.5,3.3 -13.6,9.8 -1,6.4 3.3,12.5 9.8,13.6 1.3,0.2 2.6,0.2 3.9,0 -0.1,-0.7 -0.1,-1.3 -0.1,-2 z"
           data-original="#F9D0B4"
           id="path36" />
        <path
           inkscape:connector-curvature="0"
           d="m 131.8,108 c -10.3,13 -25.6,11.2 -30.7,10.1 -0.8,-0.2 -1.6,0.3 -1.8,1.2 v 0.3 22.8 c 0,15.6 12.7,28.3 28.3,28.3 15.6,0 28.3,-12.7 28.3,-28.3 v -25.2 c 0,-0.1 0,-0.3 0,-0.4 0,-0.8 -0.7,-1.5 -1.5,-1.5 -11.8,-0.3 -18,-5 -20.3,-7.3 -0.6,-0.6 -1.6,-0.6 -2.2,0 0,-0.1 0,0 -0.1,0 z"
           data-original="#F9D0B4"
           id="path38" />
        <path
           inkscape:connector-curvature="0"
           d="m 127.6,170.7 c -4.4,0 -8.7,-1 -12.6,-3 v 10.5 l 4.5,12.8 c 0.3,0.7 1,1.2 1.8,1.2 H 135 c 0.8,0 1.5,-0.5 1.8,-1.2 l 4.5,-12.8 v -10.9 c -4.4,2.2 -9,3.4 -13.7,3.4 z"
           data-original="#F9D0B4"
           id="path40" />
      </g>
      <path
         inkscape:connector-curvature="0"
         style="fill:#000000;stroke-width:2;fill-opacity:1"
         d="m 164.10695,245.74068 c 1.2,0 2.4,0 3.6,0.2 v -2.8 c 0,-1.6 1.4,-3 3,-3 h 0.6 c 10.2,2.2 40.80001,5.8 61.4,-20.2 1,-1.4 3,-1.6 4.2,-0.6 0,0 0.2,0.2 0.2,0.2 4.8,4.6 17.2,14 40.6,14.6 1.6,0 2.8,1.4 3,3 v 0.8 7.6 c 7.4,-1.2 14.8,1.2 20,6.4 v -42.6 c 0,-17.8 -14.4,-32.2 -32.4,-32.4 -5.8,0 -11.6,1.6 -16.6,4.6 -5.8,-9.8 -16.4,-15.8 -27.8,-15.8 h -16.59999 c -32.20001,0 -58.40001,26.2 -58.40001,58.4 v 26.2 c 4.6,-2.8 9.8,-4.6 15.2,-4.6 z"
         data-original="#5B5D60"
         class=""
         id="path44" />
      <path
         style="stroke-width:2"
         inkscape:connector-curvature="0"
         d="m 348.90695,501.54068 -5.4,-97 c -0.6,-12 -9,-22.2 -20.6,-25 l -43.4,-11 -23.2,-11.4 v -15.8 c 15.6,-9.6 26.4,-25.4 29,-43.6 15.8,-0.4 28.2,-13.4 28,-29.2 -0.2,-6.8 -2.8,-13.4 -7.2,-18.4 v -40.6 c 0,-20.6 -16.8,-37.4 -37.4,-37.4 -5.2,0 -10.2,1 -15,3.2 -7,-9 -17.8,-14.4 -29.4,-14.4 h -16.59999 c -35.00001,0 -63.40001,28.4 -63.40001,63.4 v 24 c -11.4,10.8 -11.8,29 -1,40.4 5.2,5.6 12.4,8.8 20,8.8 2.8,18.8 14.2,35.2 30.6,44.6 v 14.8 l -23.2,11.4 -43.4,11 c -11.6,2.8 -20,13 -20.6,25 l -5.4,97 c -0.4,7.6 5.4,14.2 13,14.6 h 0.8 220 c 7.6,0 13.8,-6.2 13.8,-13.8 0,0 0,-0.4 0,-0.6 z m -63,-213.6 v -37.2 c 10.2,0.8 18,9.6 17.2,20 -0.6,9.2 -8,16.4 -17.2,17.2 z m -131.6,-45.6 v -17.6 c 0,-29.4 24,-53.4 53.40001,-53.4 h 16.59999 c 9.6,0 18.6,5.2 23.4,13.4 1.4,2.4 4.4,3.2 6.8,1.8 12.8,-7.8 29.6,-3.6 37.4,9.2 2.6,4.2 4,9.2 3.8,14.2 v 33.2 c -3.2,-1.4 -6.6,-2.2 -10,-2.4 v -3.2 c 0,-4.2 -3.4,-7.8 -7.8,-7.8 -22.2,-0.6 -33.4,-9.4 -37.4,-13.2 -3.2,-3.2 -8.2,-3 -11.4,0.2 -0.2,0.2 -0.4,0.4 -0.6,0.6 -18.59999,23.4 -45.8,20.6 -56.4,18.4 -4,-0.8 -8,1.4 -9.2,5.2 -2.8,-0.2 -5.8,0.4 -8.6,1.4 z m -8.8,27 c 0,-9.8 7.6,-17.8 17.2,-18.6 v 37.2 c -9.8,-0.8 -17.2,-8.8 -17.2,-18.6 z m 27.2,19.4 v -43.2 c 11.8,2 41.60001,4 62.6,-20.8 6.4,5.6 19,13.6 40.6,14.6 v 49.4 c 0,18.8 -10.4,36.2 -26.8,45.2 h -0.2 c -14.8,8 -32.59999,8.4 -47.59999,0.8 h -0.20001 c -17.4,-8.6 -28.4,-26.4 -28.4,-46 z m 73.4,57.6 v 13.2 l -8.4,24 h -25.39999 l -8.4,-24 v -12.6 c 13.79999,4.8 28.79999,4.6 42.19999,-0.6 z m -134.8,155.8 5.4,-97 c 0.4,-7.6 5.8,-14 13,-15.8 l 44,-11 c 0.4,0 0.6,-0.2 1,-0.4 l 21.4,-10.6 7.00001,20.2 c 1.2,3.6 4.6,5.8 8.2,5.8 h 27.39999 c 3.8,0 7,-2.4 8.2,-5.8 l 7,-20.2 21.4,10.6 c 0.4,0.2 0.6,0.2 1,0.4 l 44,11 c 7.4,1.8 12.6,8.2 13,15.8 l 5.4,97 c 0.2,2.2 -1.4,4 -3.6,4 h -0.2 -38.8 v -49 c 0,-2.8 -2.2,-5 -5,-5 -2.8,0 -5,2.2 -5,5 v 49 h -124 v -49 c 0,-2.8 -2.2,-5 -5,-5 -2.8,0 -5,2.2 -5,5 v 49 h -37 c -2.2,0 -3.8,-1.8 -3.8,-3.8 z"
         data-original="#000000"
         class=""
         id="path46" />
      <path
         style="stroke-width:2"
         inkscape:connector-curvature="0"
         d="m 225.10695,424.54068 c 2.8,0 5,-2.2 5,-5 0,-2.8 -2.2,-5 -5,-5 -2.8,0 -5,2.2 -5,5 0,2.8 2.2,5 5,5 z"
         data-original="#000000"
         class=""
         id="path48" />
      <path
         style="stroke-width:2"
         inkscape:connector-curvature="0"
         d="m 225.10695,454.94068 c 2.8,0 5,-2.2 5,-5 0,-2.8 -2.2,-5 -5,-5 -2.8,0 -5,2.2 -5,5 0,2.6 2.2,5 5,5 z"
         data-original="#000000"
         class=""
         id="path50" />
      <path
         style="stroke-width:2"
         inkscape:connector-curvature="0"
         d="m 225.10695,485.14068 c 2.8,0 5,-2.2 5,-5 0,-2.8 -2.2,-5 -5,-5 -2.8,0 -5,2.2 -5,5 0,2.8 2.2,5 5,5 z"
         data-original="#000000"
         class=""
         id="path52" />
      <path
         inkscape:connector-curvature="0"
         style="fill:#f5c84c;stroke-width:2"
         d="m 395.4404,379.658 c -8,-1.4 -14.4,-7.6 -16,-15.6 0,-0.2 -0.2,-0.4 -0.4,-0.2 -0.2,0 -0.2,0.2 -0.2,0.2 -1.6,8 -8,14.2 -16,15.6 -0.2,0 -0.4,0.2 -0.2,0.4 0,0.2 0.2,0.2 0.2,0.2 8,1.4 14.4,7.6 16,15.6 0,0.2 0.2,0.4 0.4,0.2 0.2,0 0.2,-0.2 0.2,-0.2 1.6,-8 8,-14.2 16,-15.6 0.2,0 0.4,-0.2 0.2,-0.4 0.2,0 0,-0.2 -0.2,-0.2 z"
         data-original="#F5C84C"
         id="path22" />
      <path
         inkscape:connector-curvature="0"
         style="fill:#b2e26d;stroke-width:2"
         d="m 96.240403,248.05799 h -4.4 v -4.4 c 0,-3.4 -2.6,-6 -6,-6 -3.4,0 -6,2.6 -6,6 v 4.4 h -4.4 c -3.4,0 -6,2.6 -6,6 0,3.4 2.6,6 6,6 h 4.4 v 4.4 c 0,3.4 2.6,6 6,6 3.4,0 6,-2.6 6,-6 v -4.4 h 4.4 c 3.4,0 5.999997,-2.6 5.999997,-6 0,-3.4 -2.599997,-6 -5.999997,-6 z"
         data-original="#B2E26D"
         id="path24" />
      <circle
         style="fill:#f5c84c;stroke-width:2"
         cx="43.440411"
         cy="217.05798"
         r="6.4000001"
         data-original="#F5C84C"
         id="circle26" />
      <circle
         cx="327.44037"
         cy="349.05798"
         r="6.4000001"
         data-original="#70D6F9"
         class="active-path"
         style="fill:#5689f2;stroke-width:2"
         data-old_color="#70d6f9"
         id="circle28" />
      <circle
         style="fill:#fc657e;stroke-width:2"
         cx="341.24036"
         cy="210.85799"
         r="6.4000001"
         data-original="#FC657E"
         class=""
         id="circle30" />
    </g>
    <path
       d="m 392.41388,0.95975713 c -51.11458,0 -92.69984,41.58525987 -92.69984,92.70263787 0,51.114575 41.58526,92.702625 92.69984,92.702625 51.11737,0 92.70264,-41.58805 92.70264,-92.702625 0,-51.117378 -41.58527,-92.70263787 -92.70264,-92.70263787 z m 0,171.14332287 c -43.25101,0 -78.4379,-35.18967 -78.4379,-78.440685 0,-43.251017 35.18689,-78.440695 78.4379,-78.440695 43.2538,0 78.44069,35.189678 78.44069,78.440695 0,43.251015 -35.18689,78.440685 -78.44069,78.440685 z m 0,0"
       data-original="#000000"
       class=""
       style="fill:#000000;stroke-width:0.71309716"
       id="path30"
       inkscape:connector-curvature="0" />
    <path
       d="m 397.70919,38.968387 c -1.35098,-1.498608 -3.27579,-2.353776 -5.29531,-2.353776 -2.01673,0 -3.94153,0.855168 -5.29251,2.353776 l -42.78584,47.42096 c -1.88858,2.091948 -2.36491,5.097545 -1.22284,7.674156 1.14486,2.573837 3.69919,4.234018 6.51815,4.234018 h 17.82742 V 143.5792 c 0,3.93874 3.19224,7.13096 7.13098,7.13096 h 35.65207 c 3.93875,0 7.13097,-3.19222 7.13097,-7.13096 V 98.297521 h 17.83022 c 2.81618,0 5.37051,-1.660181 6.51537,-4.236803 1.14486,-2.573826 0.66574,-5.579423 -1.22007,-7.674156 z m 12.53212,45.067185 c -3.93874,0 -7.13097,3.192232 -7.13097,7.130982 V 136.44822 H 381.72021 V 91.166554 c 0,-3.93875 -3.19222,-7.130982 -7.13097,-7.130982 h -8.92207 l 26.74671,-29.646456 26.74672,29.646456 z m 0,0"
       data-original="#000000"
       class=""
       style="fill:#000000;stroke-width:0.71309716"
       id="path32"
       inkscape:connector-curvature="0" />
  </g>
</svg>
