<?xml version="1.0" encoding="UTF-8" standalone="no"?>
<svg
   xmlns:dc="http://purl.org/dc/elements/1.1/"
   xmlns:cc="http://creativecommons.org/ns#"
   xmlns:rdf="http://www.w3.org/1999/02/22-rdf-syntax-ns#"
   xmlns:svg="http://www.w3.org/2000/svg"
   xmlns="http://www.w3.org/2000/svg"
   xmlns:sodipodi="http://sodipodi.sourceforge.net/DTD/sodipodi-0.dtd"
   xmlns:inkscape="http://www.inkscape.org/namespaces/inkscape"
   height="512px"
   viewBox="-26 0 512 512"
   width="512px"
   class=""
   version="1.1"
   id="svg36"
   sodipodi:docname="upgrade-black.svg"
   inkscape:version="0.92.4 (5da689c313, 2019-01-14)">
  <metadata
     id="metadata42">
    <rdf:RDF>
      <cc:Work
         rdf:about="">
        <dc:format>image/svg+xml</dc:format>
        <dc:type
           rdf:resource="http://purl.org/dc/dcmitype/StillImage" />
      </cc:Work>
    </rdf:RDF>
  </metadata>
  <defs
     id="defs40" />
  <sodipodi:namedview
     pagecolor="#ffffff"
     bordercolor="#666666"
     borderopacity="1"
     objecttolerance="10"
     gridtolerance="10"
     guidetolerance="10"
     inkscape:pageopacity="0"
     inkscape:pageshadow="2"
     inkscape:window-width="1920"
     inkscape:window-height="1147"
     id="namedview38"
     showgrid="false"
     inkscape:zoom="1.3037281"
     inkscape:cx="0.52766406"
     inkscape:cy="180.48787"
     inkscape:window-x="-8"
     inkscape:window-y="-8"
     inkscape:window-maximized="1"
     inkscape:current-layer="g18"
     inkscape:snap-grids="false"
     inkscape:snap-to-guides="false"
     inkscape:snap-nodes="false" />
  <g
     id="g34"
     transform="translate(0,-6.1362488)">
    <g
       id="g18"
       style="fill-rule:evenodd">
      <path
         d="m 475.94118,120.23907 c 0,60.80806 -49.29232,110.10396 -110.10397,110.10396 -60.80807,0 -110.10038,-49.2959 -110.10038,-110.10396 0,-60.808078 49.29231,-110.103982 110.10038,-110.103982 60.81165,0 110.10397,49.295904 110.10397,110.103982 z m 0,0"
         data-original="#A6F074"
         class=""
         style="fill:#333333;fill-opacity:0;stroke-width:0.9175331"
         data-old_color="#a6f074"
         id="path14"
         inkscape:connector-curvature="0" />
      <path
         d="M 342.90247,184.46639 V 117.0277 h -32.11724 l 55.05198,-61.015955 55.05198,61.015955 h -32.11365 v 67.43869 z m 22.93474,0"
         data-original="#FFF"
         class=""
         data-old_color="#fff"
         style="fill:none;stroke-width:0.9175331"
         id="path16"
         inkscape:connector-curvature="0" />
      <path
         inkscape:connector-curvature="0"
         style="fill:#333333;fill-opacity:1;stroke-width:2.39111948"
         d="m 259.45618,384.00057 c -0.71734,-11.71648 -8.84714,-21.52007 -20.08541,-24.38942 l -52.60463,-13.15116 -31.56278,-15.54227 -10.76003,30.60633 c -0.71734,1.67378 -2.39112,2.86934 -4.30402,2.86934 h -32.75833 c -1.91289,0 -3.58668,-1.19556 -4.30401,-2.86934 L 92.316921,330.91772 60.754141,346.45999 8.1495089,359.61115 c -11.238262,2.86935 -19.6071799,12.67294 -20.0854039,24.38942 l -6.456023,115.9693 c -0.239112,5.73869 4.064903,10.76004 10.0427019,11.23826 h 0.478224 263.2622621 c 5.73869,0 10.52093,-4.78223 10.52093,-10.52092 0,-0.23911 0,-0.47823 0,-0.47823 z"
         data-original="#EDF4FC"
         id="path32-3" />
      <g
         transform="matrix(2.3911196,0,0,2.3911196,-182.18361,-95.179797)"
         style="fill:#333333;fill-opacity:1"
         id="g42">
        <path
           inkscape:connector-curvature="0"
           d="m 157.7,120.8 c -0.6,0 -1.2,0 -1.8,0.1 v 21.4 c 0,0.6 0,1.3 -0.1,1.9 6.4,1 12.5,-3.3 13.6,-9.8 1,-6.4 -3.3,-12.5 -9.8,-13.6 -0.6,0 -1.3,0 -1.9,0 z"
           data-original="#F9D0B4"
           id="path34"
           style="fill:#333333;fill-opacity:1" />
        <path
           inkscape:connector-curvature="0"
           d="m 99.3,142.3 v -21.4 c -6.4,-1 -12.5,3.3 -13.6,9.8 -1,6.4 3.3,12.5 9.8,13.6 1.3,0.2 2.6,0.2 3.9,0 -0.1,-0.7 -0.1,-1.3 -0.1,-2 z"
           data-original="#F9D0B4"
           id="path36"
           style="fill:#333333;fill-opacity:1" />
        <path
           inkscape:connector-curvature="0"
           d="m 131.8,108 c -10.3,13 -25.6,11.2 -30.7,10.1 -0.8,-0.2 -1.6,0.3 -1.8,1.2 v 0.3 22.8 c 0,15.6 12.7,28.3 28.3,28.3 15.6,0 28.3,-12.7 28.3,-28.3 v -25.2 c 0,-0.1 0,-0.3 0,-0.4 0,-0.8 -0.7,-1.5 -1.5,-1.5 -11.8,-0.3 -18,-5 -20.3,-7.3 -0.6,-0.6 -1.6,-0.6 -2.2,0 0,-0.1 0,0 -0.1,0 z"
           data-original="#F9D0B4"
           id="path38"
           style="fill:#333333;fill-opacity:1" />
        <path
           inkscape:connector-curvature="0"
           d="m 127.6,170.7 c -4.4,0 -8.7,-1 -12.6,-3 v 10.5 l 4.5,12.8 c 0.3,0.7 1,1.2 1.8,1.2 H 135 c 0.8,0 1.5,-0.5 1.8,-1.2 l 4.5,-12.8 v -10.9 c -4.4,2.2 -9,3.4 -13.7,3.4 z"
           data-original="#F9D0B4"
           id="path40"
           style="fill:#333333;fill-opacity:1" />
      </g>
      <path
         inkscape:connector-curvature="0"
         style="fill:#333333;fill-opacity:1;stroke-width:2.39111948"
         d="m 50.950551,193.66745 c 1.43467,0 2.86934,0 4.30401,0.23911 V 190.559 c 0,-1.9129 1.67379,-3.58668 3.58668,-3.58668 h 0.71734 c 12.19471,2.63023 48.778849,6.93424 73.407369,-24.15031 1.19556,-1.67378 3.58668,-1.9129 5.02135,-0.71734 0,0 0.23911,0.23912 0.23911,0.23912 5.73869,5.49957 20.56363,16.73783 48.53973,17.45517 1.9129,0 3.34757,1.67378 3.58668,3.58668 v 0.95645 9.08625 c 8.84714,-1.43467 17.69429,1.43467 23.9112,7.65158 v -50.93084 c 0,-21.28097 -17.21606,-38.49703 -38.73614,-38.73614 -6.93425,0 -13.86849,1.91289 -19.84629,5.49957 -6.93425,-11.71648 -19.60718,-18.889843 -33.23656,-18.889843 h -19.84629 c -38.497029,0 -69.820699,31.323673 -69.820699,69.820693 v 31.32367 c 5.49958,-3.34757 11.71649,-5.49958 18.17251,-5.49958 z"
         data-original="#5B5D60"
         class=""
         id="path44" />
    </g>
  </g>
  <g
     inkscape:groupmode="layer"
     id="layer1"
     inkscape:label="Layer 1"
     style="display:inline">
    <circle
       style="fill:#333333;fill-opacity:1;stroke:#333333;stroke-width:21.12515068;stroke-linecap:round;stroke-miterlimit:4;stroke-dasharray:none;stroke-opacity:1"
       id="path916"
       cx="381.25427"
       cy="104.89426"
       r="93.981155" />
  </g>
  <g
     inkscape:groupmode="layer"
     id="layer2"
     inkscape:label="Layer 2"
     style="display:inline">
    <path
       style="fill:#ffffff;fill-opacity:1;stroke:#ffffff;stroke-width:7.89499998;stroke-linecap:butt;stroke-linejoin:round;stroke-miterlimit:4;stroke-dasharray:none;stroke-opacity:1"
       d="M 362.9958,144.61759 V 95.159201 h -24.46456 l 41.09585,-46.465964 40.67903,46.314164 h -24.87148 v 49.610189 z"
       id="path920"
       inkscape:connector-curvature="0"
       sodipodi:nodetypes="cccccccc" />
    <path
       style="display:inline;fill:#333333;fill-opacity:1;stroke-width:2.39111948"
       inkscape:connector-curvature="0"
       d="m 271.89,493.3554 -6.45602,-115.9693 c -0.71734,-14.34672 -10.76004,-26.54143 -24.62853,-29.889 l -51.8873,-13.15115 -27.73699,-13.62939 v -18.88984 c 18.65074,-11.47738 31.56278,-30.36722 34.67124,-52.12641 18.88984,-0.47822 33.71478,-16.0205 33.47567,-34.91034 -0.23911,-8.12981 -3.34757,-16.02051 -8.60803,-21.9983 v -48.53973 c 0,-24.62853 -20.0854,-44.713933 -44.71394,-44.713933 -6.21691,0 -12.19471,1.195563 -17.93339,3.825783 -8.36892,-10.760033 -21.28097,-17.216053 -35.14946,-17.216053 h -19.84628 c -41.844609,0 -75.798499,33.953893 -75.798499,75.798483 v 28.69344 c -13.629387,12.91204 -14.107611,34.67123 -1.19556,48.30061 6.21691,6.69514 14.82494,10.52093 23.91119,10.52093 3.34757,22.47652 16.97695,42.0837 36.58413,53.32197 v 17.69428 l -27.73699,13.62938 -51.8872921,13.15116 c -13.868493,3.34757 -23.9111959,15.54228 -24.6285309,29.889 l -6.456023,115.9693 c -0.478224,9.08625 6.456023,16.97695 15.5422772,17.45517 H -7.6318801 255.39127 c 9.08626,0 16.49873,-7.41247 16.49873,-16.49873 0,0 0,-0.47822 0,-0.71733 z M 196.56973,237.98383 V 193.509 c 12.19471,0.95645 21.52008,11.47738 20.56363,23.9112 -0.71733,10.99915 -9.56448,19.60718 -20.56363,20.56363 z M 39.234061,183.4663 v -21.04185 c 0,-35.14946 28.69344,-63.842893 63.842909,-63.842893 h 19.84628 c 11.47737,0 22.23741,6.216903 27.9761,16.020493 1.67378,2.86935 5.26046,3.8258 8.1298,2.15201 15.30317,-9.32536 35.38858,-4.30401 44.71394,10.99915 3.10846,5.02135 4.78224,10.99915 4.54313,16.97695 v 39.69259 c -3.82579,-1.67379 -7.8907,-2.63023 -11.9556,-2.86935 v -3.82579 c 0,-5.02135 -4.0649,-9.32536 -9.32537,-9.32536 -26.54142,-0.71734 -39.93169,-11.23827 -44.71393,-15.78139 -3.82579,-3.8258 -9.80359,-3.58668 -13.62938,0.23911 -0.23912,0.23911 -0.47823,0.47822 -0.71734,0.71733 -22.2374,27.9761 -54.756639,24.62854 -67.429569,21.9983 -4.78224,-0.95644 -9.56448,1.67379 -10.99915,6.21692 -3.34757,-0.23912 -6.93425,0.47822 -10.28182,1.67378 z m -10.52092,32.28011 c 0,-11.71648 9.08625,-21.28096 20.56363,-22.23741 v 44.47483 c -11.71649,-0.95645 -20.56363,-10.52093 -20.56363,-22.23742 z m 32.51922,23.19386 v -51.64818 c 14.10761,2.39112 49.735299,4.78224 74.842049,-24.86764 7.65158,6.69513 22.71563,16.25961 48.53972,17.45517 v 59.06065 c 0,22.47653 -12.43382,43.27927 -32.041,54.03931 h -0.23911 c -17.69428,9.56447 -38.97524,10.0427 -56.908629,0.95644 h -0.23913 c -20.80274,-10.28181 -33.9539,-31.56277 -33.9539,-54.99575 z m 87.754089,68.86425 v 15.78139 l -10.0427,28.69343 H 108.57654 L 98.533841,323.58591 v -15.06406 c 16.498709,5.73869 34.432109,5.49958 50.452609,-0.71733 z m -161.161457,186.26821 6.4560229,-115.9693 c 0.478224,-9.08625 6.934246,-16.73783 15.542277,-18.88984 L 62.427921,346.06243 c 0.47823,0 0.71734,-0.23911 1.19556,-0.47822 l 25.58498,-12.67294 8.36893,24.15031 c 1.43467,4.30402 5.499579,6.93425 9.803589,6.93425 h 32.75833 c 4.54313,0 8.36892,-2.86934 9.80359,-6.93425 l 8.36892,-24.15031 25.58498,12.67294 c 0.47822,0.23911 0.71733,0.23911 1.19556,0.47822 l 52.60463,13.15116 c 8.84714,2.15201 15.06405,9.80359 15.54228,18.88984 l 6.45602,115.9693 c 0.23911,2.63024 -1.67378,4.78224 -4.30402,4.78224 h -0.23911 -46.38772 v -58.58243 c 0,-3.34756 -2.63023,-5.9778 -5.9778,-5.9778 -3.34756,0 -5.9778,2.63024 -5.9778,5.9778 v 58.58243 H 48.559431 v -58.58243 c 0,-3.34756 -2.63023,-5.9778 -5.9778,-5.9778 -3.34757,0 -5.9778,2.63024 -5.9778,5.9778 v 58.58243 H -7.6318801 c -2.6302319,0 -4.5431269,-2.152 -4.5431269,-4.54312 z"
       data-original="#000000"
       class=""
       id="path46" />
  </g>
</svg>
